SplineFontDB: 3.2
FontName: IRMashhad
FullName: IRMashhad
FamilyName: IRMashhad
Weight: Book
Copyright: Copyright (c) 2022, Information Technology Organization of Iran (ito.gov.ir)
Version: 1.001
ItalicAngle: 0
UnderlinePosition: -100
UnderlineWidth: 60
Ascent: 1638
Descent: 410
InvalidEm: 0
sfntRevision: 0x00010042
LayerCount: 2
Layer: 0 1 "Back" 1
Layer: 1 1 "Fore" 0
XUID: [1021 420 722297922 7772248]
StyleMap: 0x0040
FSType: 0
OS2Version: 3
OS2_WeightWidthSlopeOnly: 0
OS2_UseTypoMetrics: 0
CreationTime: 1355089324
ModificationTime: 1662628420
PfmFamily: 17
TTFWeight: 400
TTFWidth: 5
LineGap: 100
VLineGap: 0
Panose: 2 0 5 3 0 0 0 2 0 2
OS2TypoAscent: 2209
OS2TypoAOffset: 0
OS2TypoDescent: -1411
OS2TypoDOffset: 0
OS2TypoLinegap: 1500
OS2WinAscent: 2209
OS2WinAOffset: 0
OS2WinDescent: 1411
OS2WinDOffset: 0
HheadAscent: 2209
HheadAOffset: 0
HheadDescent: -1411
HheadDOffset: 0
OS2SubXSize: 1434
OS2SubYSize: 1331
OS2SubXOff: 0
OS2SubYOff: 293
OS2SupXSize: 1434
OS2SupYSize: 1331
OS2SupXOff: 0
OS2SupYOff: 930
OS2StrikeYSize: 50
OS2StrikeYPos: 250
OS2CapHeight: 2196
OS2XHeight: 186
OS2FamilyClass: 2048
OS2Vendor: 'PARS'
OS2CodePages: 20000041.00000000
OS2UnicodeRanges: 00002003.00000000.00000000.00000000
Lookup: 1 1 0 "'isol' Isolated Forms in Arabic lookup 0" { "'isol' Isolated Forms in Arabic lookup 0 subtable"  } ['isol' ('arab' <'dflt' > ) ]
Lookup: 1 1 0 "'init' Initial Forms in Arabic lookup 1" { "'init' Initial Forms in Arabic lookup 1 subtable"  } ['init' ('arab' <'dflt' > ) ]
Lookup: 1 1 0 "'fina' Terminal Forms in Arabic lookup 2" { "'fina' Terminal Forms in Arabic lookup 2 subtable"  } ['fina' ('arab' <'dflt' > ) ]
Lookup: 1 1 0 "'medi' Medial Forms in Arabic lookup 3" { "'medi' Medial Forms in Arabic lookup 3 subtable"  } ['medi' ('arab' <'dflt' > ) ]
Lookup: 4 1 0 "'ccmp' Glyph Composition/Decomposition in Arabic lookup 4" { "'ccmp' Glyph Composition/Decomposition in Arabic lookup 4 subtable"  } ['ccmp' ('arab' <'dflt' > ) ]

StartChar: quotedbl
Encoding: 34 34 4
Width: 617
Flags: W
LayerCount: 2
Fore
SplineSet
429 1134 m 1,0,1
 424 1155 424 1155 420.5 1173 c 128,-1,2
 417 1191 417 1191 416 1199 c 0,3,4
 398 1284 398 1284 388.5 1344 c 128,-1,5
 379 1404 379 1404 379 1425 c 0,6,7
 379 1469 379 1469 399 1495 c 128,-1,8
 419 1521 419 1521 451 1521 c 0,9,10
 467 1521 467 1521 480 1514 c 128,-1,11
 493 1507 493 1507 503 1495 c 128,-1,12
 513 1483 513 1483 518.5 1466.5 c 128,-1,13
 524 1450 524 1450 524 1430 c 0,14,15
 524 1420 524 1420 521 1397.5 c 128,-1,16
 518 1375 518 1375 512 1339 c 128,-1,17
 506 1303 506 1303 496.5 1252 c 128,-1,18
 487 1201 487 1201 474 1134 c 1,19,-1
 429 1134 l 1,0,1
169 1134 m 1,20,21
 164 1155 164 1155 160.5 1173 c 128,-1,22
 157 1191 157 1191 156 1199 c 0,23,24
 138 1284 138 1284 128.5 1344 c 128,-1,25
 119 1404 119 1404 119 1425 c 0,26,27
 119 1469 119 1469 139 1495 c 128,-1,28
 159 1521 159 1521 191 1521 c 0,29,30
 207 1521 207 1521 220 1514 c 128,-1,31
 233 1507 233 1507 243 1495 c 128,-1,32
 253 1483 253 1483 258.5 1466.5 c 128,-1,33
 264 1450 264 1450 264 1430 c 0,34,35
 264 1420 264 1420 261 1397.5 c 128,-1,36
 258 1375 258 1375 252 1339 c 128,-1,37
 246 1303 246 1303 236.5 1252 c 128,-1,38
 227 1201 227 1201 214 1134 c 1,39,-1
 169 1134 l 1,20,21
EndSplineSet
EndChar

StartChar: quotesingle
Encoding: 39 39 5
Width: 333
Flags: W
LayerCount: 2
Fore
SplineSet
150 1134 m 1,0,1
 145 1155 145 1155 141.5 1173 c 128,-1,2
 138 1191 138 1191 137 1199 c 0,3,4
 119 1284 119 1284 109.5 1344 c 128,-1,5
 100 1404 100 1404 100 1425 c 0,6,7
 100 1469 100 1469 120 1495 c 128,-1,8
 140 1521 140 1521 172 1521 c 0,9,10
 188 1521 188 1521 201 1514 c 128,-1,11
 214 1507 214 1507 224 1495 c 128,-1,12
 234 1483 234 1483 239.5 1466.5 c 128,-1,13
 245 1450 245 1450 245 1430 c 0,14,15
 245 1420 245 1420 242 1397.5 c 128,-1,16
 239 1375 239 1375 233 1339 c 128,-1,17
 227 1303 227 1303 217.5 1252 c 128,-1,18
 208 1201 208 1201 195 1134 c 1,19,-1
 150 1134 l 1,0,1
EndSplineSet
EndChar

StartChar: asterisk
Encoding: 42 42 6
Width: 1126
Flags: W
LayerCount: 2
Fore
SplineSet
568 347 m 1,0,-1
 574 687 l 1,1,-1
 355 467 l 1,2,-1
 250 467 l 1,3,-1
 527 746 l 1,4,-1
 203 746 l 1,5,-1
 223 839 l 1,6,-1
 547 839 l 1,7,-1
 277 1104 l 1,8,-1
 370 1104 l 1,9,-1
 579 899 l 1,10,-1
 585 1199 l 1,11,-1
 704 1239 l 1,12,-1
 699 912 l 1,13,-1
 905 1104 l 1,14,-1
 1013 1104 l 1,15,-1
 730 839 l 1,16,-1
 1065 839 l 1,17,-1
 1043 746 l 1,18,-1
 729 746 l 1,19,-1
 1002 467 l 1,20,-1
 910 467 l 1,21,-1
 696 687 l 1,22,-1
 688 386 l 1,23,-1
 568 347 l 1,0,-1
EndSplineSet
EndChar

StartChar: plus
Encoding: 43 43 7
Width: 1121
GlyphClass: 2
Flags: W
LayerCount: 2
Fore
SplineSet
978 454 m 1,0,-1
 626 454 l 1,1,-1
 626 106 l 1,2,-1
 499 106 l 1,3,-1
 499 454 l 1,4,-1
 150 454 l 1,5,-1
 150 587 l 1,6,-1
 499 587 l 1,7,-1
 499 938 l 1,8,-1
 626 938 l 1,9,-1
 626 587 l 1,10,-1
 978 587 l 1,11,-1
 978 454 l 1,0,-1
EndSplineSet
EndChar

StartChar: hyphen
Encoding: 45 45 8
Width: 1360
Flags: W
LayerCount: 2
Fore
SplineSet
182 721 m 1,0,-1
 1167 721 l 1,1,-1
 1167 573 l 1,2,-1
 182 573 l 1,3,-1
 182 721 l 1,0,-1
EndSplineSet
EndChar

StartChar: period
Encoding: 46 46 9
Width: 645
GlyphClass: 2
Flags: W
LayerCount: 2
Fore
SplineSet
418 239 m 0,0,1
 469 239 469 239 504 203.5 c 128,-1,2
 539 168 539 168 539 118 c 256,3,4
 539 68 539 68 503.5 32 c 128,-1,5
 468 -4 468 -4 418 -4 c 256,6,7
 368 -4 368 -4 332 32 c 128,-1,8
 296 68 296 68 296 118 c 256,9,10
 296 168 296 168 332 203.5 c 128,-1,11
 368 239 368 239 418 239 c 0,0,1
EndSplineSet
EndChar

StartChar: slash
Encoding: 47 47 10
Width: 646
Flags: W
LayerCount: 2
Fore
SplineSet
465 925 m 1,0,-1
 606 925 l 1,1,-1
 198 -222 l 1,2,-1
 57 -222 l 1,3,-1
 465 925 l 1,0,-1
EndSplineSet
EndChar

StartChar: less
Encoding: 60 60 11
Width: 1117
Flags: W
LayerCount: 2
Fore
SplineSet
955 58 m 1,0,-1
 150 444 l 1,1,-1
 150 534 l 1,2,-1
 955 918 l 1,3,-1
 955 784 l 1,4,-1
 331 489 l 1,5,-1
 955 192 l 1,6,-1
 955 58 l 1,0,-1
EndSplineSet
EndChar

StartChar: equal
Encoding: 61 61 12
Width: 1018
Flags: W
LayerCount: 2
Fore
SplineSet
169 675 m 1,0,-1
 850 675 l 1,1,-1
 850 551 l 1,2,-1
 169 551 l 1,3,-1
 169 675 l 1,0,-1
169 408 m 1,4,-1
 850 408 l 1,5,-1
 850 284 l 1,6,-1
 169 284 l 1,7,-1
 169 408 l 1,4,-1
EndSplineSet
EndChar

StartChar: greater
Encoding: 62 62 13
Width: 1117
Flags: W
LayerCount: 2
Fore
SplineSet
966 444 m 1,0,-1
 160 58 l 1,1,-1
 160 192 l 1,2,-1
 786 489 l 1,3,-1
 160 784 l 1,4,-1
 160 918 l 1,5,-1
 966 534 l 1,6,-1
 966 444 l 1,0,-1
EndSplineSet
EndChar

StartChar: bracketleft
Encoding: 91 91 14
Width: 651
GlyphClass: 2
Flags: W
LayerCount: 2
Fore
SplineSet
566 -234 m 1,0,-1
 192 -234 l 1,1,-1
 192 1701 l 1,2,-1
 566 1701 l 1,3,-1
 566 1603 l 1,4,-1
 332 1603 l 1,5,-1
 332 -137 l 1,6,-1
 566 -137 l 1,7,-1
 566 -234 l 1,0,-1
EndSplineSet
EndChar

StartChar: bracketright
Encoding: 93 93 15
Width: 651
GlyphClass: 2
Flags: W
LayerCount: 2
Fore
SplineSet
213 -137 m 1,0,-1
 447 -137 l 1,1,-1
 447 1603 l 1,2,-1
 213 1603 l 1,3,-1
 213 1701 l 1,4,-1
 588 1701 l 1,5,-1
 588 -234 l 1,6,-1
 213 -234 l 1,7,-1
 213 -137 l 1,0,-1
EndSplineSet
EndChar

StartChar: grave
Encoding: 96 96 16
Width: 510
Flags: W
LayerCount: 2
Fore
SplineSet
310 776 m 1,0,-1
 73 925 l 2,1,2
 53 940 53 940 41 956 c 128,-1,3
 29 972 29 972 29 991 c 0,4,5
 29 1013 29 1013 43 1026 c 128,-1,6
 57 1039 57 1039 82 1039 c 0,7,8
 98 1039 98 1039 111.5 1031 c 128,-1,9
 125 1023 125 1023 146 1003 c 2,10,-1
 371 776 l 1,11,-1
 310 776 l 1,0,-1
EndSplineSet
EndChar

StartChar: braceleft
Encoding: 123 123 17
Width: 838
GlyphClass: 2
Flags: W
LayerCount: 2
Fore
SplineSet
716 -348 m 1,0,-1
 716 -377 l 1,1,2
 574 -357 574 -357 485 -261 c 128,-1,3
 396 -165 396 -165 396 -49 c 0,4,5
 396 12 396 12 416 94 c 128,-1,6
 436 176 436 176 436 221 c 0,7,8
 436 282 436 282 384 335.5 c 128,-1,9
 332 389 332 389 241 400 c 1,10,-1
 241 436 l 1,11,12
 332 447 332 447 384 500 c 128,-1,13
 436 553 436 553 436 616 c 0,14,15
 436 660 436 660 416 741 c 128,-1,16
 396 822 396 822 396 884 c 0,17,18
 396 1000 396 1000 485 1096 c 128,-1,19
 574 1192 574 1192 716 1212 c 1,20,-1
 716 1182 l 1,21,22
 617 1158 617 1158 570.5 1104 c 128,-1,23
 524 1050 524 1050 524 986 c 0,24,25
 524 935 524 935 543 852.5 c 128,-1,26
 562 770 562 770 562 713 c 0,27,28
 562 627 562 627 499 546 c 128,-1,29
 436 465 436 465 311 419 c 1,30,31
 434 375 434 375 498 292.5 c 128,-1,32
 562 210 562 210 562 124 c 0,33,34
 562 66 562 66 543 -16.5 c 128,-1,35
 524 -99 524 -99 524 -149 c 0,36,37
 524 -214 524 -214 570.5 -267.5 c 128,-1,38
 617 -321 617 -321 716 -348 c 1,0,-1
EndSplineSet
EndChar

StartChar: bar
Encoding: 124 124 18
Width: 349
Flags: W
LayerCount: 2
Fore
SplineSet
209 1212 m 1,0,-1
 209 -377 l 1,1,-1
 137 -377 l 1,2,-1
 137 1212 l 1,3,-1
 209 1212 l 1,0,-1
EndSplineSet
EndChar

StartChar: asciitilde
Encoding: 126 126 19
Width: 943
Flags: W
LayerCount: 2
Fore
SplineSet
888 575 m 1,0,-1
 927 575 l 1,1,2
 922 465 922 465 862.5 402 c 128,-1,3
 803 339 803 339 717 339 c 0,4,5
 678 339 678 339 633 352 c 128,-1,6
 588 365 588 365 400 443 c 0,7,8
 268 496 268 496 213 496 c 0,9,10
 153 496 153 496 112 460 c 128,-1,11
 71 424 71 424 55 341 c 1,12,-1
 18 341 l 1,13,14
 22 456 22 456 80 516.5 c 128,-1,15
 138 577 138 577 216 577 c 0,16,17
 253 577 253 577 292 565 c 0,18,19
 381 540 381 540 526 478 c 128,-1,20
 671 416 671 416 730 416 c 0,21,22
 794 416 794 416 837 457 c 128,-1,23
 880 498 880 498 888 575 c 1,0,-1
EndSplineSet
EndChar

StartChar: agrave
Encoding: 224 224 20
Width: 1075
Flags: W
LayerCount: 2
Fore
SplineSet
741 331 m 1,0,1
 720 266 720 266 690.5 213 c 128,-1,2
 661 160 661 160 626 114 c 0,3,4
 519 -19 519 -19 400 -19 c 0,5,6
 208 -19 208 -19 159 214 c 0,7,8
 133 334 133 334 157 451 c 128,-1,9
 181 568 181 568 252 683 c 0,10,11
 325 801 325 801 433 860 c 128,-1,12
 541 919 541 919 684 919 c 0,13,14
 712 919 712 919 746 918.5 c 128,-1,15
 780 918 780 918 815.5 916 c 128,-1,16
 851 914 851 914 886 912 c 128,-1,17
 921 910 921 910 952 908 c 1,18,-1
 946 646 l 1,19,-1
 946 647 l 1,20,-1
 950 254 l 2,21,22
 952 209 952 209 954.5 179.5 c 128,-1,23
 957 150 957 150 958 139 c 0,24,25
 961 114 961 114 985 114 c 0,26,27
 1053 114 1053 114 1214 346 c 1,28,-1
 1218 179 l 1,29,30
 1073 -19 1073 -19 925 -19 c 0,31,32
 785 -19 785 -19 753 126 c 0,33,34
 749 146 749 146 747 182 c 128,-1,35
 745 218 745 218 745 264 c 2,36,-1
 741 331 l 1,0,1
737 758 m 1,37,38
 688 775 688 775 647 783.5 c 128,-1,39
 606 792 606 792 561 792 c 0,40,41
 497 792 497 792 453.5 749.5 c 128,-1,42
 410 707 410 707 387 625 c 0,43,44
 362 522 362 522 357 425 c 128,-1,45
 352 328 352 328 368 248 c 0,46,47
 388 146 388 146 437 146 c 0,48,49
 493 146 493 146 589 280 c 0,50,51
 637 352 637 352 674 430 c 128,-1,52
 711 508 711 508 739 599 c 1,53,-1
 737 758 l 1,37,38
599 431 m 1,54,-1
 362 580 l 2,55,56
 342 595 342 595 330 611 c 128,-1,57
 318 627 318 627 318 646 c 0,58,59
 318 668 318 668 332 681 c 128,-1,60
 346 694 346 694 371 694 c 0,61,62
 387 694 387 694 400.5 686 c 128,-1,63
 414 678 414 678 435 658 c 2,64,-1
 660 431 l 1,65,-1
 599 431 l 1,54,-1
EndSplineSet
EndChar

StartChar: ocircumflex.001
Encoding: 65539 -1 26
Width: 1112
Flags: W
LayerCount: 2
Fore
SplineSet
416 -19 m 0,0,1
 301 -19 301 -19 205 70 c 0,2,3
 110 160 110 160 85 288 c 0,4,5
 32 528 32 528 170 726 c 0,6,7
 307 928 307 928 522 928 c 0,8,9
 643 928 643 928 742 842 c 1,10,11
 837 753 837 753 864 626 c 0,12,13
 890 499 890 499 869 388.5 c 128,-1,14
 848 278 848 278 781 179 c 0,15,16
 711 79 711 79 619.5 30 c 128,-1,17
 528 -19 528 -19 416 -19 c 0,0,1
483 98 m 0,18,19
 536 98 536 98 573.5 133 c 128,-1,20
 611 168 611 168 637 236 c 0,21,22
 665 310 665 310 668.5 393.5 c 128,-1,23
 672 477 672 477 652 574 c 0,24,25
 602 813 602 813 466 813 c 0,26,27
 365 813 365 813 313 670 c 0,28,29
 284 595 284 595 281 510.5 c 128,-1,30
 278 426 278 426 298 332 c 0,31,32
 324 213 324 213 370 155.5 c 128,-1,33
 416 98 416 98 483 98 c 0,18,19
EndSplineSet
EndChar

StartChar: dagger
Encoding: 8224 8224 30
Width: 932
Flags: W
LayerCount: 2
Fore
SplineSet
347 -231 m 1,0,-1
 567 622 l 1,1,-1
 248 592 l 1,2,-1
 297 700 l 1,3,-1
 576 668 l 1,4,-1
 607 1066 l 1,5,-1
 755 1093 l 1,6,-1
 621 668 l 1,7,-1
 941 700 l 1,8,-1
 895 592 l 1,9,-1
 612 622 l 1,10,-1
 496 -213 l 1,11,-1
 347 -231 l 1,0,-1
EndSplineSet
EndChar

StartChar: degree
Encoding: 176 176 31
Width: 409
Flags: W
LayerCount: 2
Fore
SplineSet
395 844 m 0,0,1
 344 844 344 844 307.5 880 c 128,-1,2
 271 916 271 916 271 968 c 0,3,4
 271 1021 271 1021 307.5 1057 c 128,-1,5
 344 1093 344 1093 395 1093 c 0,6,7
 447 1093 447 1093 483 1057 c 128,-1,8
 519 1021 519 1021 519 968 c 0,9,10
 519 916 519 916 483 880 c 128,-1,11
 447 844 447 844 395 844 c 0,0,1
395 888 m 256,12,13
 427 888 427 888 450.5 912 c 128,-1,14
 474 936 474 936 474 968 c 256,15,16
 474 1000 474 1000 450.5 1024 c 128,-1,17
 427 1048 427 1048 395 1048 c 256,18,19
 363 1048 363 1048 339 1024 c 128,-1,20
 315 1000 315 1000 315 968 c 256,21,22
 315 936 315 936 339 912 c 128,-1,23
 363 888 363 888 395 888 c 256,12,13
EndSplineSet
EndChar

StartChar: bullet
Encoding: 8226 8226 32
Width: 931
Flags: W
LayerCount: 2
Fore
SplineSet
817 662 m 256,0,1
 817 517 817 517 713.5 414 c 128,-1,2
 610 311 610 311 465 311 c 256,3,4
 320 311 320 311 217 414 c 128,-1,5
 114 517 114 517 114 662 c 256,6,7
 114 807 114 807 217 910 c 128,-1,8
 320 1013 320 1013 465 1013 c 256,9,10
 610 1013 610 1013 713.5 910 c 128,-1,11
 817 807 817 807 817 662 c 256,0,1
EndSplineSet
EndChar

StartChar: registered
Encoding: 174 174 33
Width: 897
Flags: W
LayerCount: 2
Fore
SplineSet
580 445 m 0,0,1
 448 445 448 445 354.5 538.5 c 128,-1,2
 261 632 261 632 261 764 c 256,3,4
 261 896 261 896 354.5 990 c 128,-1,5
 448 1084 448 1084 580 1084 c 0,6,7
 714 1084 714 1084 807 990 c 128,-1,8
 900 896 900 896 900 764 c 256,9,10
 900 632 900 632 806.5 538.5 c 128,-1,11
 713 445 713 445 580 445 c 0,0,1
580 484 m 0,12,13
 695 484 695 484 777.5 567 c 128,-1,14
 860 650 860 650 860 764 c 256,15,16
 860 878 860 878 777.5 961 c 128,-1,17
 695 1044 695 1044 580 1044 c 0,18,19
 466 1044 466 1044 383.5 961 c 128,-1,20
 301 878 301 878 301 764 c 256,21,22
 301 650 301 650 383.5 567 c 128,-1,23
 466 484 466 484 580 484 c 0,12,13
529 737 m 1,24,-1
 501 596 l 1,25,-1
 394 596 l 1,26,-1
 403 639 l 1,27,-1
 456 639 l 1,28,-1
 511 915 l 1,29,-1
 458 915 l 1,30,-1
 466 959 l 1,31,-1
 598 959 l 2,32,33
 751 959 751 959 751 875 c 0,34,35
 751 800 751 800 650 750 c 1,36,-1
 685 639 l 1,37,-1
 747 639 l 1,38,-1
 738 596 l 1,39,-1
 641 596 l 1,40,-1
 591 737 l 1,41,-1
 529 737 l 1,24,-1
538 782 m 1,42,-1
 574 782 l 2,43,44
 697 782 697 782 697 866 c 0,45,46
 697 915 697 915 607 915 c 2,47,-1
 564 915 l 1,48,-1
 538 782 l 1,42,-1
EndSplineSet
EndChar

StartChar: copyright
Encoding: 169 169 34
Width: 1244
Flags: W
LayerCount: 2
Fore
SplineSet
725 -27 m 0,0,1
 495 -27 495 -27 330.5 137 c 128,-1,2
 166 301 166 301 166 533 c 256,3,4
 166 765 166 765 330.5 929 c 128,-1,5
 495 1093 495 1093 725 1093 c 0,6,7
 958 1093 958 1093 1122 929 c 128,-1,8
 1286 765 1286 765 1286 533 c 256,9,10
 1286 301 1286 301 1122 137 c 128,-1,11
 958 -27 958 -27 725 -27 c 0,0,1
725 18 m 0,12,13
 939 18 939 18 1090 169 c 128,-1,14
 1241 320 1241 320 1241 533 c 256,15,16
 1241 746 1241 746 1090 897 c 128,-1,17
 939 1048 939 1048 725 1048 c 0,18,19
 513 1048 513 1048 362 897 c 128,-1,20
 211 746 211 746 211 533 c 256,21,22
 211 320 211 320 362 169 c 128,-1,23
 513 18 513 18 725 18 c 0,12,13
890 246 m 1,24,25
 785 213 785 213 704 213 c 0,26,27
 580 213 580 213 508 279.5 c 128,-1,28
 436 346 436 346 436 462 c 0,29,30
 436 625 436 625 541 734.5 c 128,-1,31
 646 844 646 844 805 844 c 0,32,33
 896 844 896 844 1003 814 c 1,34,-1
 967 675 l 1,35,-1
 915 684 l 1,36,-1
 923 766 l 1,37,38
 854 798 854 798 792 798 c 0,39,40
 688 798 688 798 616 700 c 128,-1,41
 544 602 544 602 544 462 c 0,42,43
 544 271 544 271 722 271 c 0,44,45
 823 271 823 271 902 307 c 1,46,-1
 890 246 l 1,24,25
EndSplineSet
EndChar

StartChar: trademark
Encoding: 8482 8482 35
Width: 1333
Flags: W
LayerCount: 2
Fore
SplineSet
440 1021 m 1,0,-1
 307 1021 l 1,1,-1
 288 923 l 1,2,-1
 225 923 l 1,3,-1
 254 1066 l 1,4,-1
 751 1066 l 1,5,-1
 723 923 l 1,6,-1
 661 923 l 1,7,-1
 679 1021 l 1,8,-1
 546 1021 l 1,9,-1
 456 569 l 1,10,-1
 554 569 l 1,11,-1
 545 524 l 1,12,-1
 243 524 l 1,13,-1
 253 569 l 1,14,-1
 350 569 l 1,15,-1
 440 1021 l 1,0,-1
1011 569 m 1,16,-1
 942 956 l 1,17,-1
 857 524 l 1,18,-1
 688 524 l 1,19,-1
 697 569 l 1,20,-1
 794 569 l 1,21,-1
 884 1021 l 1,22,-1
 787 1021 l 1,23,-1
 796 1066 l 1,24,-1
 1036 1066 l 1,25,-1
 1092 747 l 1,26,-1
 1265 1066 l 1,27,-1
 1481 1066 l 1,28,-1
 1473 1021 l 1,29,-1
 1375 1021 l 1,30,-1
 1285 569 l 1,31,-1
 1383 569 l 1,32,-1
 1373 524 l 1,33,-1
 1178 524 l 1,34,-1
 1270 985 l 1,35,-1
 1041 569 l 1,36,-1
 1011 569 l 1,16,-1
EndSplineSet
EndChar

StartChar: logicalnot
Encoding: 172 172 39
Width: 932
Flags: W
LayerCount: 2
Fore
SplineSet
177 510 m 1,0,-1
 193 590 l 1,1,-1
 975 590 l 1,2,-1
 906 248 l 1,3,-1
 814 248 l 1,4,-1
 866 510 l 1,5,-1
 177 510 l 1,0,-1
EndSplineSet
EndChar

StartChar: florin
Encoding: 402 402 40
Width: 679
Flags: W
LayerCount: 2
Fore
SplineSet
158 -231 m 1,0,-1
 210 -18 l 1,1,-1
 286 364 l 1,2,-1
 108 364 l 1,3,-1
 117 409 l 1,4,-1
 294 409 l 1,5,-1
 298 427 l 2,6,7
 330 586 330 586 463 692.5 c 128,-1,8
 596 799 596 799 761 799 c 0,9,10
 818 799 818 799 860 784 c 1,11,-1
 764 678 l 1,12,13
 712 729 712 729 643 729 c 0,14,15
 500 729 500 729 457 512 c 2,16,-1
 436 409 l 1,17,-1
 623 409 l 1,18,-1
 614 364 l 1,19,-1
 427 364 l 1,20,-1
 313 -213 l 1,21,-1
 158 -231 l 1,0,-1
EndSplineSet
EndChar

StartChar: ellipsis
Encoding: 8230 8230 41
Width: 1827
Flags: W
LayerCount: 2
Fore
SplineSet
758 113 m 0,0,1
 758 144 758 144 809.5 245.5 c 128,-1,2
 861 347 861 347 876 355 c 0,3,4
 907 369 907 369 964.5 307.5 c 128,-1,5
 1022 246 1022 246 1026 211 c 1,6,7
 1026 166 1026 166 977.5 79.5 c 128,-1,8
 929 -7 929 -7 908 -7 c 0,9,10
 899 -7 899 -7 851 26.5 c 128,-1,11
 803 60 803 60 778 79 c 0,12,13
 758 96 758 96 758 113 c 0,0,1
1308 113 m 0,14,15
 1308 144 1308 144 1359 245.5 c 128,-1,16
 1410 347 1410 347 1426 355 c 0,17,18
 1457 369 1457 369 1514.5 307.5 c 128,-1,19
 1572 246 1572 246 1575 211 c 0,20,21
 1575 166 1575 166 1527 79.5 c 128,-1,22
 1479 -7 1479 -7 1458 -7 c 0,23,24
 1449 -7 1449 -7 1401 26.5 c 128,-1,25
 1353 60 1353 60 1328 79 c 0,26,27
 1308 96 1308 96 1308 113 c 0,14,15
211 113 m 0,28,29
 211 144 211 144 262 245.5 c 128,-1,30
 313 347 313 347 329 355 c 0,31,32
 360 369 360 369 417.5 307.5 c 128,-1,33
 475 246 475 246 478 211 c 0,34,35
 478 166 478 166 430 79.5 c 128,-1,36
 382 -7 382 -7 361 -7 c 0,37,38
 352 -7 352 -7 304 26.5 c 128,-1,39
 256 60 256 60 231 79 c 0,40,41
 211 96 211 96 211 113 c 0,28,29
EndSplineSet
EndChar

StartChar: endash
Encoding: 8211 8211 42
Width: 434
Flags: W
LayerCount: 2
Fore
SplineSet
434 154 m 1,0,-1
 0 154 l 1,1,-1
 0 234 l 1,2,-1
 434 234 l 1,3,-1
 434 154 l 1,0,-1
EndSplineSet
EndChar

StartChar: emdash
Encoding: 8212 8212 43
Width: 1862
Flags: W
LayerCount: 2
Fore
SplineSet
1866 572 m 1,0,-1
 -4 572 l 1,1,-1
 -4 732 l 1,2,-1
 1866 732 l 1,3,-1
 1866 572 l 1,0,-1
EndSplineSet
EndChar

StartChar: quotedblleft
Encoding: 8220 8220 44
Width: 613
Flags: W
LayerCount: 2
Fore
SplineSet
344 1318 m 0,0,1
 345 1392 345 1392 395.5 1465 c 128,-1,2
 446 1538 446 1538 508 1568 c 1,3,-1
 544 1501 l 1,4,5
 526 1491 526 1491 500.5 1463.5 c 128,-1,6
 475 1436 475 1436 464 1392 c 1,7,8
 539 1360 539 1360 536 1297 c 0,9,10
 536 1278 536 1278 529 1261.5 c 128,-1,11
 522 1245 522 1245 509.5 1232.5 c 128,-1,12
 497 1220 497 1220 480 1212.5 c 128,-1,13
 463 1205 463 1205 444 1205 c 0,14,15
 420 1205 420 1205 401.5 1214.5 c 128,-1,16
 383 1224 383 1224 370.5 1240 c 128,-1,17
 358 1256 358 1256 351 1276.5 c 128,-1,18
 344 1297 344 1297 344 1318 c 0,0,1
93 1318 m 0,19,20
 94 1392 94 1392 144.5 1465 c 128,-1,21
 195 1538 195 1538 258 1568 c 1,22,-1
 294 1501 l 1,23,24
 275 1491 275 1491 250 1463.5 c 128,-1,25
 225 1436 225 1436 213 1392 c 1,26,27
 289 1360 289 1360 286 1297 c 0,28,29
 286 1278 286 1278 278.5 1261.5 c 128,-1,30
 271 1245 271 1245 258 1232.5 c 128,-1,31
 245 1220 245 1220 228.5 1212.5 c 128,-1,32
 212 1205 212 1205 193 1205 c 0,33,34
 170 1205 170 1205 151.5 1214.5 c 128,-1,35
 133 1224 133 1224 120 1240 c 128,-1,36
 107 1256 107 1256 100 1276.5 c 128,-1,37
 93 1297 93 1297 93 1318 c 0,19,20
EndSplineSet
EndChar

StartChar: quotedblright
Encoding: 8221 8221 45
Width: 597
Flags: W
LayerCount: 2
Fore
SplineSet
293 1455 m 0,0,1
 292 1381 292 1381 241.5 1308 c 128,-1,2
 191 1235 191 1235 129 1205 c 1,3,-1
 93 1272 l 1,4,5
 111 1282 111 1282 136.5 1309.5 c 128,-1,6
 162 1337 162 1337 173 1381 c 1,7,8
 98 1413 98 1413 101 1476 c 0,9,10
 101 1495 101 1495 108 1511.5 c 128,-1,11
 115 1528 115 1528 127.5 1540.5 c 128,-1,12
 140 1553 140 1553 157 1560.5 c 128,-1,13
 174 1568 174 1568 193 1568 c 0,14,15
 217 1568 217 1568 235.5 1558.5 c 128,-1,16
 254 1549 254 1549 266.5 1533 c 128,-1,17
 279 1517 279 1517 286 1496.5 c 128,-1,18
 293 1476 293 1476 293 1455 c 0,0,1
544 1455 m 0,19,20
 543 1381 543 1381 492.5 1308 c 128,-1,21
 442 1235 442 1235 379 1205 c 1,22,-1
 343 1272 l 1,23,24
 362 1282 362 1282 387 1309.5 c 128,-1,25
 412 1337 412 1337 424 1381 c 1,26,27
 348 1413 348 1413 351 1476 c 0,28,29
 351 1495 351 1495 358.5 1511.5 c 128,-1,30
 366 1528 366 1528 378.5 1540.5 c 128,-1,31
 391 1553 391 1553 408 1560.5 c 128,-1,32
 425 1568 425 1568 444 1568 c 0,33,34
 467 1568 467 1568 485.5 1558.5 c 128,-1,35
 504 1549 504 1549 517 1533 c 128,-1,36
 530 1517 530 1517 537 1496.5 c 128,-1,37
 544 1476 544 1476 544 1455 c 0,19,20
EndSplineSet
EndChar

StartChar: divide
Encoding: 247 247 46
Width: 1094
Flags: W
LayerCount: 2
Fore
SplineSet
523 267 m 0,0,1
 560 267 560 267 586 240.5 c 128,-1,2
 612 214 612 214 612 177 c 0,3,4
 612 143 612 143 587 116.5 c 128,-1,5
 562 90 562 90 524 90 c 0,6,7
 487 90 487 90 460.5 116 c 128,-1,8
 434 142 434 142 434 178 c 0,9,10
 434 215 434 215 461 241 c 128,-1,11
 488 267 488 267 523 267 c 0,0,1
523 892 m 0,12,13
 560 892 560 892 586 865.5 c 128,-1,14
 612 839 612 839 612 804 c 256,15,16
 612 769 612 769 587 742 c 128,-1,17
 562 715 562 715 524 715 c 0,18,19
 487 715 487 715 460.5 741 c 128,-1,20
 434 767 434 767 434 804 c 0,21,22
 434 840 434 840 461 866 c 128,-1,23
 488 892 488 892 523 892 c 0,12,13
929 431 m 1,24,-1
 123 431 l 1,25,-1
 123 556 l 1,26,-1
 929 556 l 1,27,-1
 929 431 l 1,24,-1
EndSplineSet
EndChar

StartChar: lozenge
Encoding: 9674 9674 47
Width: 1118
Flags: W
LayerCount: 2
Fore
SplineSet
1003 699 m 1,0,-1
 560 197 l 1,1,-1
 117 699 l 1,2,-1
 560 1202 l 1,3,-1
 1003 699 l 1,0,-1
848 699 m 1,4,-1
 560 1036 l 1,5,-1
 271 699 l 1,6,-1
 560 364 l 1,7,-1
 848 699 l 1,4,-1
EndSplineSet
EndChar

StartChar: fraction
Encoding: 8260 8260 48
Width: 742
Flags: W
LayerCount: 2
Fore
SplineSet
740 1101 m 1,0,-1
 101 -82 l 1,1,-1
 -9 -82 l 1,2,-1
 629 1101 l 1,3,-1
 740 1101 l 1,0,-1
EndSplineSet
EndChar

StartChar: guilsinglleft
Encoding: 8249 8249 49
Width: 1117
Flags: W
LayerCount: 2
Fore
SplineSet
955 58 m 1,0,-1
 150 444 l 1,1,-1
 150 534 l 1,2,-1
 955 918 l 1,3,-1
 955 784 l 1,4,-1
 331 489 l 1,5,-1
 955 192 l 1,6,-1
 955 58 l 1,0,-1
EndSplineSet
EndChar

StartChar: daggerdbl
Encoding: 8225 8225 52
Width: 932
Flags: W
LayerCount: 2
Fore
SplineSet
349 -231 m 1,0,-1
 481 185 l 1,1,-1
 161 154 l 1,2,-1
 211 261 l 1,3,-1
 490 229 l 1,4,-1
 567 616 l 1,5,-1
 247 586 l 1,6,-1
 297 693 l 1,7,-1
 575 661 l 1,8,-1
 608 1066 l 1,9,-1
 758 1093 l 1,10,-1
 620 661 l 1,11,-1
 940 693 l 1,12,-1
 889 586 l 1,13,-1
 611 616 l 1,14,-1
 535 229 l 1,15,-1
 855 261 l 1,16,-1
 804 154 l 1,17,-1
 525 185 l 1,18,-1
 499 -213 l 1,19,-1
 349 -231 l 1,0,-1
EndSplineSet
EndChar

StartChar: middot.001
Encoding: 8729 8729 53
Width: 620
Flags: W
LayerCount: 2
Fore
SplineSet
429 516 m 1,0,-1
 190 516 l 1,1,-1
 190 789 l 1,2,-1
 429 789 l 1,3,-1
 429 516 l 1,0,-1
EndSplineSet
EndChar

StartChar: quotesinglbase
Encoding: 8218 8218 54
Width: 418
Flags: W
LayerCount: 2
Fore
SplineSet
103 128 m 1,0,-1
 247 231 l 1,1,-1
 353 90 l 1,2,3
 345 -56 345 -56 262.5 -134.5 c 128,-1,4
 180 -213 180 -213 36 -213 c 1,5,-1
 76 -168 l 1,6,7
 189 -158 189 -158 211 -18 c 1,8,-1
 103 128 l 1,0,-1
EndSplineSet
EndChar

StartChar: quotedblbase
Encoding: 8222 8222 55
Width: 684
Flags: W
LayerCount: 2
Fore
SplineSet
91 92 m 1,0,-1
 204 178 l 1,1,-1
 292 64 l 1,2,3
 270 -213 270 -213 31 -213 c 1,4,-1
 60 -168 l 1,5,6
 166 -148 166 -148 179 -16 c 1,7,-1
 91 92 l 1,0,-1
401 92 m 1,8,-1
 516 178 l 1,9,-1
 602 64 l 1,10,11
 581 -213 581 -213 341 -213 c 1,12,-1
 372 -168 l 1,13,14
 476 -148 476 -148 490 -16 c 1,15,-1
 401 92 l 1,8,-1
EndSplineSet
EndChar

StartChar: perthousand
Encoding: 8240 8240 56
Width: 1571
Flags: W
LayerCount: 2
Fore
SplineSet
385 533 m 0,0,1
 304 533 304 533 254.5 584.5 c 128,-1,2
 205 636 205 636 205 722 c 0,3,4
 205 865 205 865 286.5 965.5 c 128,-1,5
 368 1066 368 1066 483 1066 c 0,6,7
 567 1066 567 1066 617.5 1014.5 c 128,-1,8
 668 963 668 963 668 877 c 0,9,10
 668 733 668 733 585.5 633 c 128,-1,11
 503 533 503 533 385 533 c 0,0,1
311 715 m 0,12,13
 311 578 311 578 398 578 c 0,14,15
 463 578 463 578 517 671.5 c 128,-1,16
 571 765 571 765 571 881 c 0,17,18
 571 1022 571 1022 483 1022 c 0,19,20
 416 1022 416 1022 363.5 928 c 128,-1,21
 311 834 311 834 311 715 c 0,12,13
850 0 m 0,22,23
 769 0 769 0 719.5 51.5 c 128,-1,24
 670 103 670 103 670 189 c 0,25,26
 670 331 670 331 751 432 c 128,-1,27
 832 533 832 533 947 533 c 0,28,29
 1031 533 1031 533 1081.5 481.5 c 128,-1,30
 1132 430 1132 430 1132 344 c 0,31,32
 1132 200 1132 200 1049.5 100 c 128,-1,33
 967 0 967 0 850 0 c 0,22,23
776 182 m 0,34,35
 776 44 776 44 862 44 c 0,36,37
 929 44 929 44 982 138 c 128,-1,38
 1035 232 1035 232 1035 348 c 0,39,40
 1035 490 1035 490 948 490 c 0,41,42
 880 490 880 490 828 395.5 c 128,-1,43
 776 301 776 301 776 182 c 0,34,35
131 -27 m 1,44,-1
 1111 1093 l 1,45,-1
 1206 1093 l 1,46,-1
 225 -27 l 1,47,-1
 131 -27 l 1,44,-1
1376 0 m 0,48,49
 1294 0 1294 0 1244.5 51.5 c 128,-1,50
 1195 103 1195 103 1195 189 c 0,51,52
 1195 331 1195 331 1276.5 432 c 128,-1,53
 1358 533 1358 533 1473 533 c 0,54,55
 1557 533 1557 533 1607.5 481.5 c 128,-1,56
 1658 430 1658 430 1658 344 c 0,57,58
 1658 200 1658 200 1575.5 100 c 128,-1,59
 1493 0 1493 0 1376 0 c 0,48,49
1301 183 m 0,60,61
 1301 44 1301 44 1389 44 c 0,62,63
 1453 44 1453 44 1507 138 c 128,-1,64
 1561 232 1561 232 1561 347 c 0,65,66
 1561 490 1561 490 1473 490 c 0,67,68
 1406 490 1406 490 1353.5 395.5 c 128,-1,69
 1301 301 1301 301 1301 183 c 0,60,61
EndSplineSet
EndChar

StartChar: multiply
Encoding: 215 215 60
Width: 954
Flags: W
LayerCount: 2
Fore
SplineSet
733 128 m 1,0,-1
 484 377 l 1,1,-1
 238 131 l 1,2,-1
 148 221 l 1,3,-1
 394 467 l 1,4,-1
 147 714 l 1,5,-1
 241 808 l 1,6,-1
 488 561 l 1,7,-1
 736 809 l 1,8,-1
 826 719 l 1,9,-1
 578 471 l 1,10,-1
 827 222 l 1,11,-1
 733 128 l 1,0,-1
EndSplineSet
EndChar

StartChar: macron
Encoding: 175 175 61
Width: 1118
Flags: W
LayerCount: 2
Fore
SplineSet
1134 1259 m 1,0,-1
 -16 1259 l 1,1,-1
 -16 1389 l 1,2,-1
 1134 1389 l 1,3,-1
 1134 1259 l 1,0,-1
EndSplineSet
EndChar

StartChar: periodcentered
Encoding: 183 183 62
Width: 724
Flags: W
LayerCount: 2
Fore
SplineSet
482 832 m 1,0,-1
 243 832 l 1,1,-1
 243 1117 l 1,2,-1
 482 1117 l 1,3,-1
 482 832 l 1,0,-1
EndSplineSet
EndChar

StartChar: H22073
Encoding: 9633 9633 63
Width: 1237
Flags: W
LayerCount: 2
Fore
SplineSet
146 944 m 1,0,-1
 1090 944 l 1,1,-1
 1090 0 l 1,2,-1
 146 0 l 1,3,-1
 146 944 l 1,0,-1
222 868 m 1,4,-1
 222 76 l 1,5,-1
 1014 76 l 1,6,-1
 1014 868 l 1,7,-1
 222 868 l 1,4,-1
EndSplineSet
EndChar

StartChar: H18543
Encoding: 9642 9642 64
Width: 1089
Flags: W
LayerCount: 2
Fore
SplineSet
886 894 m 1,0,-1
 886 200 l 1,1,-1
 192 200 l 1,2,-1
 192 894 l 1,3,-1
 886 894 l 1,0,-1
EndSplineSet
EndChar

StartChar: H18551
Encoding: 9643 9643 65
Width: 1089
Flags: W
LayerCount: 2
Fore
SplineSet
888 930 m 1,0,-1
 888 235 l 1,1,-1
 193 235 l 1,2,-1
 193 930 l 1,3,-1
 888 930 l 1,0,-1
774 816 m 1,4,-1
 307 816 l 1,5,-1
 307 349 l 1,6,-1
 774 349 l 1,7,-1
 774 816 l 1,4,-1
EndSplineSet
EndChar

StartChar: H18533
Encoding: 9679 9679 66
Width: 1339
Flags: W
LayerCount: 2
Fore
SplineSet
204 775 m 0,0,1
 204 976 204 976 345 1117 c 128,-1,2
 486 1258 486 1258 685 1258 c 0,3,4
 885 1258 885 1258 1026 1117 c 128,-1,5
 1167 976 1167 976 1167 775 c 0,6,7
 1167 577 1167 577 1026 436 c 128,-1,8
 885 295 885 295 685 295 c 0,9,10
 486 295 486 295 345 436 c 128,-1,11
 204 577 204 577 204 775 c 0,0,1
EndSplineSet
EndChar

StartChar: openbullet
Encoding: 9702 9702 67
Width: 1089
Flags: W
LayerCount: 2
Fore
SplineSet
544 1392 m 0,0,1
 700 1392 700 1392 810.5 1281.5 c 128,-1,2
 921 1171 921 1171 921 1015 c 256,3,4
 921 859 921 859 810.5 749 c 128,-1,5
 700 639 700 639 544 639 c 256,6,7
 388 639 388 639 278 749 c 128,-1,8
 168 859 168 859 168 1015 c 256,9,10
 168 1171 168 1171 277.5 1281.5 c 128,-1,11
 387 1392 387 1392 544 1392 c 0,0,1
544 1278 m 0,12,13
 435 1278 435 1278 358.5 1200.5 c 128,-1,14
 282 1123 282 1123 282 1015 c 0,15,16
 282 906 282 906 359 829.5 c 128,-1,17
 436 753 436 753 544 753 c 256,18,19
 652 753 652 753 729.5 829.5 c 128,-1,20
 807 906 807 906 807 1015 c 0,21,22
 807 1123 807 1123 730.5 1200.5 c 128,-1,23
 654 1278 654 1278 544 1278 c 0,12,13
EndSplineSet
EndChar

StartChar: uniFFFC
Encoding: 65532 65532 68
Width: 2048
Flags: W
LayerCount: 2
Fore
SplineSet
2048 1150 m 1,0,-1
 1948 1150 l 1,1,-1
 1948 1373 l 1,2,-1
 1725 1373 l 1,3,-1
 1725 1473 l 1,4,-1
 2048 1473 l 1,5,-1
 2048 1150 l 1,0,-1
1473 1373 m 1,6,-1
 1150 1373 l 1,7,-1
 1150 1473 l 1,8,-1
 1473 1473 l 1,9,-1
 1473 1373 l 1,6,-1
2048 575 m 1,10,-1
 1948 575 l 1,11,-1
 1948 898 l 1,12,-1
 2048 898 l 1,13,-1
 2048 575 l 1,10,-1
1782 611 m 2,14,15
 1782 370 1782 370 1571 370 c 0,16,17
 1485 370 1485 370 1433 415 c 1,18,-1
 1506 494 l 1,19,20
 1531 468 1531 468 1571 468 c 0,21,22
 1666 468 1666 468 1666 606 c 2,23,-1
 1666 1090 l 1,24,-1
 1782 1090 l 1,25,-1
 1782 611 l 2,14,15
898 1373 m 1,26,-1
 575 1373 l 1,27,-1
 575 1473 l 1,28,-1
 898 1473 l 1,29,-1
 898 1373 l 1,26,-1
2048 0 m 1,30,-1
 1725 0 l 1,31,-1
 1725 100 l 1,32,-1
 1948 100 l 1,33,-1
 1948 323 l 1,34,-1
 2048 323 l 1,35,-1
 2048 0 l 1,30,-1
1423 591 m 0,36,37
 1423 382 1423 382 1149 382 c 2,38,-1
 909 382 l 1,39,-1
 909 1090 l 1,40,-1
 1144 1090 l 2,41,42
 1393 1090 1393 1090 1393 904 c 0,43,44
 1393 813 1393 813 1304 759 c 1,45,46
 1423 713 1423 713 1423 591 c 0,36,37
323 1373 m 1,47,-1
 100 1373 l 1,48,-1
 100 1150 l 1,49,-1
 0 1150 l 1,50,-1
 0 1473 l 1,51,-1
 323 1473 l 1,52,-1
 323 1373 l 1,47,-1
1473 0 m 1,53,-1
 1150 0 l 1,54,-1
 1150 100 l 1,55,-1
 1473 100 l 1,56,-1
 1473 0 l 1,53,-1
854 735 m 0,57,58
 854 562 854 562 772 466 c 128,-1,59
 690 370 690 370 537 370 c 256,60,61
 384 370 384 370 303.5 466 c 128,-1,62
 223 562 223 562 223 735 c 0,63,64
 223 910 223 910 303.5 1006 c 128,-1,65
 384 1102 384 1102 537 1102 c 256,66,67
 690 1102 690 1102 772 1006 c 128,-1,68
 854 910 854 910 854 735 c 0,57,58
100 575 m 1,69,-1
 0 575 l 1,70,-1
 0 898 l 1,71,-1
 100 898 l 1,72,-1
 100 575 l 1,69,-1
898 0 m 1,73,-1
 575 0 l 1,74,-1
 575 100 l 1,75,-1
 898 100 l 1,76,-1
 898 0 l 1,73,-1
323 0 m 1,77,-1
 0 0 l 1,78,-1
 0 323 l 1,79,-1
 100 323 l 1,80,-1
 100 100 l 1,81,-1
 323 100 l 1,82,-1
 323 0 l 1,77,-1
1277 893 m 0,83,84
 1277 992 1277 992 1114 992 c 2,85,-1
 1025 992 l 1,86,-1
 1025 798 l 1,87,-1
 1126 798 l 2,88,89
 1277 798 1277 798 1277 893 c 0,83,84
1307 591 m 0,90,91
 1307 700 1307 700 1136 700 c 2,92,-1
 1025 700 l 1,93,-1
 1025 480 l 1,94,-1
 1149 480 l 2,95,96
 1307 480 1307 480 1307 591 c 0,90,91
738 735 m 0,97,98
 738 1004 738 1004 537 1004 c 0,99,100
 339 1004 339 1004 339 735 c 0,101,102
 339 468 339 468 537 468 c 0,103,104
 738 468 738 468 738 735 c 0,97,98
EndSplineSet
EndChar

StartChar: zerowidthnonjoiner
Encoding: 8204 8204 88
Width: 0
GlyphClass: 2
Flags: W
LayerCount: 2
Fore
SplineSet
36 1289 m 1,0,-1
 36 -275 l 1,1,-1
 -36 -275 l 1,2,-1
 -36 1289 l 1,3,-1
 36 1289 l 1,0,-1
EndSplineSet
EndChar

StartChar: zerowidthjoiner
Encoding: 8205 8205 89
Width: 0
GlyphClass: 2
Flags: W
LayerCount: 2
Fore
SplineSet
36 -275 m 1,0,-1
 -36 -275 l 1,1,-1
 -36 1114 l 1,2,-1
 -170 978 l 1,3,-1
 -219 1027 l 1,4,-1
 -48 1196 l 1,5,-1
 -219 1364 l 1,6,-1
 -170 1413 l 1,7,-1
 0 1242 l 1,8,-1
 170 1413 l 1,9,-1
 219 1364 l 1,10,-1
 48 1196 l 1,11,-1
 219 1027 l 1,12,-1
 170 978 l 1,13,-1
 36 1114 l 1,14,-1
 36 -275 l 1,0,-1
EndSplineSet
EndChar

StartChar: lefttorightmark
Encoding: 8206 8206 90
Width: 0
GlyphClass: 2
Flags: W
LayerCount: 2
Fore
SplineSet
430 1198 m 1,0,-1
 213 984 l 1,1,-1
 164 1033 l 1,2,-1
 301 1163 l 1,3,-1
 35 1163 l 1,4,-1
 35 -275 l 1,5,-1
 -36 -275 l 1,6,-1
 -36 1234 l 1,7,-1
 301 1234 l 1,8,-1
 164 1364 l 1,9,-1
 213 1413 l 1,10,-1
 430 1198 l 1,0,-1
EndSplineSet
EndChar

StartChar: righttoleftmark
Encoding: 8207 8207 91
Width: 0
GlyphClass: 2
Flags: W
LayerCount: 2
Fore
SplineSet
35 -275 m 1,0,-1
 -36 -275 l 1,1,-1
 -36 1163 l 1,2,-1
 -302 1163 l 1,3,-1
 -165 1033 l 1,4,-1
 -214 984 l 1,5,-1
 -431 1198 l 1,6,-1
 -214 1413 l 1,7,-1
 -165 1364 l 1,8,-1
 -302 1234 l 1,9,-1
 35 1234 l 1,10,-1
 35 -275 l 1,0,-1
EndSplineSet
EndChar

StartChar: afii57388.001
Encoding: 1644 1644 92
Width: 353
GlyphClass: 2
Flags: W
LayerCount: 2
Fore
SplineSet
210 654 m 0,0,1
 200 627 200 627 185 603 c 0,2,3
 180 597 180 597 173.5 593.5 c 128,-1,4
 167 590 167 590 162 590 c 128,-1,5
 157 590 157 590 154.5 593 c 128,-1,6
 152 596 152 596 155 603 c 0,7,8
 187 660 187 660 202.5 713.5 c 128,-1,9
 218 767 218 767 218 800 c 1,10,11
 194 806 194 806 179 816 c 128,-1,12
 164 826 164 826 155 837.5 c 128,-1,13
 146 849 146 849 143 859 c 128,-1,14
 140 869 140 869 140 874 c 0,15,16
 140 890 140 890 145.5 907 c 128,-1,17
 151 924 151 924 160.5 937.5 c 128,-1,18
 170 951 170 951 183.5 959.5 c 128,-1,19
 197 968 197 968 213 968 c 0,20,21
 272 968 272 968 272 874 c 0,22,23
 272 859 272 859 268 835 c 128,-1,24
 264 811 264 811 256 781.5 c 128,-1,25
 248 752 248 752 236.5 719.5 c 128,-1,26
 225 687 225 687 210 654 c 0,0,1
EndSplineSet
EndChar

StartChar: afii57409
Encoding: 1569 1569 93
Width: 889
GlyphClass: 2
Flags: W
AnchorPoint: "Anchor-3" 480 -345 basechar 0
AnchorPoint: "Anchor-2" 510 705 basechar 0
LayerCount: 2
Fore
SplineSet
656 118 m 1,0,1
 607 112 607 112 551 112 c 0,2,3
 453 112 453 112 420 102 c 0,4,5
 353 80 353 80 287 0 c 1,6,-1
 230 0 l 1,7,-1
 258 76 l 1,8,-1
 289 98 l 1,9,-1
 320 126 l 1,10,-1
 244 174 l 2,11,12
 185 210 185 210 185 237 c 0,13,14
 185 336 185 336 336 451 c 0,15,16
 479 560 479 560 584 560 c 0,17,18
 615 560 615 560 659 530.5 c 128,-1,19
 703 501 703 501 703 473 c 0,20,21
 703 441 703 441 653.5 405.5 c 128,-1,22
 604 370 604 370 570 370 c 1,23,-1
 532 386 l 2,24,25
 493 403 493 403 455 403 c 0,26,27
 395 403 395 403 356 357 c 1,28,29
 371 287 371 287 544 265 c 1,30,-1
 716 260 l 2,31,32
 735 260 735 260 758 272 c 2,33,-1
 821 304 l 1,34,-1
 828 260 l 1,35,-1
 829 230 l 2,36,37
 832 190 832 190 811.5 169 c 128,-1,38
 791 148 791 148 656 118 c 1,0,1
EndSplineSet
EndChar

StartChar: afii57440
Encoding: 1600 1600 94
Width: 454
GlyphClass: 2
Flags: W
LayerCount: 2
Fore
SplineSet
-21 186 m 1,0,-1
 472 186 l 1,1,-1
 472 0 l 1,2,-1
 -21 0 l 1,3,-1
 -21 186 l 1,0,-1
EndSplineSet
EndChar

StartChar: afii57453
Encoding: 1613 1613 95
Width: 0
GlyphClass: 4
Flags: W
AnchorPoint: "Anchor-3" 0 0 mark 0
AnchorPoint: "Anchor-1" 0 0 mark 0
LayerCount: 2
Fore
SplineSet
196 283 m 1,0,1
 196 207 196 207 153 181 c 1,2,-1
 -223 4 l 1,3,4
 -223 71 -223 71 -203 94 c 1,5,-1
 -179 115 l 1,6,-1
 -137 139 l 1,7,-1
 196 283 l 1,0,1
196 96 m 1,8,9
 196 20 196 20 153 -7 c 1,10,-1
 -223 -183 l 1,11,12
 -223 -114 -223 -114 -203 -92 c 1,13,-1
 -179 -72 l 1,14,-1
 -137 -49 l 1,15,-1
 196 96 l 1,8,9
EndSplineSet
EndChar

StartChar: afii57381
Encoding: 1642 1642 96
Width: 1358
GlyphClass: 2
Flags: W
LayerCount: 2
Fore
SplineSet
1015 1035 m 1,0,-1
 386 -18 l 1,1,-1
 300 34 l 1,2,-1
 924 1085 l 1,3,-1
 1015 1035 l 1,0,-1
1159 192 m 0,4,5
 1130 162 1130 162 1092 153 c 0,6,7
 1014 132 1014 132 952 188 c 0,8,9
 927 214 927 214 916 258 c 2,10,-1
 913 270 l 1,11,-1
 910 293 l 2,12,13
 909 312 909 312 914 325 c 0,14,15
 920 357 920 357 952 393 c 1,16,17
 986 424 986 424 1019 433 c 0,18,19
 1099 454 1099 454 1158 395 c 0,20,21
 1189 364 1189 364 1197 329 c 0,22,23
 1217 251 1217 251 1159 192 c 0,4,5
407 729 m 0,24,25
 398 692 398 692 370 662.5 c 128,-1,26
 342 633 342 633 304 623 c 0,27,28
 242 608 242 608 191.5 638.5 c 128,-1,29
 141 669 141 669 126 728 c 2,30,-1
 123 739 l 1,31,-1
 122 763 l 2,32,33
 119 784 119 784 127 795 c 1,34,35
 140 879 140 879 234 903 c 2,36,-1
 245 906 l 1,37,-1
 267 906 l 2,38,39
 287 909 287 909 301 903 c 0,40,41
 385 888 385 888 407 798 c 1,42,-1
 412 784 l 1,43,-1
 413 760 l 2,44,45
 414 753 414 753 407 729 c 0,24,25
EndSplineSet
EndChar

StartChar: afii57461
Encoding: 1643 1643 97
Width: 536
GlyphClass: 2
Flags: W
LayerCount: 2
Fore
SplineSet
518 521 m 1,0,-1
 115 -382 l 1,1,-1
 19 -352 l 1,2,-1
 425 551 l 1,3,-1
 518 521 l 1,0,-1
EndSplineSet
EndChar

StartChar: afii63167
Encoding: 1645 1645 98
Width: 1118
GlyphClass: 2
Flags: W
LayerCount: 2
Fore
SplineSet
694 729 m 1,0,-1
 1057 733 l 1,1,-1
 1057 610 l 1,2,-1
 702 612 l 1,3,-1
 971 352 l 1,4,-1
 883 264 l 1,5,-1
 616 539 l 1,6,-1
 623 168 l 1,7,-1
 498 168 l 1,8,-1
 502 539 l 1,9,-1
 236 264 l 1,10,-1
 147 352 l 1,11,-1
 422 614 l 1,12,-1
 63 610 l 1,13,-1
 63 733 l 1,14,-1
 420 729 l 1,15,-1
 170 975 l 1,16,-1
 258 1065 l 1,17,-1
 502 817 l 1,18,-1
 498 1176 l 1,19,-1
 623 1176 l 1,20,-1
 616 813 l 1,21,-1
 860 1065 l 1,22,-1
 948 975 l 1,23,-1
 694 729 l 1,0,-1
EndSplineSet
EndChar

StartChar: afii57459
Encoding: 65543 -1 99
Width: 701
GlyphClass: 2
Flags: W
LayerCount: 2
Fore
SplineSet
480 503 m 1,0,-1
 465 547 l 1,1,2
 448 577 448 577 406 581 c 2,3,-1
 393 582 l 2,4,5
 361 585 361 585 339 559 c 1,6,-1
 326 532 l 1,7,-1
 312 494 l 1,8,-1
 350 473 l 1,9,10
 370 468 370 468 391 468 c 0,11,12
 437 468 437 468 480 503 c 1,0,-1
-11 186 m 1,13,-1
 162 188 l 1,14,-1
 221 190 l 1,15,-1
 329 202 l 2,16,17
 342 202 342 202 346 204 c 2,18,-1
 367 210 l 1,19,-1
 434 228 l 2,20,21
 487 244 487 244 532 280 c 2,22,-1
 552 294 l 1,23,-1
 584 305 l 1,24,-1
 532 392 l 1,25,-1
 462 350 l 1,26,27
 407 325 407 325 368 325 c 0,28,29
 294 325 294 325 258.5 362.5 c 128,-1,30
 223 400 223 400 223 469 c 0,31,32
 223 563 223 563 304 666 c 0,33,34
 389 777 389 777 480 777 c 0,35,36
 552 777 552 777 605 659 c 0,37,38
 631 599 631 599 644.5 539.5 c 128,-1,39
 658 480 658 480 658 424 c 2,40,-1
 658 280 l 2,41,42
 658 141 658 141 503 63 c 0,43,44
 445 35 445 35 343 14 c 1,45,-1
 251 3 l 1,46,-1
 143 0 l 1,47,-1
 -11 0 l 1,48,-1
 -11 186 l 1,13,-1
EndSplineSet
EndChar

StartChar: afii57543
Encoding: 65544 -1 100
Width: 699
Flags: W
LayerCount: 2
Fore
SplineSet
728 186 m 1,0,-1
 728 0 l 1,1,-1
 594 0 l 2,2,3
 462 0 462 0 399 70 c 0,4,5
 363 108 363 108 323 108 c 1,6,7
 321 101 321 101 276 56 c 0,8,9
 253 36 253 36 231 28 c 2,10,-1
 165 0 l 1,11,-1
 -18 0 l 1,12,-1
 -18 186 l 1,13,-1
 64 185 l 1,14,-1
 88 183 l 1,15,16
 88 183 88 183 108 183 c 0,17,18
 123 186 123 186 132 188 c 2,19,-1
 168 196 l 1,20,-1
 204 213 l 1,21,22
 288 248 288 248 351 346 c 0,23,24
 388 400 388 400 420 400 c 0,25,26
 430 400 430 400 444 385 c 1,27,28
 451 370 451 370 451 342 c 2,29,-1
 451 305 l 1,30,-1
 451 276 l 2,31,32
 452 244 452 244 500 210 c 0,33,34
 525 193 525 193 566 189 c 2,35,-1
 728 186 l 1,0,-1
EndSplineSet
EndChar

StartChar: afii57534
Encoding: 1749 1749 101
Width: 688
GlyphClass: 2
Flags: W
LayerCount: 2
Fore
SplineSet
74 113 m 1,0,1
 105 276 105 276 143 365 c 1,2,-1
 206 456 l 1,3,-1
 203 461 l 1,4,-1
 196 472 l 2,5,6
 186 487 186 487 186 508 c 0,7,8
 186 549 186 549 231.5 607 c 128,-1,9
 277 665 277 665 316 665 c 0,10,11
 329 665 329 665 405 622 c 0,12,13
 647 479 647 479 647 221 c 0,14,15
 647 34 647 34 444 -1 c 1,16,-1
 378 -1 l 2,17,18
 365 -1 365 -1 357 -3 c 2,19,-1
 329 -4 l 2,20,21
 315 -4 315 -4 305 -8 c 2,22,-1
 253 -11 l 2,23,24
 144 -18 144 -18 97 52 c 0,25,26
 85 69 85 69 74 113 c 1,0,1
511 253 m 0,27,28
 521 305 521 305 440 361 c 2,29,-1
 365 413 l 2,30,31
 343 428 343 428 293 451 c 1,32,33
 277 440 277 440 262 407 c 2,34,-1
 237 344 l 2,35,36
 230 325 230 325 220 276 c 0,37,38
 214 242 214 242 214 217 c 256,39,40
 214 192 214 192 242 171 c 0,41,42
 276 146 276 146 337 146 c 0,43,44
 491 146 491 146 511 253 c 0,27,28
EndSplineSet
EndChar

StartChar: afii64240
Encoding: 65546 -1 103
Width: 318
Flags: W
LayerCount: 2
Fore
SplineSet
294 -116 m 1,0,-1
 195 -258 l 1,1,-1
 36 -153 l 1,2,-1
 130 -1 l 1,3,-1
 294 -116 l 1,0,-1
EndSplineSet
EndChar

StartChar: afii64241
Encoding: 65547 -1 104
Width: 577
Flags: W
LayerCount: 2
Fore
SplineSet
514 190 m 1,0,-1
 413 22 l 1,1,-1
 270 122 l 1,2,-1
 195 0 l 1,3,-1
 35 106 l 1,4,-1
 130 269 l 1,5,-1
 273 169 l 1,6,-1
 354 297 l 1,7,-1
 514 190 l 1,0,-1
EndSplineSet
EndChar

StartChar: afii63954
Encoding: 65548 -1 105
Width: 654
Flags: W
LayerCount: 2
Fore
SplineSet
385 396 m 1,0,-1
 286 255 l 1,1,-1
 126 360 l 1,2,-1
 221 510 l 1,3,-1
 385 396 l 1,0,-1
540 196 m 1,4,-1
 440 29 l 1,5,-1
 297 129 l 1,6,-1
 221 6 l 1,7,-1
 63 112 l 1,8,-1
 157 274 l 1,9,-1
 301 175 l 1,10,-1
 382 302 l 1,11,-1
 540 196 l 1,4,-1
EndSplineSet
EndChar

StartChar: afii57382
Encoding: 65549 -1 106
Width: 584
Flags: W
LayerCount: 2
Fore
SplineSet
445 -347 m 1,0,-1
 346 -490 l 1,1,-1
 188 -384 l 1,2,-1
 281 -234 l 1,3,-1
 445 -347 l 1,0,-1
518 -112 m 1,4,-1
 417 -280 l 1,5,-1
 274 -181 l 1,6,-1
 199 -302 l 1,7,-1
 41 -197 l 1,8,-1
 134 -34 l 1,9,-1
 279 -133 l 1,10,-1
 358 -6 l 1,11,-1
 518 -112 l 1,4,-1
EndSplineSet
EndChar

StartChar: afii64242
Encoding: 65550 -1 107
Width: 650
Flags: W
LayerCount: 2
Fore
SplineSet
-13 -1 m 1,0,-1
 -21 0 l 1,1,-1
 -21 186 l 1,2,-1
 295 186 l 2,3,4
 431 186 431 186 489 237 c 1,5,-1
 463 304 l 1,6,-1
 447 354 l 1,7,-1
 437 395 l 1,8,-1
 479 526 l 1,9,10
 612 487 612 487 612 305 c 0,11,12
 612 118 612 118 505 43 c 0,13,14
 476 22 476 22 426 7 c 1,15,-1
 322 0 l 2,16,17
 305 -1 305 -1 -18 -1 c 2,18,-1
 -13 -1 l 1,0,-1
EndSplineSet
EndChar

StartChar: afii57373
Encoding: 65551 -1 112
Width: 489
Flags: W
LayerCount: 2
Fore
SplineSet
332 735 m 0,0,1
 308 732 308 732 280 732 c 0,2,3
 232 732 232 732 217 727 c 0,4,5
 185 717 185 717 153 678 c 1,6,-1
 125 678 l 1,7,-1
 137 714 l 1,8,-1
 153 725 l 1,9,-1
 168 738 l 1,10,-1
 130 762 l 2,11,12
 102 780 102 780 102 792 c 0,13,14
 102 841 102 841 173.5 896 c 128,-1,15
 245 951 245 951 297 951 c 0,16,17
 312 951 312 951 333 936 c 128,-1,18
 354 921 354 921 354 909 c 0,19,20
 354 892 354 892 330.5 875 c 128,-1,21
 307 858 307 858 290 858 c 1,22,-1
 272 865 l 2,23,24
 252 874 252 874 234 874 c 0,25,26
 204 874 204 874 185 851 c 1,27,28
 193 818 193 818 277 806 c 1,29,-1
 361 805 l 2,30,31
 371 805 371 805 381 809 c 2,32,-1
 413 825 l 1,33,-1
 416 805 l 1,34,-1
 416 788 l 2,35,36
 417 770 417 770 407.5 760 c 128,-1,37
 398 750 398 750 332 735 c 0,0,1
EndSplineSet
EndChar

StartChar: afii57374
Encoding: 65552 -1 113
Width: 837
GlyphClass: 2
Flags: W
LayerCount: 2
Fore
SplineSet
542 403 m 0,0,1
 542 452 542 452 521 500 c 0,2,3
 493 561 493 561 447 556 c 0,4,5
 398 550 398 550 356 508 c 0,6,7
 294 447 294 447 294 403 c 0,8,9
 294 371 294 371 335.5 335.5 c 128,-1,10
 377 300 377 300 409 300 c 0,11,12
 442 300 442 300 492 336 c 128,-1,13
 542 372 542 372 542 403 c 0,0,1
231 189 m 1,14,-1
 232 192 l 1,15,16
 218 206 218 206 211 220 c 2,17,-1
 207 231 l 1,18,-1
 200 263 l 1,19,-1
 196 301 l 1,20,-1
 193 388 l 1,21,-1
 196 413 l 2,22,23
 197 437 197 437 209 470 c 0,24,25
 298 734 298 734 500 784 c 1,26,-1
 511 785 l 1,27,28
 564 785 564 785 605 696 c 0,29,30
 630 638 630 638 636 599 c 2,31,-1
 643 549 l 1,32,-1
 645 493 l 2,33,34
 651 392 651 392 637 360 c 1,35,36
 631 332 631 332 571 248 c 1,37,-1
 605 216 l 2,38,39
 623 197 623 197 636 193 c 0,40,41
 664 183 664 183 724 185 c 2,42,-1
 881 186 l 1,43,-1
 881 0 l 1,44,-1
 728 -3 l 1,45,-1
 624 -1 l 2,46,47
 563 0 563 0 542 6 c 1,48,-1
 512 25 l 1,49,-1
 475 46 l 2,50,51
 442 64 442 64 364 64 c 0,52,53
 337 64 337 64 322 59 c 2,54,-1
 293 49 l 1,55,-1
 267 38 l 1,56,-1
 199 11 l 1,57,58
 155 0 155 0 120 0 c 2,59,-1
 -38 0 l 1,60,-1
 -38 186 l 1,61,-1
 196 185 l 1,62,-1
 231 189 l 1,14,-1
EndSplineSet
EndChar

StartChar: afii57375
Encoding: 1619 1619 114
Width: 433
GlyphClass: 2
Flags: W
LayerCount: 2
Fore
SplineSet
519 1828 m 1,0,1
 519 1770 519 1770 449 1718 c 128,-1,2
 379 1666 379 1666 319 1666 c 1,3,-1
 6 1721 l 1,4,5
 -32 1721 -32 1721 -56 1714 c 2,6,-1
 -102 1700 l 1,7,-1
 -175 1672 l 1,8,-1
 -175 1688 l 2,9,10
 -175 1828 -175 1828 6 1828 c 0,11,12
 13 1828 13 1828 182 1806 c 2,13,-1
 262 1796 l 1,14,-1
 329 1784 l 1,15,16
 395 1784 395 1784 441 1824 c 0,17,18
 477 1855 477 1855 493 1858 c 2,19,-1
 512 1861 l 1,20,-1
 519 1858 l 1,21,-1
 522 1844 l 1,22,-1
 519 1828 l 1,0,1
EndSplineSet
EndChar

StartChar: afii57391
Encoding: 59450 59450 115
Width: 1024
GlyphClass: 2
Flags: W
LayerCount: 2
Fore
SplineSet
1024 0 m 1,0,-1
 -70 0 l 1,1,-1
 -70 188 l 1,2,-1
 1024 188 l 1,3,-1
 1024 0 l 1,0,-1
EndSplineSet
EndChar

StartChar: afii57471
Encoding: 65553 -1 116
Width: 1841
Flags: W
LayerCount: 2
Fore
SplineSet
74 265 m 0,0,1
 74 312 74 312 84 368 c 2,2,-1
 87 388 l 1,3,-1
 98 420 l 2,4,5
 104 433 104 433 120 468 c 0,6,7
 174 575 174 575 258 606 c 1,8,-1
 258 591 l 1,9,-1
 258 570 l 1,10,-1
 258 559 l 2,11,12
 258 546 258 546 257 544 c 128,-1,13
 256 542 256 542 223 451 c 2,14,-1
 206 405 l 1,15,-1
 193 354 l 1,16,-1
 193 339 l 1,17,18
 186 249 186 249 357 164 c 0,19,20
 535 74 535 74 774 74 c 0,21,22
 955 74 955 74 1134 120 c 0,23,24
 1270 155 1270 155 1429 232 c 0,25,26
 1540 284 1540 284 1646 368 c 1,27,-1
 1697 368 l 1,28,29
 1697 272 1697 272 1760 209 c 1,30,-1
 1779 195 l 1,31,-1
 1805 186 l 1,32,-1
 1831 185 l 1,33,-1
 1882 186 l 1,34,-1
 1882 0 l 1,35,-1
 1782 0 l 1,36,37
 1656 20 1656 20 1613 97 c 0,38,39
 1593 132 1593 132 1572 132 c 1,40,-1
 1469 66 l 2,41,42
 1365 1 1365 1 1207 -55 c 0,43,44
 1025 -120 1025 -120 864 -120 c 0,45,46
 529 -120 529 -120 367 -73 c 0,47,48
 74 13 74 13 74 265 c 0,0,1
EndSplineSet
EndChar

StartChar: afii52258
Encoding: 65554 -1 117
Width: 1910
GlyphClass: 2
Flags: W
LayerCount: 2
Fore
SplineSet
1635 378 m 1,0,1
 1635 419 1635 419 1590 463 c 2,2,-1
 1575 476 l 1,3,-1
 1546 494 l 1,4,5
 1499 494 1499 494 1466 468 c 0,6,7
 1439 448 1439 448 1386 375 c 1,8,9
 1386 335 1386 335 1406 308 c 0,10,11
 1410 302 1410 302 1438 284 c 1,12,-1
 1487 262 l 1,13,-1
 1576 328 l 2,14,15
 1618 357 1618 357 1635 378 c 1,0,1
1539 27 m 1,16,17
 1494 38 1494 38 1429 38 c 1,18,-1
 1382 32 l 1,19,-1
 1316 18 l 1,20,-1
 1291 11 l 2,21,22
 1182 -21 1182 -21 1064 -38 c 0,23,24
 888 -66 888 -66 704 -66 c 0,25,26
 538 -66 538 -66 420 -46 c 0,27,28
 74 11 74 11 74 244 c 0,29,30
 74 340 74 340 112 435 c 0,31,32
 153 540 153 540 217 540 c 0,33,34
 225 540 225 540 225 526 c 0,35,36
 225 521 225 521 200 442 c 2,37,-1
 182 385 l 1,38,-1
 174 347 l 1,39,40
 174 255 174 255 312 183 c 0,41,42
 493 90 493 90 764 97 c 2,43,-1
 802 98 l 1,44,-1
 897 104 l 2,45,46
 944 104 944 104 969 108 c 1,47,-1
 988 108 l 2,48,49
 994 109 994 109 997 109 c 2,50,-1
 1040 118 l 1,51,-1
 1107 132 l 2,52,53
 1232 157 1232 157 1281 190 c 1,54,-1
 1289 211 l 1,55,-1
 1277 273 l 1,56,57
 1277 406 1277 406 1358 529 c 0,58,59
 1413 613 1413 613 1511 686 c 0,60,61
 1582 738 1582 738 1599 738 c 1,62,-1
 1609 732 l 1,63,-1
 1635 713 l 2,64,65
 1673 682 1673 682 1702 622 c 0,66,67
 1740 547 1740 547 1740 437 c 0,68,69
 1740 360 1740 360 1700 287 c 2,70,-1
 1646 186 l 1,71,-1
 1945 186 l 1,72,-1
 1945 0 l 1,73,-1
 1625 0 l 2,74,75
 1602 0 1602 0 1581 10 c 2,76,-1
 1539 27 l 1,16,17
EndSplineSet
EndChar

StartChar: afii62889
Encoding: 65555 -1 123
Width: 1466
Flags: W
LayerCount: 2
Fore
SplineSet
1508 0 m 1,0,-1
 1344 0 l 1,1,2
 1344 -192 1344 -192 1226 -323 c 0,3,4
 1128 -433 1128 -433 941 -498 c 0,5,6
 783 -554 783 -554 591 -554 c 0,7,8
 186 -554 186 -554 98 -301 c 0,9,10
 74 -232 74 -232 74 -141 c 0,11,12
 74 -55 74 -55 117.5 50 c 128,-1,13
 161 155 161 155 223 213 c 1,14,-1
 280 213 l 1,15,-1
 280 168 l 1,16,17
 251 130 251 130 214 28 c 2,18,-1
 178 -69 l 1,19,20
 178 -220 178 -220 350 -294 c 0,21,22
 477 -350 477 -350 651 -350 c 0,23,24
 755 -350 755 -350 890 -318 c 0,25,26
 1068 -276 1068 -276 1140 -225 c 1,27,28
 1254 -161 1254 -161 1254 -83 c 2,29,-1
 1254 0 l 1,30,-1
 858 0 l 2,31,32
 841 0 841 0 833 27.5 c 128,-1,33
 825 55 825 55 825 95 c 2,34,-1
 825 115 l 1,35,-1
 825 136 l 1,36,37
 830 241 830 241 908 339 c 128,-1,38
 986 437 986 437 1072 437 c 0,39,40
 1140 437 1140 437 1203 370 c 0,41,42
 1215 356 1215 356 1294 245 c 0,43,44
 1315 214 1315 214 1331.5 202 c 128,-1,45
 1348 190 1348 190 1369 185 c 1,46,-1
 1425 185 l 1,47,-1
 1508 186 l 1,48,-1
 1508 0 l 1,0,-1
1189 157 m 1,49,50
 1189 211 1189 211 1165 242 c 0,51,52
 1137 280 1137 280 1086 280 c 0,53,54
 1015 280 1015 280 984 235 c 1,55,56
 974 207 974 207 974 188 c 2,57,-1
 974 160 l 1,58,-1
 1189 157 l 1,49,50
EndSplineSet
EndChar

StartChar: afii62887
Encoding: 65556 -1 124
Width: 1777
Flags: W
LayerCount: 2
Fore
SplineSet
178 298 m 0,0,1
 178 220 178 220 385 174 c 0,2,3
 566 134 566 134 769 134 c 0,4,5
 848 134 848 134 997 151 c 0,6,7
 1436 200 1436 200 1621 304 c 1,8,9
 1589 392 1589 392 1532 430 c 0,10,11
 1485 459 1485 459 1485 494 c 0,12,13
 1485 567 1485 567 1551 650 c 1,14,15
 1642 612 1642 612 1693 512 c 0,16,17
 1729 437 1729 437 1729 357 c 0,18,19
 1729 181 1729 181 1417 73 c 128,-1,20
 1105 -35 1105 -35 636 -27 c 1,21,-1
 476 -22 l 1,22,-1
 420 -20 l 1,23,-1
 361 -13 l 2,24,25
 228 3 228 3 155 66 c 0,26,27
 74 136 74 136 74 267 c 0,28,29
 74 323 74 323 120 417 c 0,30,31
 164 505 164 505 206 549 c 1,32,-1
 214 549 l 1,33,-1
 225 550 l 1,34,-1
 245 546 l 2,35,36
 251 543 251 543 258 531 c 1,37,38
 258 522 258 522 218 430.5 c 128,-1,39
 178 339 178 339 178 298 c 0,0,1
EndSplineSet
EndChar

StartChar: afii62888
Encoding: 1697 1697 125
Width: 1761
GlyphClass: 2
Flags: W
LayerCount: 2
Fore
SplineSet
1660 437 m 1,0,-1
 1631 167 l 1,1,2
 1555 78 1555 78 1295 1 c 0,3,4
 1047 -73 1047 -73 874 -73 c 0,5,6
 449 -73 449 -73 245 24 c 0,7,8
 74 105 74 105 74 259 c 0,9,10
 74 332 74 332 126 430 c 0,11,12
 183 542 183 542 269 598 c 1,13,-1
 273 589 l 2,14,15
 283 574 283 574 283 556 c 1,16,-1
 280 543 l 1,17,-1
 241 448 l 2,18,19
 227 414 227 414 213 347 c 1,20,-1
 210 315 l 1,21,22
 210 214 210 214 381 161 c 0,23,24
 536 113 536 113 766 120 c 1,25,-1
 854 125 l 1,26,-1
 976 134 l 2,27,28
 1148 148 1148 148 1324 193 c 0,29,30
 1522 244 1522 244 1582 319 c 1,31,-1
 1582 391 l 1,32,-1
 1533 403 l 1,33,-1
 1463 360 l 2,34,35
 1422 335 1422 335 1368 335 c 0,36,37
 1295 335 1295 335 1258.5 374.5 c 128,-1,38
 1222 414 1222 414 1222 482 c 0,39,40
 1222 573 1222 573 1299 678 c 0,41,42
 1385 791 1385 791 1481 791 c 0,43,44
 1555 791 1555 791 1604 682 c 0,45,46
 1660 556 1660 556 1660 437 c 1,0,-1
1477 526 m 1,47,48
 1466 563 1466 563 1453 578 c 0,49,50
 1446 591 1446 591 1406 602 c 1,51,52
 1344 602 1344 602 1316 518 c 1,53,-1
 1330 511 l 1,54,-1
 1359 498 l 2,55,56
 1375 493 1375 493 1392 493 c 0,57,58
 1425 493 1425 493 1477 526 c 1,47,48
EndSplineSet
Substitution2: "'medi' Medial Forms in Arabic lookup 3 subtable" afii57374
Substitution2: "'fina' Terminal Forms in Arabic lookup 2 subtable" afii52258
Substitution2: "'init' Initial Forms in Arabic lookup 1 subtable" afii57459
EndChar

StartChar: afii57567
Encoding: 1705 1705 132
Width: 1610
GlyphClass: 2
Flags: W
AnchorPoint: "Anchor-3" 600 -555 basechar 0
AnchorPoint: "Anchor-2" 525 1230 basechar 0
LayerCount: 2
Fore
SplineSet
168 1 m 1,0,-1
 150 10 l 2,1,2
 99 38 99 38 74 98 c 1,3,-1
 74 234 l 1,4,5
 139 234 139 234 183 216 c 0,6,7
 274 176 274 176 295 176 c 2,8,-1
 837 176 l 2,9,10
 890 178 890 178 977 183 c 1,11,12
 1142 204 1142 204 1240 315 c 1,13,14
 1184 479 1184 479 1077 563 c 1,15,-1
 876 692 l 2,16,17
 787 749 787 749 773 813 c 1,18,-1
 773 843 l 2,19,20
 773 864 773 864 776 868 c 2,21,-1
 781 924 l 1,22,-1
 791 984 l 2,23,24
 795 1007 795 1007 805 1021 c 0,25,26
 843 1107 843 1107 958 1183 c 1,27,28
 1012 1211 1012 1211 1135 1277 c 2,29,-1
 1217 1322 l 1,30,-1
 1399 1417 l 1,31,-1
 1487 1460 l 1,32,-1
 1578 1497 l 1,33,-1
 1546 1345 l 1,34,35
 1456 1285 1456 1285 1260 1186 c 0,36,37
 1030 1071 1030 1071 980 1039 c 0,38,39
 854 959 854 959 854 909 c 0,40,41
 854 895 854 895 972 813 c 0,42,43
 1217 643 1217 643 1285 473 c 0,44,45
 1323 384 1323 384 1323 314 c 0,46,47
 1323 196 1323 196 1211 105 c 0,48,49
 1175 76 1175 76 1130 59 c 2,50,-1
 1019 18 l 2,51,52
 1008 14 1008 14 981 6 c 2,53,54
 981 6 981 6 913 -10 c 1,55,-1
 168 1 l 1,0,-1
EndSplineSet
Substitution2: "'medi' Medial Forms in Arabic lookup 3 subtable" afii52306
Substitution2: "'fina' Terminal Forms in Arabic lookup 2 subtable" afii62964
Substitution2: "'init' Initial Forms in Arabic lookup 1 subtable" afii52305
EndChar

StartChar: afii62964
Encoding: 64399 64399 133
Width: 1700
GlyphClass: 2
Flags: W
AnchorPoint: "Anchor-3" 645 -645 basechar 0
AnchorPoint: "Anchor-2" 465 1080 basechar 0
LayerCount: 2
Fore
SplineSet
1435 364 m 2,0,1
 1441 329 1441 329 1446 314 c 0,2,3
 1463 274 1463 274 1491 241 c 1,4,5
 1550 186 1550 186 1763 186 c 1,6,-1
 1763 0 l 1,7,-1
 1576 0 l 1,8,9
 1453 38 1453 38 1399 115 c 1,10,11
 1358 213 1358 213 1326 265 c 1,12,13
 1270 216 1270 216 1239 193 c 2,14,-1
 1152 130 l 2,15,16
 1079 77 1079 77 959 38 c 0,17,18
 890 17 890 17 841 10 c 2,19,-1
 783 3 l 1,20,-1
 718 0 l 1,21,-1
 518 0 l 2,22,23
 262 0 262 0 162 76 c 0,24,25
 74 141 74 141 74 309 c 0,26,27
 74 483 74 483 183 623 c 1,28,-1
 228 623 l 1,29,-1
 206 566 l 1,30,-1
 188 503 l 2,31,32
 160 410 160 410 160 368 c 0,33,34
 160 249 160 249 284 189 c 0,35,36
 375 146 375 146 559 146 c 0,37,38
 596 146 596 146 693 155 c 2,39,-1
 725 158 l 2,40,41
 741 158 741 158 745 161 c 2,42,-1
 767 167 l 1,43,-1
 847 185 l 2,44,45
 1007 223 1007 223 1112 269 c 0,46,47
 1194 305 1194 305 1254 351 c 0,48,49
 1294 378 1294 378 1334 433 c 1,50,51
 1336 472 1336 472 1282 559 c 0,52,53
 1238 631 1238 631 1180 676 c 1,54,-1
 980 805 l 2,55,56
 890 862 890 862 876 925 c 1,57,-1
 876 956 l 2,58,59
 876 976 876 976 878 980 c 2,60,-1
 885 1037 l 1,61,-1
 895 1098 l 2,62,63
 899 1120 899 1120 909 1134 c 0,64,65
 946 1221 946 1221 1061 1296 c 1,66,67
 1116 1323 1116 1323 1239 1389 c 2,68,-1
 1320 1435 l 1,69,-1
 1502 1530 l 1,70,-1
 1590 1572 l 1,71,-1
 1681 1610 l 1,72,-1
 1649 1457 l 1,73,74
 1560 1397 1560 1397 1364 1298 c 0,75,76
 1134 1183 1134 1183 1084 1151 c 0,77,78
 958 1072 958 1072 958 1021 c 0,79,80
 958 1008 958 1008 1075 925 c 0,81,82
 1320 755 1320 755 1389 587 c 0,83,84
 1427 497 1427 497 1427 427 c 1,85,-1
 1435 364 l 2,0,1
EndSplineSet
EndChar

StartChar: afii52305
Encoding: 64400 64400 134
Width: 816
GlyphClass: 2
Flags: W
AnchorPoint: "Anchor-3" 255 -645 basechar 0
AnchorPoint: "Anchor-2" 180 1410 basechar 0
LayerCount: 2
Fore
SplineSet
120 0 m 2,0,-1
 -38 0 l 1,1,-1
 -38 186 l 1,2,-1
 63 186 l 2,3,4
 190 186 190 186 277 211 c 0,5,6
 372 238 372 238 448 323 c 1,7,8
 392 487 392 487 284 573 c 1,9,-1
 84 701 l 2,10,11
 -6 759 -6 759 -20 822 c 1,12,-1
 -20 853 l 2,13,14
 -20 872 -20 872 -18 876 c 2,15,-1
 -11 934 l 1,16,-1
 -1 994 l 2,17,18
 3 1016 3 1016 13 1030 c 0,19,20
 50 1117 50 1117 165 1193 c 1,21,22
 391 1333 391 1333 785 1506 c 1,23,-1
 753 1351 l 1,24,25
 400 1174 400 1174 188 1047 c 0,26,27
 62 969 62 969 62 917 c 0,28,29
 62 904 62 904 179 822 c 0,30,31
 424 651 424 651 493 483 c 0,32,33
 531 393 531 393 531 323 c 0,34,35
 531 206 531 206 419 113 c 1,36,37
 312 31 312 31 248.5 15.5 c 128,-1,38
 185 0 185 0 120 0 c 2,0,-1
EndSplineSet
EndChar

StartChar: afii52306
Encoding: 64401 64401 135
Width: 1434
GlyphClass: 2
Flags: W
AnchorPoint: "Anchor-3" 540 -585 basechar 0
AnchorPoint: "Anchor-2" 675 1500 basechar 0
LayerCount: 2
Fore
SplineSet
1477 186 m 1,0,-1
 1477 0 l 1,1,-1
 1358 0 l 2,2,3
 1316 0 1316 0 1270 18 c 0,4,5
 1259 24 1259 24 1205 59 c 1,6,-1
 1070 199 l 2,7,8
 1050 218 1050 218 1011 256 c 2,9,-1
 951 311 l 2,10,11
 909 347 909 347 812 417 c 1,12,13
 815 402 815 402 815 377 c 0,14,15
 815 174 815 174 661 64 c 0,16,17
 570 0 570 0 388 0 c 2,18,-1
 -38 0 l 1,19,-1
 -38 186 l 1,20,-1
 367 189 l 2,21,22
 417 192 417 192 498 200 c 1,23,-1
 543 210 l 1,24,-1
 602 227 l 2,25,26
 729 263 729 263 729 330 c 0,27,28
 729 431 729 431 594 508 c 2,29,-1
 340 652 l 2,30,31
 200 731 200 731 203 804 c 2,32,-1
 206 904 l 2,33,34
 206 918 206 918 209 935 c 2,35,-1
 213 952 l 1,36,-1
 221 973 l 1,37,38
 262 1065 262 1065 413 1147 c 2,39,-1
 504 1196 l 1,40,-1
 630 1257 l 1,41,-1
 792 1331 l 1,42,-1
 1305 1551 l 1,43,-1
 1254 1361 l 1,44,45
 1177 1315 1177 1315 1000 1242 c 2,46,-1
 652 1102 l 2,47,48
 466 1026 466 1026 300 931 c 0,49,50
 284 921 284 921 284 906 c 0,51,52
 284 895 284 895 300 881 c 1,53,-1
 525 764 l 2,54,55
 591 729 591 729 687 673 c 2,56,-1
 875 563 l 2,57,58
 916 538 916 538 1011 459 c 0,59,60
 1078 402 1078 402 1130 349 c 0,61,62
 1144 336 1144 336 1219 270 c 1,63,-1
 1250 245 l 1,64,-1
 1266 225 l 1,65,-1
 1280 210 l 1,66,-1
 1308 195 l 2,67,68
 1327 186 1327 186 1383 186 c 2,69,-1
 1477 186 l 1,0,-1
EndSplineSet
EndChar

StartChar: afii57509
Encoding: 1711 1711 136
Width: 1610
GlyphClass: 2
Flags: W
AnchorPoint: "Anchor-3" 555 -495 basechar 0
AnchorPoint: "Anchor-2" 390 1215 basechar 0
LayerCount: 2
Fore
SplineSet
906 1358 m 1,0,1
 924 1369 924 1369 1124 1476 c 2,2,-1
 1284 1561 l 1,3,-1
 1474 1653 l 1,4,-1
 1527 1677 l 1,5,-1
 1499 1547 l 1,6,7
 1425 1497 1425 1497 1155 1361 c 0,8,9
 974 1271 974 1271 906 1231 c 1,10,-1
 906 1358 l 1,0,1
168 1 m 1,11,-1
 150 11 l 2,12,13
 99 38 99 38 74 98 c 1,14,-1
 74 234 l 1,15,16
 139 234 139 234 183 216 c 0,17,18
 274 178 274 178 295 178 c 2,19,-1
 837 178 l 2,20,21
 890 178 890 178 977 183 c 1,22,23
 1142 204 1142 204 1240 315 c 1,24,25
 1184 479 1184 479 1077 563 c 1,26,-1
 876 692 l 2,27,28
 787 749 787 749 773 813 c 1,29,-1
 773 843 l 2,30,31
 773 864 773 864 776 868 c 2,32,-1
 781 924 l 1,33,-1
 791 984 l 2,34,35
 795 1007 795 1007 805 1021 c 0,36,37
 843 1107 843 1107 958 1183 c 1,38,39
 1012 1211 1012 1211 1135 1277 c 2,40,-1
 1217 1322 l 1,41,-1
 1399 1417 l 1,42,-1
 1487 1460 l 1,43,-1
 1578 1497 l 1,44,-1
 1546 1345 l 1,45,46
 1456 1285 1456 1285 1260 1186 c 0,47,48
 1030 1071 1030 1071 980 1039 c 0,49,50
 854 959 854 959 854 909 c 0,51,52
 854 895 854 895 972 813 c 0,53,54
 1217 643 1217 643 1285 473 c 0,55,56
 1323 384 1323 384 1323 314 c 0,57,58
 1323 196 1323 196 1211 105 c 0,59,60
 1175 76 1175 76 1130 59 c 2,61,-1
 1019 18 l 2,62,63
 1008 14 1008 14 981 6 c 2,64,65
 981 6 981 6 913 -10 c 1,66,-1
 168 1 l 1,11,-1
EndSplineSet
Substitution2: "'medi' Medial Forms in Arabic lookup 3 subtable" afii62966
Substitution2: "'fina' Terminal Forms in Arabic lookup 2 subtable" afii62967
Substitution2: "'init' Initial Forms in Arabic lookup 1 subtable" afii62965
EndChar

StartChar: afii62967
Encoding: 64403 64403 137
Width: 1700
GlyphClass: 2
Flags: W
AnchorPoint: "Anchor-3" 765 -645 basechar 0
AnchorPoint: "Anchor-2" 525 1275 basechar 0
LayerCount: 2
Fore
SplineSet
997 1463 m 1,0,1
 1032 1487 1032 1487 1219 1586 c 2,2,-1
 1379 1670 l 1,3,-1
 1569 1763 l 1,4,-1
 1623 1786 l 1,5,-1
 1596 1656 l 1,6,7
 1522 1607 1522 1607 1250 1471 c 0,8,9
 1095 1393 1095 1393 997 1336 c 1,10,-1
 997 1463 l 1,0,1
1435 364 m 2,11,12
 1441 329 1441 329 1446 314 c 0,13,14
 1463 274 1463 274 1491 241 c 1,15,16
 1550 186 1550 186 1763 186 c 1,17,-1
 1763 0 l 1,18,-1
 1576 0 l 1,19,20
 1453 38 1453 38 1399 115 c 1,21,22
 1358 213 1358 213 1326 265 c 1,23,24
 1270 216 1270 216 1239 193 c 2,25,-1
 1152 129 l 2,26,27
 1079 77 1079 77 959 38 c 0,28,29
 890 17 890 17 841 10 c 2,30,-1
 783 3 l 1,31,-1
 718 0 l 1,32,-1
 518 0 l 2,33,34
 262 0 262 0 162 76 c 0,35,36
 74 141 74 141 74 309 c 0,37,38
 74 483 74 483 183 623 c 1,39,-1
 228 623 l 1,40,-1
 206 566 l 1,41,-1
 188 503 l 2,42,43
 160 410 160 410 160 368 c 0,44,45
 160 248 160 248 284 189 c 0,46,47
 375 146 375 146 559 146 c 0,48,49
 596 146 596 146 693 155 c 2,50,-1
 725 158 l 2,51,52
 741 158 741 158 745 161 c 2,53,-1
 767 167 l 1,54,-1
 847 185 l 2,55,56
 1007 223 1007 223 1112 269 c 0,57,58
 1194 304 1194 304 1254 351 c 0,59,60
 1294 378 1294 378 1334 433 c 1,61,62
 1336 472 1336 472 1282 559 c 0,63,64
 1238 630 1238 630 1180 676 c 1,65,-1
 980 805 l 2,66,67
 890 862 890 862 876 925 c 1,68,-1
 876 956 l 2,69,70
 876 976 876 976 878 980 c 2,71,-1
 885 1037 l 1,72,-1
 895 1098 l 2,73,74
 899 1120 899 1120 909 1134 c 0,75,76
 946 1221 946 1221 1061 1296 c 1,77,78
 1116 1323 1116 1323 1239 1389 c 2,79,-1
 1320 1435 l 1,80,-1
 1502 1530 l 1,81,-1
 1590 1572 l 1,82,-1
 1681 1610 l 1,83,-1
 1649 1457 l 1,84,85
 1560 1397 1560 1397 1364 1298 c 0,86,87
 1134 1183 1134 1183 1084 1151 c 0,88,89
 958 1072 958 1072 958 1021 c 0,90,91
 958 1008 958 1008 1075 925 c 0,92,93
 1320 755 1320 755 1389 587 c 0,94,95
 1427 497 1427 497 1427 427 c 1,96,-1
 1435 364 l 2,11,12
EndSplineSet
EndChar

StartChar: afii62965
Encoding: 64404 64404 138
Width: 827
GlyphClass: 2
Flags: W
AnchorPoint: "Anchor-3" 225 -495 basechar 0
AnchorPoint: "Anchor-2" 210 1695 basechar 0
LayerCount: 2
Fore
SplineSet
101 1339 m 1,0,1
 127 1355 127 1355 734 1685 c 1,2,-1
 706 1555 l 1,3,4
 632 1506 632 1506 361 1370 c 0,5,6
 179 1278 179 1278 85 1223 c 1,7,-1
 101 1339 l 1,0,1
120 0 m 2,8,-1
 -38 0 l 1,9,-1
 -38 186 l 1,10,-1
 63 186 l 2,11,12
 190 186 190 186 277 211 c 0,13,14
 372 238 372 238 448 323 c 1,15,16
 392 487 392 487 284 573 c 1,17,-1
 84 701 l 2,18,19
 -6 759 -6 759 -20 822 c 1,20,-1
 -20 853 l 2,21,22
 -20 872 -20 872 -18 876 c 2,23,-1
 -11 934 l 1,24,-1
 -1 994 l 2,25,26
 3 1016 3 1016 13 1030 c 0,27,28
 50 1117 50 1117 165 1193 c 1,29,30
 391 1333 391 1333 785 1506 c 1,31,-1
 753 1351 l 1,32,33
 400 1174 400 1174 188 1047 c 0,34,35
 62 969 62 969 62 917 c 0,36,37
 62 904 62 904 179 822 c 0,38,39
 424 651 424 651 493 483 c 0,40,41
 531 393 531 393 531 323 c 0,42,43
 531 206 531 206 419 113 c 1,44,45
 312 31 312 31 248.5 15.5 c 128,-1,46
 185 0 185 0 120 0 c 2,8,-1
EndSplineSet
EndChar

StartChar: afii62966
Encoding: 64405 64405 139
Width: 1425
GlyphClass: 2
Flags: W
AnchorPoint: "Anchor-3" 510 -495 basechar 0
AnchorPoint: "Anchor-2" 525 1665 basechar 0
LayerCount: 2
Fore
SplineSet
361 1351 m 1,0,-1
 494 1411 l 1,1,-1
 651 1488 l 1,2,-1
 781 1548 l 1,3,-1
 1197 1728 l 1,4,-1
 1155 1571 l 1,5,6
 1127 1553 1127 1553 949 1477 c 2,7,-1
 848 1434 l 2,8,9
 659 1355 659 1355 361 1214 c 1,10,-1
 361 1351 l 1,0,-1
1477 186 m 1,11,-1
 1477 0 l 1,12,-1
 1358 0 l 2,13,14
 1316 0 1316 0 1270 18 c 0,15,16
 1259 24 1259 24 1205 59 c 1,17,-1
 1070 199 l 2,18,19
 1050 218 1050 218 1011 256 c 2,20,-1
 951 311 l 2,21,22
 909 347 909 347 812 417 c 1,23,24
 815 402 815 402 815 377 c 0,25,26
 815 174 815 174 661 64 c 0,27,28
 570 0 570 0 388 0 c 2,29,-1
 -38 0 l 1,30,-1
 -38 186 l 1,31,-1
 367 189 l 2,32,33
 417 192 417 192 498 200 c 1,34,-1
 543 210 l 1,35,-1
 602 227 l 2,36,37
 729 263 729 263 729 330 c 0,38,39
 729 431 729 431 594 508 c 2,40,-1
 340 652 l 2,41,42
 200 731 200 731 203 804 c 2,43,-1
 206 904 l 2,44,45
 206 918 206 918 209 935 c 2,46,-1
 213 952 l 1,47,-1
 221 973 l 1,48,49
 262 1067 262 1067 413 1147 c 2,50,-1
 504 1196 l 1,51,-1
 630 1257 l 1,52,-1
 792 1331 l 1,53,-1
 1305 1553 l 1,54,-1
 1254 1361 l 1,55,56
 1177 1315 1177 1315 1000 1242 c 2,57,-1
 652 1102 l 2,58,59
 466 1026 466 1026 300 931 c 0,60,61
 284 921 284 921 284 906 c 0,62,63
 284 895 284 895 300 881 c 1,64,-1
 525 764 l 2,65,66
 591 729 591 729 687 673 c 2,67,-1
 875 563 l 2,68,69
 916 538 916 538 1011 459 c 0,70,71
 1078 402 1078 402 1130 349 c 0,72,73
 1144 336 1144 336 1219 270 c 1,74,-1
 1250 245 l 1,75,-1
 1266 225 l 1,76,-1
 1280 210 l 1,77,-1
 1308 195 l 2,78,79
 1327 186 1327 186 1383 186 c 2,80,-1
 1477 186 l 1,11,-1
EndSplineSet
EndChar

StartChar: afii57555
Encoding: 1740 1740 140
Width: 1588
GlyphClass: 2
Flags: W
AnchorPoint: "Anchor-3" 585 -1185 basechar 0
AnchorPoint: "Anchor-2" 600 495 basechar 0
LayerCount: 2
Fore
SplineSet
1473 339 m 1,0,1
 1422 339 1422 339 1383 363 c 0,2,3
 1327 396 1327 396 1310 402 c 1,4,5
 1287 402 1287 402 1201 345 c 0,6,7
 1180 331 1180 331 1161 317 c 0,8,9
 1110 280 1110 280 1053 221 c 0,10,11
 976 143 976 143 976 104 c 0,12,13
 976 16 976 16 1102 2 c 2,14,-1
 1336 -26 l 1,15,16
 1463 -54 1463 -54 1463 -150 c 0,17,18
 1463 -200 1463 -200 1362 -304 c 0,19,20
 1061 -607 1061 -607 563 -607 c 0,21,22
 377 -607 377 -607 235 -518 c 0,23,24
 71 -411 71 -411 76 -236 c 1,25,-1
 76 -193 l 1,26,-1
 76 -165 l 1,27,-1
 81 -134 l 2,28,29
 83 -122 83 -122 87 -102 c 0,30,31
 90 -94 90 -94 99 -67 c 0,32,33
 139 72 139 72 227 179 c 0,34,35
 244 199 244 199 265 199 c 0,36,37
 280 199 280 199 290 189 c 128,-1,38
 300 179 300 179 300 163 c 256,39,40
 300 147 300 147 291 135 c 0,41,42
 235 46 235 46 223 2 c 2,43,-1
 206 -50 l 1,44,-1
 186 -134 l 1,45,-1
 183 -158 l 1,46,47
 176 -249 176 -249 350 -334 c 0,48,49
 445 -381 445 -381 561 -396 c 0,50,51
 623 -404 623 -404 655 -407 c 0,52,53
 672 -409 672 -409 707 -409 c 1,54,55
 956 -362 956 -362 1162 -277 c 0,56,57
 1253 -239 1253 -239 1313 -193 c 0,58,59
 1329 -185 1329 -185 1330 -173 c 1,60,-1
 1322 -165 l 1,61,-1
 1156 -169 l 2,62,63
 1030 -172 1030 -172 960 -136 c 0,64,65
 872 -89 872 -89 872 30 c 0,66,67
 872 150 872 150 973 287 c 0,68,69
 1058 403 1058 403 1176 486 c 0,70,71
 1303 576 1303 576 1404 576 c 0,72,73
 1456 576 1456 576 1496.5 542 c 128,-1,74
 1537 508 1537 508 1537 458 c 1,75,-1
 1532 431 l 2,76,77
 1519 377 1519 377 1473 339 c 1,0,1
EndSplineSet
Substitution2: "'medi' Medial Forms in Arabic lookup 3 subtable" afii62832
Substitution2: "'fina' Terminal Forms in Arabic lookup 2 subtable" afii52364
Substitution2: "'init' Initial Forms in Arabic lookup 1 subtable" uniFBFE
EndChar

StartChar: afii52364
Encoding: 64509 64509 141
Width: 1497
GlyphClass: 2
Flags: W
AnchorPoint: "Anchor-3" 615 -1155 basechar 0
AnchorPoint: "Anchor-2" 585 495 basechar 0
LayerCount: 2
Fore
SplineSet
1228 0 m 1,0,-1
 1173 -10 l 1,1,-1
 1141 -18 l 2,2,3
 1088 -31 1088 -31 1067 -66 c 1,4,-1
 1064 -76 l 2,5,6
 1064 -87 1064 -87 1166 -101 c 1,7,8
 1224 -101 1224 -101 1282 -115 c 0,9,10
 1299 -119 1299 -119 1319 -129 c 0,11,12
 1408 -164 1408 -164 1408 -251 c 0,13,14
 1408 -305 1408 -305 1298 -402 c 0,15,16
 1225 -465 1225 -465 1161 -498 c 2,17,-1
 1086 -536 l 2,18,19
 1044 -557 1044 -557 993 -578 c 0,20,21
 771 -664 771 -664 536 -664 c 0,22,23
 172 -664 172 -664 95 -442 c 0,24,25
 74 -382 74 -382 74 -297 c 0,26,27
 74 -146 74 -146 144 -42 c 0,28,29
 197 38 197 38 301 104 c 1,30,-1
 346 104 l 1,31,32
 336 67 336 67 290 11 c 0,33,34
 262 -21 262 -21 217 -85 c 1,35,36
 182 -144 182 -144 182 -235 c 0,37,38
 182 -328 182 -328 302 -410 c 0,39,40
 452 -511 452 -511 626 -500 c 2,41,-1
 673 -497 l 1,42,-1
 707 -493 l 1,43,-1
 757 -486 l 2,44,45
 1124 -431 1124 -431 1218 -316 c 1,46,47
 1204 -259 1204 -259 1105 -249 c 2,48,-1
 930 -234 l 1,49,50
 837 -216 837 -216 837 -146 c 0,51,52
 837 -34 837 -34 973 49 c 0,53,54
 1030 83 1030 83 1085 108 c 0,55,56
 1176 148 1176 148 1231 157 c 2,57,-1
 1322 174 l 1,58,-1
 1422 186 l 1,59,-1
 1543 186 l 1,60,-1
 1543 0 l 1,61,-1
 1228 0 l 1,0,-1
EndSplineSet
EndChar

StartChar: afii62945
Encoding: 65557 -1 147
Width: 1403
GlyphClass: 3
Flags: W
LayerCount: 2
Fore
SplineSet
1359 426 m 0,0,1
 1359 49 1359 49 1172 49 c 0,2,3
 1106 49 1106 49 1054 90 c 2,4,-1
 945 176 l 1,5,-1
 844 48 l 1,6,7
 790 0 790 0 679 0 c 0,8,9
 553 0 553 0 528 97 c 2,10,-1
 480 291 l 1,11,-1
 370 235 l 1,12,-1
 316 216 l 1,13,-1
 290 211 l 1,14,-1
 266 209 l 1,15,-1
 202 216 l 1,16,-1
 134 225 l 1,17,-1
 74 239 l 1,18,-1
 74 301 l 1,19,20
 106 427 106 427 211 536 c 0,21,22
 270 596 270 596 398 676 c 0,23,24
 501 741 501 741 518 762 c 1,25,-1
 518 781 l 1,26,-1
 519 804 l 1,27,-1
 529 855 l 2,28,29
 535 886 535 886 563 904 c 1,30,-1
 605 904 l 1,31,-1
 609 820 l 1,32,-1
 612 714 l 1,33,-1
 609 504 l 2,34,35
 606 195 606 195 722 195 c 0,36,37
 742 195 742 195 773 216 c 0,38,39
 917 293 917 293 917 477 c 0,40,41
 917 512 917 512 893 703 c 0,42,43
 881 802 881 802 881 875 c 0,44,45
 881 1015 881 1015 917 1079 c 1,46,-1
 960 1079 l 1,47,-1
 979 1000 l 1,48,-1
 987 956 l 1,49,-1
 993 911 l 1,50,-1
 1002 823 l 1,51,-1
 1005 739 l 2,52,53
 1011 603 1011 603 1022 536 c 0,54,55
 1035 463 1035 463 1054 409 c 0,56,57
 1106 265 1106 265 1226 265 c 0,58,59
 1271 265 1271 265 1271 319 c 0,60,61
 1271 367 1271 367 1240 489 c 2,62,-1
 1182 728 l 2,63,64
 1152 851 1152 851 1152 886 c 1,65,-1
 1158 924 l 1,66,-1
 1196 1079 l 1,67,-1
 1240 1079 l 1,68,-1
 1254 1008 l 1,69,-1
 1271 937 l 1,70,-1
 1329 648 l 2,71,72
 1359 494 1359 494 1359 426 c 0,0,1
489 444 m 1,73,-1
 490 570 l 1,74,75
 368 536 368 536 363 531 c 0,76,77
 297 503 297 503 304 463 c 0,78,79
 304 455 304 455 319 442 c 1,80,81
 336 437 336 437 357 438 c 2,82,-1
 466 445 l 1,83,-1
 489 444 l 1,73,-1
EndSplineSet
EndChar

StartChar: afii64184
Encoding: 65010 65010 148
Width: 1459
GlyphClass: 3
Flags: W
AnchorPoint: "Anchor-1" 1320 -375 baselig 0
AnchorPoint: "Anchor-0" 1260 1170 baselig 0
AnchorPoint: "Anchor-1" 885 -435 baselig 1
AnchorPoint: "Anchor-0" 915 1140 baselig 1
AnchorPoint: "Anchor-1" 300 -465 baselig 2
AnchorPoint: "Anchor-0" 315 930 baselig 2
LayerCount: 2
Fore
SplineSet
1359 426 m 0,0,1
 1359 49 1359 49 1172 49 c 0,2,3
 1106 49 1106 49 1054 90 c 2,4,-1
 945 176 l 1,5,-1
 844 48 l 1,6,7
 790 0 790 0 679 0 c 0,8,9
 553 0 553 0 528 97 c 2,10,-1
 480 291 l 1,11,-1
 370 235 l 1,12,-1
 316 216 l 1,13,-1
 290 211 l 1,14,-1
 266 209 l 1,15,-1
 202 216 l 1,16,-1
 134 225 l 1,17,-1
 74 239 l 1,18,-1
 74 301 l 1,19,20
 106 427 106 427 211 536 c 0,21,22
 270 596 270 596 398 676 c 0,23,24
 501 741 501 741 518 762 c 1,25,-1
 518 781 l 1,26,-1
 519 804 l 1,27,-1
 529 855 l 2,28,29
 535 886 535 886 563 904 c 1,30,-1
 605 904 l 1,31,-1
 609 820 l 1,32,-1
 612 714 l 1,33,-1
 609 504 l 2,34,35
 606 195 606 195 722 195 c 0,36,37
 742 195 742 195 773 216 c 0,38,39
 917 293 917 293 917 477 c 0,40,41
 917 512 917 512 893 703 c 0,42,43
 881 802 881 802 881 875 c 0,44,45
 881 1015 881 1015 917 1079 c 1,46,-1
 960 1079 l 1,47,-1
 979 1000 l 1,48,-1
 987 956 l 1,49,-1
 993 911 l 1,50,-1
 1002 823 l 1,51,-1
 1005 739 l 2,52,53
 1011 603 1011 603 1022 536 c 0,54,55
 1035 463 1035 463 1054 409 c 0,56,57
 1106 265 1106 265 1226 265 c 0,58,59
 1271 265 1271 265 1271 319 c 0,60,61
 1271 367 1271 367 1240 489 c 2,62,-1
 1182 728 l 2,63,64
 1152 851 1152 851 1152 886 c 1,65,-1
 1158 924 l 1,66,-1
 1196 1079 l 1,67,-1
 1240 1079 l 1,68,-1
 1254 1008 l 1,69,-1
 1271 937 l 1,70,-1
 1329 648 l 2,71,72
 1359 494 1359 494 1359 426 c 0,0,1
489 444 m 1,73,-1
 490 570 l 1,74,75
 368 536 368 536 363 531 c 0,76,77
 297 503 297 503 304 463 c 0,78,79
 304 455 304 455 319 442 c 1,80,81
 336 437 336 437 357 438 c 2,82,-1
 466 445 l 1,83,-1
 489 444 l 1,73,-1
1113 1365 m 2,84,85
 1117 1296 1117 1296 1085 1246 c 0,86,87
 1047 1187 1047 1187 980 1190 c 2,88,-1
 955 1191 l 1,89,-1
 938 1194 l 1,90,-1
 916 1194 l 1,91,-1
 897 1175 l 1,92,-1
 875 1156 l 2,93,94
 841 1128 841 1128 791 1128 c 0,95,96
 685 1128 685 1128 685 1246 c 1,97,-1
 687 1280 l 2,98,99
 687 1289 687 1289 697 1313 c 2,100,-1
 715 1355 l 1,101,-1
 767 1362 l 1,102,-1
 767 1330 l 2,103,104
 767 1310 767 1310 770 1303 c 2,105,-1
 771 1287 l 1,106,-1
 777 1266 l 2,107,108
 780 1254 780 1254 795 1253 c 0,109,110
 846 1252 846 1252 881 1407 c 1,111,-1
 928 1420 l 1,112,113
 932 1400 932 1400 944 1365 c 2,114,-1
 949 1350 l 2,115,116
 956 1327 956 1327 980 1320 c 1,117,118
 1007 1320 1007 1320 1026 1352 c 1,119,120
 1040 1387 1040 1387 1040 1457 c 1,121,-1
 1095 1473 l 1,122,-1
 1109 1408 l 1,123,-1
 1113 1365 l 2,84,85
945 1613 m 1,124,125
 899 1525 899 1525 871 1536 c 1,126,127
 873 1554 873 1554 875 1583 c 128,-1,128
 877 1612 877 1612 878.5 1645.5 c 128,-1,129
 880 1679 880 1679 880.5 1713.5 c 128,-1,130
 881 1748 881 1748 880.5 1778 c 128,-1,131
 880 1808 880 1808 878 1831 c 128,-1,132
 876 1854 876 1854 872 1863 c 1,133,134
 949 2024 949 2024 967 1989 c 1,135,136
 967 1948 967 1948 966.5 1900 c 128,-1,137
 966 1852 966 1852 964 1803 c 128,-1,138
 962 1754 962 1754 957.5 1706 c 128,-1,139
 953 1658 953 1658 946 1616 c 1,140,-1
 945 1613 l 1,124,125
EndSplineSet
Ligature2: "'rlig' Required Ligatures in Arabic lookup 5 subtable" afii62817 afii62818 uniFC63 afii62828
Ligature2: "'rlig' Required Ligatures in Arabic lookup 5 subtable" afii62817 afii62818 afii57457 uni0670 afii62828
EndChar

StartChar: afii57415.001
Encoding: 1575 1575 162
Width: 430
GlyphClass: 2
Flags: W
AnchorPoint: "Anchor-3" 270 -390 basechar 0
AnchorPoint: "Anchor-2" 165 1665 basechar 0
LayerCount: 2
Fore
SplineSet
330 197 m 2,0,1
 332 188 332 188 329 178 c 0,2,3
 329 160 329 160 300 120 c 2,4,-1
 281 94 l 1,5,-1
 245 42 l 2,6,7
 231 22 231 22 202 0 c 1,8,-1
 74 1277 l 1,9,10
 74 1338 74 1338 119 1438 c 2,11,-1
 161 1530 l 1,12,-1
 221 1536 l 1,13,-1
 330 197 l 2,0,1
EndSplineSet
Substitution2: "'fina' Terminal Forms in Arabic lookup 2 subtable" afii62760
EndChar

StartChar: afii62760.001
Encoding: 65558 -1 163
Width: 609
GlyphClass: 2
Flags: W
LayerCount: 2
Fore
SplineSet
192 605 m 2,0,-1
 181 742 l 1,1,-1
 175 872 l 1,2,-1
 165 1014 l 1,3,-1
 153 1169 l 1,4,-1
 148 1250 l 1,5,-1
 144 1378 l 2,6,7
 144 1401 144 1401 165 1436 c 0,8,9
 172 1446 172 1446 189 1467 c 2,10,-1
 223 1501 l 1,11,-1
 277 1501 l 1,12,-1
 276 1480 l 1,13,-1
 276 1453 l 1,14,-1
 288 1155 l 1,15,-1
 297 1060 l 1,16,-1
 300 1015 l 1,17,-1
 308 956 l 1,18,-1
 322 820 l 1,19,-1
 343 531 l 1,20,-1
 354 448 l 2,21,22
 367 350 367 350 409 290 c 0,23,24
 482 186 482 186 657 186 c 1,25,-1
 657 0 l 1,26,-1
 487 0 l 1,27,-1
 463 1 l 2,28,29
 413 7 413 7 358 46 c 2,30,-1
 332 66 l 1,31,-1
 307 90 l 1,32,33
 279 126 279 126 252 186 c 1,34,-1
 223 290 l 1,35,-1
 207 427 l 2,36,37
 202 500 202 500 192 605 c 2,0,-1
EndSplineSet
EndChar

StartChar: afii57421
Encoding: 1581 1581 182
Width: 1450
GlyphClass: 2
Flags: W
AnchorPoint: "Anchor-3" 570 -1500 basechar 0
AnchorPoint: "Anchor-2" 675 870 basechar 0
LayerCount: 2
Fore
SplineSet
941 318 m 1,0,1
 748 318 748 318 571 213 c 0,2,3
 421 125 421 125 318 -22 c 0,4,5
 202 -185 202 -185 202 -344 c 0,6,7
 202 -668 202 -668 631 -777 c 0,8,9
 808 -822 808 -822 1000 -816 c 2,10,-1
 1133 -812 l 1,11,-1
 1280 -809 l 1,12,-1
 1561 -795 l 2,13,14
 1585 -794 1585 -794 1590 -797 c 1,15,-1
 1572 -841 l 1,16,-1
 1410 -889 l 1,17,-1
 1277 -924 l 1,18,-1
 1155 -952 l 1,19,-1
 1029 -977 l 1,20,-1
 981 -984 l 1,21,-1
 941 -986 l 2,22,23
 900 -987 900 -987 862 -987 c 0,24,25
 546 -987 546 -987 316 -858 c 0,26,27
 74 -721 74 -721 74 -447 c 0,28,29
 74 -318 74 -318 91 -241 c 0,30,31
 155 55 155 55 490 308 c 1,32,33
 476 316 476 316 468 335 c 0,34,35
 463 342 463 342 435 342 c 0,36,37
 308 342 308 342 259 311 c 1,38,-1
 127 204 l 1,39,-1
 127 263 l 1,40,-1
 195 378 l 2,41,42
 237 448 237 448 308 490 c 0,43,44
 396 540 396 540 512 540 c 1,45,46
 494 540 494 540 718 519 c 2,47,-1
 798 512 l 1,48,-1
 889 510 l 1,49,-1
 953 514 l 1,50,-1
 1131 522 l 1,51,-1
 1278 526 l 1,52,-1
 1257 463 l 2,53,54
 1235 396 1235 396 1215 382 c 1,55,56
 1172 368 1172 368 1040 337 c 1,57,-1
 941 318 l 1,0,1
EndSplineSet
Substitution2: "'medi' Medial Forms in Arabic lookup 3 subtable" afii62775
Substitution2: "'fina' Terminal Forms in Arabic lookup 2 subtable" afii62776
Substitution2: "'init' Initial Forms in Arabic lookup 1 subtable" afii62774
EndChar

StartChar: afii62776
Encoding: 65186 65186 183
Width: 1432
GlyphClass: 2
Flags: W
AnchorPoint: "Anchor-3" 795 -1440 basechar 0
AnchorPoint: "Anchor-2" 690 885 basechar 0
LayerCount: 2
Fore
SplineSet
1119 0 m 1,0,-1
 1068 24 l 2,1,2
 1022 46 1022 46 1004 71 c 0,3,4
 965 122 965 122 965 178 c 0,5,6
 965 209 965 209 970 237 c 2,7,-1
 977 267 l 1,8,-1
 984 293 l 1,9,10
 953 298 953 298 941 318 c 1,11,12
 748 318 748 318 571 213 c 0,13,14
 421 125 421 125 318 -22 c 0,15,16
 202 -185 202 -185 202 -344 c 0,17,18
 202 -668 202 -668 631 -777 c 0,19,20
 808 -822 808 -822 1000 -816 c 2,21,-1
 1133 -812 l 1,22,-1
 1280 -809 l 1,23,-1
 1561 -795 l 2,24,25
 1585 -794 1585 -794 1590 -797 c 1,26,-1
 1572 -841 l 1,27,-1
 1410 -889 l 1,28,-1
 1277 -924 l 1,29,-1
 1155 -952 l 1,30,-1
 1029 -977 l 1,31,-1
 981 -984 l 1,32,-1
 941 -986 l 2,33,34
 900 -987 900 -987 862 -987 c 0,35,36
 546 -987 546 -987 316 -858 c 0,37,38
 74 -721 74 -721 74 -447 c 0,39,40
 74 -318 74 -318 91 -241 c 0,41,42
 155 55 155 55 490 308 c 1,43,44
 476 316 476 316 468 335 c 0,45,46
 463 342 463 342 435 342 c 0,47,48
 308 342 308 342 259 311 c 1,49,-1
 127 204 l 1,50,-1
 127 263 l 1,51,-1
 195 378 l 2,52,53
 213 409 213 409 245 444 c 1,54,-1
 270 466 l 1,55,-1
 305 490 l 1,56,57
 395 540 395 540 512 540 c 1,58,59
 494 540 494 540 718 519 c 2,60,-1
 798 512 l 1,61,-1
 889 510 l 1,62,-1
 953 514 l 1,63,-1
 1131 522 l 1,64,-1
 1278 526 l 1,65,-1
 1257 463 l 2,66,67
 1235 396 1235 396 1215 382 c 1,68,-1
 1100 344 l 1,69,70
 1058 321 1058 321 1058 248 c 0,71,72
 1058 225 1058 225 1082 205.5 c 128,-1,73
 1106 186 1106 186 1131 186 c 2,74,-1
 1473 186 l 1,75,-1
 1473 0 l 1,76,-1
 1119 0 l 1,0,-1
EndSplineSet
EndChar

StartChar: afii62774
Encoding: 65187 65187 184
Width: 1403
GlyphClass: 2
Flags: W
AnchorPoint: "Anchor-3" 600 -585 basechar 0
AnchorPoint: "Anchor-2" 690 960 basechar 0
LayerCount: 2
Fore
SplineSet
388 186 m 1,0,-1
 437 192 l 1,1,-1
 494 199 l 2,2,3
 549 206 549 206 582 220 c 1,4,5
 616 227 616 227 697 265 c 1,6,7
 658 307 658 307 515 358 c 0,8,9
 431 388 431 388 388 388 c 2,10,-1
 356 388 l 2,11,12
 340 388 340 388 333 386 c 0,13,14
 321 386 321 386 300 379 c 0,15,16
 291 379 291 379 280 375 c 2,17,-1
 258 368 l 2,18,19
 248 364 248 364 221 344 c 1,20,-1
 175 337 l 1,21,22
 189 444 189 444 272 511 c 0,23,24
 351 574 351 574 461 574 c 0,25,26
 535 574 535 574 651 514 c 0,27,28
 743 465 743 465 791 445 c 2,29,-1
 903 399 l 2,30,31
 1056 337 1056 337 1302 337 c 1,32,-1
 1302 277 l 1,33,-1
 1263 217 l 1,34,-1
 1214 161 l 1,35,-1
 1203 165 l 1,36,-1
 1161 174 l 1,37,-1
 1107 176 l 2,38,39
 1054 181 1054 181 927 161 c 2,40,-1
 900 157 l 2,41,42
 893 157 893 157 862 150 c 2,43,-1
 787 132 l 2,44,45
 720 116 720 116 623 87 c 2,46,-1
 472 42 l 1,47,-1
 410 27 l 1,48,-1
 332 10 l 1,49,-1
 270 3 l 1,50,-1
 206 0 l 1,51,-1
 -32 0 l 1,52,-1
 -32 186 l 1,53,-1
 388 186 l 1,0,-1
EndSplineSet
EndChar

StartChar: afii62775
Encoding: 65188 65188 185
Width: 1373
GlyphClass: 2
Flags: W
AnchorPoint: "Anchor-3" 495 -540 basechar 0
AnchorPoint: "Anchor-2" 645 930 basechar 0
LayerCount: 2
Fore
SplineSet
1203 0 m 2,0,1
 1089 0 1089 0 1044 48 c 0,2,3
 1007 88 1007 88 1007 175 c 2,4,-1
 1007 183 l 1,5,-1
 1008 196 l 2,6,7
 1008 213 1008 213 998 237 c 1,8,9
 986 255 986 255 948 255 c 0,10,11
 827 255 827 255 659 186 c 2,12,-1
 349 59 l 2,13,14
 203 0 203 0 91 0 c 2,15,-1
 -39 0 l 1,16,-1
 -39 186 l 1,17,-1
 146 189 l 1,18,-1
 157 190 l 1,19,-1
 273 204 l 1,20,-1
 356 221 l 1,21,-1
 459 252 l 2,22,23
 591 293 591 293 644 358 c 1,24,25
 486 451 486 451 371 451 c 0,26,27
 332 451 332 451 235 426 c 0,28,29
 189 413 189 413 153 413 c 1,30,-1
 169 477 l 1,31,32
 217 573 217 573 286 608 c 0,33,34
 346 638 346 638 459 638 c 0,35,36
 498 638 498 638 615 596 c 2,37,-1
 752 546 l 1,38,-1
 837 517 l 2,39,40
 965 473 965 473 1078 473 c 2,41,-1
 1116 473 l 1,42,-1
 1140 477 l 1,43,-1
 1271 477 l 1,44,-1
 1270 451 l 1,45,-1
 1264 419 l 2,46,47
 1253 358 1253 358 1226 322 c 0,48,49
 1215 307 1215 307 1145 288 c 1,50,51
 1079 280 1079 280 1072 241 c 1,52,-1
 1075 223 l 1,53,-1
 1086 206 l 2,54,55
 1095 197 1095 197 1103 193 c 2,56,-1
 1116 189 l 1,57,-1
 1425 186 l 1,58,-1
 1425 0 l 1,59,-1
 1203 0 l 2,0,1
EndSplineSet
EndChar

StartChar: afii57423
Encoding: 1583 1583 190
Width: 875
GlyphClass: 2
Flags: W
AnchorPoint: "Anchor-3" 360 -480 basechar 0
AnchorPoint: "Anchor-2" 345 1020 basechar 0
LayerCount: 2
Fore
SplineSet
837 262 m 2,0,1
 840 150 840 150 760 78 c 0,2,3
 694 21 694 21 584 -1 c 0,4,5
 496 -20 496 -20 388 -20 c 0,6,7
 277 -20 277 -20 227 -10 c 0,8,9
 206 -8 206 -8 199 -6 c 1,10,11
 185 13 185 13 164 52 c 1,12,13
 151 85 151 85 151 119 c 0,14,15
 151 169 151 169 179 209 c 1,16,-1
 232 209 l 1,17,18
 270 181 270 181 312 171 c 0,19,20
 339 165 339 165 392 165 c 2,21,-1
 424 165 l 2,22,23
 535 165 535 165 623 185 c 0,24,25
 748 213 748 213 748 258 c 0,26,27
 748 329 748 329 692 402 c 0,28,29
 640 468 640 468 564 517 c 2,30,-1
 433 602 l 2,31,32
 421 609 421 609 423 630 c 2,33,-1
 424 648 l 2,34,35
 424 657 424 657 428 672 c 2,36,-1
 434 699 l 1,37,-1
 445 734 l 1,38,-1
 469 797 l 1,39,40
 787 637 787 637 827 434 c 1,41,-1
 834 364 l 1,42,-1
 837 262 l 2,0,1
EndSplineSet
Substitution2: "'fina' Terminal Forms in Arabic lookup 2 subtable" afii62780
PairPos2: "'kern' Horizontal Kerning in Arabic lookup 0 subtable" afii57410 dx=0 dy=0 dh=0 dv=0 dx=0 dy=0 dh=-100 dv=0
PairPos2: "'kern' Horizontal Kerning in Arabic lookup 0 subtable" afii57434 dx=0 dy=0 dh=0 dv=0 dx=0 dy=0 dh=-100 dv=0
PairPos2: "'kern' Horizontal Kerning in Arabic lookup 0 subtable" afii57433 dx=0 dy=0 dh=0 dv=0 dx=0 dy=0 dh=-100 dv=0
PairPos2: "'kern' Horizontal Kerning in Arabic lookup 0 subtable" afii57422 dx=0 dy=0 dh=0 dv=0 dx=0 dy=0 dh=-80 dv=0
PairPos2: "'kern' Horizontal Kerning in Arabic lookup 0 subtable" afii57421 dx=0 dy=0 dh=0 dv=0 dx=0 dy=0 dh=-80 dv=0
PairPos2: "'kern' Horizontal Kerning in Arabic lookup 0 subtable" afii57420 dx=0 dy=0 dh=0 dv=0 dx=0 dy=0 dh=-80 dv=0
PairPos2: "'kern' Horizontal Kerning in Arabic lookup 0 subtable" afii62965 dx=0 dy=0 dh=0 dv=0 dx=0 dy=0 dh=-100 dv=0
PairPos2: "'kern' Horizontal Kerning in Arabic lookup 0 subtable" afii57509 dx=0 dy=0 dh=0 dv=0 dx=0 dy=0 dh=-100 dv=0
PairPos2: "'kern' Horizontal Kerning in Arabic lookup 0 subtable" afii52305 dx=0 dy=0 dh=0 dv=0 dx=0 dy=0 dh=-100 dv=0
PairPos2: "'kern' Horizontal Kerning in Arabic lookup 0 subtable" afii57567 dx=0 dy=0 dh=0 dv=0 dx=0 dy=0 dh=-100 dv=0
PairPos2: "'kern' Horizontal Kerning in Arabic lookup 0 subtable" afii57507 dx=0 dy=0 dh=0 dv=0 dx=0 dy=0 dh=-80 dv=0
EndChar

StartChar: afii62780
Encoding: 65194 65194 191
Width: 1182
GlyphClass: 2
Flags: W
AnchorPoint: "Anchor-3" 405 -555 basechar 0
AnchorPoint: "Anchor-2" 465 1275 basechar 0
LayerCount: 2
Fore
SplineSet
909 18 m 0,0,1
 876 41 876 41 850 87 c 2,2,-1
 781 202 l 1,3,4
 696 99 696 99 615 49 c 0,5,6
 538 4 538 4 463 0 c 2,7,-1
 409 -3 l 1,8,-1
 308 -4 l 2,9,10
 189 -6 189 -6 139 18 c 0,11,12
 74 46 74 46 74 141 c 0,13,14
 74 214 74 214 83 237 c 0,15,16
 95 291 95 291 136 291 c 1,17,-1
 147 279 l 1,18,-1
 176 238 l 2,19,20
 213 186 213 186 353 186 c 0,21,22
 490 186 490 186 630 249 c 0,23,24
 741 300 741 300 736 371 c 2,25,-1
 735 391 l 2,26,27
 735 406 735 406 731 416 c 2,28,-1
 713 490 l 1,29,-1
 665 671 l 1,30,-1
 647 755 l 2,31,32
 641 784 641 784 641 825 c 0,33,34
 641 892 641 892 651.5 920 c 128,-1,35
 662 948 662 948 700 986 c 1,36,37
 721 951 721 951 735 896 c 2,38,-1
 774 757 l 1,39,40
 802 636 802 636 841 480 c 1,41,42
 889 332 889 332 959 255 c 2,43,-1
 988 221 l 2,44,45
 998 211 998 211 1015.5 202 c 128,-1,46
 1033 193 1033 193 1057 185 c 1,47,-1
 1225 186 l 1,48,-1
 1225 0 l 1,49,-1
 984 -4 l 1,50,-1
 955 1 l 2,51,52
 925 6 925 6 909 18 c 0,0,1
EndSplineSet
PairPos2: "'kern' Horizontal Kerning in Arabic lookup 0 subtable" afii57410 dx=0 dy=0 dh=0 dv=0 dx=0 dy=0 dh=-100 dv=0
PairPos2: "'kern' Horizontal Kerning in Arabic lookup 0 subtable" afii57434 dx=0 dy=0 dh=0 dv=0 dx=0 dy=0 dh=-100 dv=0
PairPos2: "'kern' Horizontal Kerning in Arabic lookup 0 subtable" afii57433 dx=0 dy=0 dh=0 dv=0 dx=0 dy=0 dh=-100 dv=0
PairPos2: "'kern' Horizontal Kerning in Arabic lookup 0 subtable" afii57422 dx=0 dy=0 dh=0 dv=0 dx=0 dy=0 dh=-80 dv=0
PairPos2: "'kern' Horizontal Kerning in Arabic lookup 0 subtable" afii57421 dx=0 dy=0 dh=0 dv=0 dx=0 dy=0 dh=-80 dv=0
PairPos2: "'kern' Horizontal Kerning in Arabic lookup 0 subtable" afii57420 dx=0 dy=0 dh=0 dv=0 dx=0 dy=0 dh=-80 dv=0
PairPos2: "'kern' Horizontal Kerning in Arabic lookup 0 subtable" afii62965 dx=0 dy=0 dh=0 dv=0 dx=0 dy=0 dh=-100 dv=0
PairPos2: "'kern' Horizontal Kerning in Arabic lookup 0 subtable" afii57509 dx=0 dy=0 dh=0 dv=0 dx=0 dy=0 dh=-100 dv=0
PairPos2: "'kern' Horizontal Kerning in Arabic lookup 0 subtable" afii52305 dx=0 dy=0 dh=0 dv=0 dx=0 dy=0 dh=-100 dv=0
PairPos2: "'kern' Horizontal Kerning in Arabic lookup 0 subtable" afii57567 dx=0 dy=0 dh=0 dv=0 dx=0 dy=0 dh=-100 dv=0
PairPos2: "'kern' Horizontal Kerning in Arabic lookup 0 subtable" afii57507 dx=0 dy=0 dh=0 dv=0 dx=0 dy=0 dh=-80 dv=0
EndChar

StartChar: afii57425
Encoding: 1585 1585 194
Width: 795
GlyphClass: 2
Flags: W
AnchorPoint: "Anchor-3" 285 -1005 basechar 0
AnchorPoint: "Anchor-2" 570 705 basechar 0
LayerCount: 2
Fore
SplineSet
763 111 m 0,0,1
 763 -39 763 -39 665 -183 c 0,2,3
 578 -312 578 -312 440 -403 c 0,4,5
 340 -468 340 -468 244 -487 c 0,6,7
 214 -494 214 -494 186 -494 c 0,8,9
 136 -494 136 -494 54.5 -467 c 128,-1,10
 -27 -440 -27 -440 -84 -400 c 1,11,12
 -110 -349 -110 -349 -31 -351 c 2,13,-1
 84 -358 l 2,14,15
 165 -363 165 -363 266 -319 c 0,16,17
 396 -263 396 -263 540 -127 c 0,18,19
 609 -62 609 -62 633 -31 c 0,20,21
 673 20 673 20 673 66 c 0,22,23
 673 125 673 125 592 206 c 0,24,25
 553 245 553 245 529 274 c 1,26,27
 515 298 515 298 510 319 c 1,28,-1
 510 381 l 1,29,-1
 514 396 l 1,30,31
 526 475 526 475 566 475 c 0,32,33
 578 475 578 475 619 424 c 2,34,-1
 669 361 l 1,35,-1
 692 328 l 1,36,-1
 711 293 l 2,37,38
 731 260 731 260 749 197 c 0,39,40
 763 150 763 150 763 111 c 0,0,1
EndSplineSet
Substitution2: "'fina' Terminal Forms in Arabic lookup 2 subtable" afii62782
PairPos2: "'kern' Horizontal Kerning in Arabic lookup 0 subtable" afii57415 dx=0 dy=0 dh=0 dv=0 dx=0 dy=0 dh=-50 dv=0
PairPos2: "'kern' Horizontal Kerning in Arabic lookup 0 subtable" uni0675 dx=0 dy=0 dh=0 dv=0 dx=0 dy=0 dh=-50 dv=0
PairPos2: "'kern' Horizontal Kerning in Arabic lookup 0 subtable" uni0672 dx=0 dy=0 dh=0 dv=0 dx=0 dy=0 dh=-50 dv=0
PairPos2: "'kern' Horizontal Kerning in Arabic lookup 0 subtable" uniFBFE dx=0 dy=0 dh=0 dv=0 dx=0 dy=0 dh=100 dv=0
PairPos2: "'kern' Horizontal Kerning in Arabic lookup 0 subtable" afii62840 dx=0 dy=0 dh=0 dv=0 dx=0 dy=0 dh=-200 dv=0
PairPos2: "'kern' Horizontal Kerning in Arabic lookup 0 subtable" afii62838 dx=0 dy=0 dh=0 dv=0 dx=0 dy=0 dh=-200 dv=0
PairPos2: "'kern' Horizontal Kerning in Arabic lookup 0 subtable" afii62836 dx=0 dy=0 dh=0 dv=0 dx=0 dy=0 dh=-200 dv=0
PairPos2: "'kern' Horizontal Kerning in Arabic lookup 0 subtable" afii62834 dx=0 dy=0 dh=0 dv=0 dx=0 dy=0 dh=-200 dv=0
PairPos2: "'kern' Horizontal Kerning in Arabic lookup 0 subtable" afii62831 dx=0 dy=0 dh=0 dv=0 dx=0 dy=0 dh=100 dv=0
PairPos2: "'kern' Horizontal Kerning in Arabic lookup 0 subtable" afii57410 dx=0 dy=0 dh=0 dv=0 dx=0 dy=0 dh=-200 dv=0
PairPos2: "'kern' Horizontal Kerning in Arabic lookup 0 subtable" afii57434 dx=0 dy=0 dh=0 dv=0 dx=0 dy=0 dh=-100 dv=0
PairPos2: "'kern' Horizontal Kerning in Arabic lookup 0 subtable" afii57433 dx=0 dy=0 dh=0 dv=0 dx=0 dy=0 dh=-100 dv=0
PairPos2: "'kern' Horizontal Kerning in Arabic lookup 0 subtable" afii62761 dx=0 dy=0 dh=0 dv=0 dx=0 dy=0 dh=100 dv=0
PairPos2: "'kern' Horizontal Kerning in Arabic lookup 0 subtable" afii57413 dx=0 dy=0 dh=0 dv=0 dx=0 dy=0 dh=100 dv=0
PairPos2: "'kern' Horizontal Kerning in Arabic lookup 0 subtable" afii57411 dx=0 dy=0 dh=0 dv=0 dx=0 dy=0 dh=-50 dv=0
PairPos2: "'kern' Horizontal Kerning in Arabic lookup 0 subtable" afii62965 dx=0 dy=0 dh=0 dv=0 dx=0 dy=0 dh=-200 dv=0
PairPos2: "'kern' Horizontal Kerning in Arabic lookup 0 subtable" afii57509 dx=0 dy=0 dh=0 dv=0 dx=0 dy=0 dh=-200 dv=0
PairPos2: "'kern' Horizontal Kerning in Arabic lookup 0 subtable" afii52305 dx=0 dy=0 dh=0 dv=0 dx=0 dy=0 dh=-200 dv=0
PairPos2: "'kern' Horizontal Kerning in Arabic lookup 0 subtable" afii57567 dx=0 dy=0 dh=0 dv=0 dx=0 dy=0 dh=-200 dv=0
PairPos2: "'kern' Horizontal Kerning in Arabic lookup 0 subtable" afii62956 dx=0 dy=0 dh=0 dv=0 dx=0 dy=0 dh=100 dv=0
EndChar

StartChar: afii62782
Encoding: 65198 65198 195
Width: 1051
GlyphClass: 2
Flags: W
AnchorPoint: "Anchor-3" 285 -1035 basechar 0
AnchorPoint: "Anchor-2" 450 690 basechar 0
LayerCount: 2
Fore
SplineSet
1106 186 m 1,0,-1
 1106 0 l 1,1,-1
 802 0 l 1,2,-1
 780 3 l 2,3,4
 777 4 777 4 775 5.5 c 128,-1,5
 773 7 773 7 767 13 c 1,6,-1
 692 -148 l 2,7,8
 608 -323 608 -323 498 -437 c 0,9,10
 353 -589 353 -589 183 -589 c 0,11,12
 113 -589 113 -589 14 -546 c 1,13,14
 -99 -491 -99 -491 -112 -419 c 1,15,-1
 49 -413 l 2,16,17
 246 -405 246 -405 395 -312 c 0,18,19
 515 -238 515 -238 602 -120 c 0,20,21
 671 -29 671 -29 671 0 c 0,22,23
 671 28 671 28 651 49 c 2,24,-1
 533 150 l 2,25,26
 526 155 526 155 568 220 c 2,27,-1
 589 252 l 1,28,-1
 610 281 l 1,29,-1
 749 218 l 2,30,31
 792 199 792 199 823 193 c 2,32,-1
 861 188 l 1,33,-1
 893 186 l 1,34,-1
 1106 186 l 1,0,-1
EndSplineSet
PairPos2: "'kern' Horizontal Kerning in Arabic lookup 0 subtable" afii57415 dx=0 dy=0 dh=0 dv=0 dx=0 dy=0 dh=-100 dv=0
PairPos2: "'kern' Horizontal Kerning in Arabic lookup 0 subtable" uniFBFE dx=0 dy=0 dh=0 dv=0 dx=0 dy=0 dh=100 dv=0
PairPos2: "'kern' Horizontal Kerning in Arabic lookup 0 subtable" afii62840 dx=0 dy=0 dh=0 dv=0 dx=0 dy=0 dh=-200 dv=0
PairPos2: "'kern' Horizontal Kerning in Arabic lookup 0 subtable" afii62838 dx=0 dy=0 dh=0 dv=0 dx=0 dy=0 dh=-200 dv=0
PairPos2: "'kern' Horizontal Kerning in Arabic lookup 0 subtable" afii62836 dx=0 dy=0 dh=0 dv=0 dx=0 dy=0 dh=-200 dv=0
PairPos2: "'kern' Horizontal Kerning in Arabic lookup 0 subtable" afii62834 dx=0 dy=0 dh=0 dv=0 dx=0 dy=0 dh=-200 dv=0
PairPos2: "'kern' Horizontal Kerning in Arabic lookup 0 subtable" afii62831 dx=0 dy=0 dh=0 dv=0 dx=0 dy=0 dh=100 dv=0
PairPos2: "'kern' Horizontal Kerning in Arabic lookup 0 subtable" afii62817 dx=0 dy=0 dh=0 dv=0 dx=0 dy=0 dh=-70 dv=0
PairPos2: "'kern' Horizontal Kerning in Arabic lookup 0 subtable" afii57410 dx=0 dy=0 dh=0 dv=0 dx=0 dy=0 dh=-200 dv=0
PairPos2: "'kern' Horizontal Kerning in Arabic lookup 0 subtable" afii57443 dx=0 dy=0 dh=0 dv=0 dx=0 dy=0 dh=-70 dv=0
PairPos2: "'kern' Horizontal Kerning in Arabic lookup 0 subtable" afii57434 dx=0 dy=0 dh=0 dv=0 dx=0 dy=0 dh=-80 dv=0
PairPos2: "'kern' Horizontal Kerning in Arabic lookup 0 subtable" afii57433 dx=0 dy=0 dh=0 dv=0 dx=0 dy=0 dh=-80 dv=0
PairPos2: "'kern' Horizontal Kerning in Arabic lookup 0 subtable" afii62761 dx=0 dy=0 dh=0 dv=0 dx=0 dy=0 dh=100 dv=0
PairPos2: "'kern' Horizontal Kerning in Arabic lookup 0 subtable" afii57413 dx=0 dy=0 dh=0 dv=0 dx=0 dy=0 dh=120 dv=0
PairPos2: "'kern' Horizontal Kerning in Arabic lookup 0 subtable" afii62965 dx=0 dy=0 dh=0 dv=0 dx=0 dy=0 dh=-200 dv=0
PairPos2: "'kern' Horizontal Kerning in Arabic lookup 0 subtable" afii57509 dx=0 dy=0 dh=0 dv=0 dx=0 dy=0 dh=-200 dv=0
PairPos2: "'kern' Horizontal Kerning in Arabic lookup 0 subtable" afii52305 dx=0 dy=0 dh=0 dv=0 dx=0 dy=0 dh=-200 dv=0
PairPos2: "'kern' Horizontal Kerning in Arabic lookup 0 subtable" afii57567 dx=0 dy=0 dh=0 dv=0 dx=0 dy=0 dh=-200 dv=0
PairPos2: "'kern' Horizontal Kerning in Arabic lookup 0 subtable" afii62956 dx=0 dy=0 dh=0 dv=0 dx=0 dy=0 dh=100 dv=0
EndChar

StartChar: afii57427
Encoding: 1587 1587 198
Width: 2123
GlyphClass: 2
Flags: W
AnchorPoint: "Anchor-3" 735 -1080 basechar 0
AnchorPoint: "Anchor-2" 1230 900 basechar 0
LayerCount: 2
Fore
SplineSet
1677 300 m 1,0,1
 1677 249 1677 249 1791 203 c 0,2,3
 1847 179 1847 179 1869 175 c 2,4,-1
 1898 168 l 1,5,-1
 1922 167 l 2,6,7
 1954 164 1954 164 1964 260 c 0,8,9
 1977 379 1977 379 2038 431 c 1,10,-1
 2082 431 l 1,11,-1
 2082 358 l 2,12,13
 2082 241 2082 241 2038 133 c 0,14,15
 1982 -6 1982 -6 1870 -6 c 0,16,17
 1821 -6 1821 -6 1731 28.5 c 128,-1,18
 1641 63 1641 63 1600 63 c 0,19,20
 1565 63 1565 63 1526 39 c 1,21,22
 1439 -4 1439 -4 1403 -20 c 1,23,24
 1385 -20 1385 -20 1382 -21 c 2,25,-1
 1366 -22 l 1,26,-1
 1347 -21 l 1,27,-1
 1320 -17 l 1,28,-1
 1275 -7 l 2,29,30
 1263 -7 1263 -7 1251.5 -17 c 128,-1,31
 1240 -27 1240 -27 1226 -56 c 1,32,-1
 1204 -204 l 1,33,34
 1092 -615 1092 -615 532 -615 c 0,35,36
 342 -615 342 -615 216 -521 c 0,37,38
 74 -417 74 -417 74 -232 c 0,39,40
 74 -111 74 -111 109 -14 c 0,41,42
 151 105 151 105 251 167 c 1,43,-1
 251 108 l 1,44,-1
 207 -7 l 2,45,46
 164 -123 164 -123 164 -143 c 0,47,48
 164 -269 164 -269 322 -347 c 0,49,50
 452 -410 452 -410 591 -410 c 0,51,52
 685 -410 685 -410 798 -385 c 0,53,54
 1123 -315 1123 -315 1123 -129 c 0,55,56
 1123 -18 1123 -18 1100 46 c 2,57,-1
 1050 181 l 1,58,59
 1050 221 1050 221 1084 281 c 0,60,61
 1106 323 1106 323 1131 343 c 1,62,-1
 1215 232 l 2,63,64
 1266 167 1266 167 1375 167 c 0,65,66
 1485 167 1485 167 1565 295 c 2,67,-1
 1648 427 l 1,68,-1
 1667 419 l 2,69,70
 1681 410 1681 410 1694 395 c 1,71,-1
 1701 375 l 2,72,73
 1701 365 1701 365 1694 350 c 2,74,-1
 1677 300 l 1,0,1
EndSplineSet
Substitution2: "'medi' Medial Forms in Arabic lookup 3 subtable" afii62785
Substitution2: "'fina' Terminal Forms in Arabic lookup 2 subtable" afii62786
Substitution2: "'init' Initial Forms in Arabic lookup 1 subtable" afii62784
EndChar

StartChar: afii62786
Encoding: 65202 65202 199
Width: 2306
GlyphClass: 2
Flags: W
AnchorPoint: "Anchor-3" 765 -1095 basechar 0
AnchorPoint: "Anchor-2" 1395 780 basechar 0
LayerCount: 2
Fore
SplineSet
2358 172 m 1,0,-1
 2358 -14 l 1,1,-1
 2292 -14 l 1,2,-1
 2187 -13 l 1,3,-1
 2153 -8 l 2,4,5
 2143 -8 2143 -8 2141 -7 c 2,6,-1
 2120 1 l 1,7,-1
 1994 63 l 1,8,-1
 1925 18 l 2,9,10
 1901 3 1901 3 1854 -15 c 0,11,12
 1823 -27 1823 -27 1803 -27 c 0,13,14
 1719 -27 1719 -27 1655 18 c 2,15,-1
 1589 63 l 1,16,17
 1473 -6 1473 -6 1259 -6 c 0,18,19
 1235 -6 1235 -6 1222 -73 c 1,20,21
 1222 -123 1222 -123 1215 -160 c 0,22,23
 1207 -200 1207 -200 1196 -230 c 0,24,25
 1156 -326 1156 -326 1036 -410 c 2,26,-1
 972 -455 l 2,27,28
 923 -489 923 -489 827 -525 c 128,-1,29
 731 -561 731 -561 623 -561 c 0,30,31
 434 -561 434 -561 270 -472 c 0,32,33
 74 -364 74 -364 74 -190 c 0,34,35
 74 -125 74 -125 81 -97 c 2,36,-1
 91 -53 l 1,37,-1
 98 -32 l 1,38,-1
 108 -8 l 1,39,40
 154 92 154 92 210 164 c 1,41,-1
 253 164 l 1,42,-1
 253 105 l 1,43,-1
 207 13 l 2,44,45
 165 -71 165 -71 165 -101 c 0,46,47
 165 -241 165 -241 336 -307 c 0,48,49
 456 -353 456 -353 623 -353 c 0,50,51
 799 -353 799 -353 949 -290 c 0,52,53
 1124 -216 1124 -216 1124 -101 c 0,54,55
 1124 -34 1124 -34 1079 59 c 2,56,-1
 1049 125 l 2,57,58
 1036 150 1036 150 1036 178 c 1,59,-1
 1054 230 l 1,60,-1
 1096 328 l 1,61,-1
 1138 328 l 1,62,63
 1239 164 1239 164 1375 164 c 0,64,65
 1544 164 1544 164 1670 372 c 1,66,-1
 1729 372 l 1,67,-1
 1728 351 l 1,68,-1
 1728 304 l 2,69,70
 1728 281 1728 281 1729 279 c 0,71,72
 1729 225 1729 225 1799 195 c 0,73,74
 1851 171 1851 171 1901 171 c 0,75,76
 1929 171 1929 171 1970 225 c 0,77,78
 2071 363 2071 363 2097 372 c 1,79,-1
 2114 340 l 1,80,-1
 2118 322 l 1,81,-1
 2115 295 l 1,82,-1
 2114 253 l 2,83,84
 2113 241 2113 241 2122 224 c 1,85,-1
 2156 195 l 1,86,-1
 2181 178 l 2,87,88
 2183 178 2183 178 2184 176 c 0,89,90
 2194 172 2194 172 2206 172 c 2,91,-1
 2358 172 l 1,0,-1
EndSplineSet
EndChar

StartChar: afii62784
Encoding: 65203 65203 200
Width: 1278
GlyphClass: 2
Flags: W
AnchorPoint: "Anchor-3" 555 -570 basechar 0
AnchorPoint: "Anchor-2" 720 855 basechar 0
LayerCount: 2
Fore
SplineSet
1112 252 m 1,0,-1
 1113 288 l 1,1,-1
 1112 311 l 1,2,-1
 1112 332 l 2,3,4
 1112 365 1112 365 1127 399 c 1,5,6
 1149 433 1149 433 1212 468 c 1,7,8
 1222 433 1222 433 1225 416 c 2,9,-1
 1229 377 l 1,10,-1
 1226 351 l 1,11,12
 1212 178 1212 178 1158 101 c 0,13,14
 1089 4 1089 4 970 4 c 0,15,16
 953 4 953 4 931 14 c 2,17,-1
 890 34 l 1,18,-1
 855 53 l 2,19,20
 771 101 771 101 748 101 c 1,21,22
 708 77 708 77 617 29 c 1,23,24
 577 14 577 14 540 4 c 2,25,-1
 500 -3 l 1,26,-1
 458 -6 l 2,27,28
 400 -10 400 -10 363 24 c 2,29,-1
 276 101 l 1,30,-1
 196 56 l 1,31,-1
 125 20 l 1,32,-1
 67 0 l 1,33,-1
 -22 0 l 1,34,-1
 -22 186 l 1,35,-1
 97 186 l 1,36,-1
 133 189 l 1,37,-1
 174 202 l 2,38,39
 196 209 196 209 220 228 c 0,40,41
 249 253 249 253 266 276 c 2,42,-1
 371 416 l 1,43,-1
 413 416 l 1,44,-1
 395 337 l 1,45,-1
 395 312 l 2,46,47
 392 253 392 253 438 207 c 1,48,49
 477 176 477 176 540 176 c 0,50,51
 609 176 609 176 693 262 c 0,52,53
 759 330 759 330 799 409 c 1,54,-1
 850 409 l 1,55,-1
 839 347 l 1,56,-1
 834 312 l 1,57,58
 834 252 834 252 906 214 c 1,59,-1
 963 192 l 2,60,61
 984 185 984 185 1007 185 c 2,62,-1
 1022 185 l 1,63,-1
 1039 186 l 1,64,-1
 1070 193 l 2,65,66
 1093 197 1093 197 1106 217 c 1,67,-1
 1112 252 l 1,0,-1
EndSplineSet
EndChar

StartChar: afii62785
Encoding: 65204 65204 201
Width: 1547
GlyphClass: 2
Flags: W
AnchorPoint: "Anchor-3" 675 -600 basechar 0
AnchorPoint: "Anchor-2" 750 750 basechar 0
LayerCount: 2
Fore
SplineSet
1588 186 m 1,0,-1
 1588 0 l 1,1,-1
 1309 0 l 2,2,3
 1299 0 1299 0 1296 3 c 2,4,-1
 1281 8 l 1,5,-1
 1169 59 l 1,6,-1
 1063 7 l 2,7,8
 1014 -17 1014 -17 976 -14 c 2,9,-1
 959 -14 l 2,10,11
 944 -13 944 -13 935 -8 c 2,12,-1
 918 -3 l 1,13,-1
 888 10 l 1,14,-1
 771 59 l 1,15,-1
 713 35 l 1,16,-1
 637 7 l 2,17,18
 580 -14 580 -14 504 -14 c 0,19,20
 424 -14 424 -14 381 18 c 2,21,-1
 283 90 l 1,22,23
 274 83 274 83 214 50 c 1,24,-1
 162 27 l 1,25,-1
 136 17 l 1,26,-1
 92 7 l 2,27,28
 67 0 67 0 31 0 c 2,29,-1
 -28 0 l 1,30,-1
 -28 186 l 1,31,32
 38 186 38 186 101 196 c 2,33,-1
 120 199 l 2,34,35
 129 200 129 200 148 207 c 2,36,-1
 197 225 l 2,37,38
 279 256 279 256 354 354 c 1,39,-1
 414 354 l 1,40,41
 414 178 414 178 549 178 c 0,42,43
 648 178 648 178 725 249 c 1,44,-1
 858 406 l 1,45,46
 865 405 865 405 875 393 c 128,-1,47
 885 381 885 381 888 364 c 0,48,49
 888 344 888 344 883 335 c 2,50,-1
 879 308 l 1,51,-1
 883 283 l 1,52,-1
 892 256 l 1,53,-1
 907 232 l 1,54,-1
 942 207 l 1,55,-1
 984 186 l 1,56,-1
 1007 181 l 1,57,-1
 1035 178 l 1,58,-1
 1063 178 l 2,59,60
 1098 178 1098 178 1169 284 c 0,61,62
 1210 344 1210 344 1240 368 c 1,63,-1
 1285 368 l 1,64,-1
 1280 267 l 2,65,66
 1274 186 1274 186 1338 186 c 2,67,-1
 1588 186 l 1,0,-1
EndSplineSet
EndChar

StartChar: afii57429
Encoding: 1589 1589 206
Width: 2481
GlyphClass: 2
Flags: W
AnchorPoint: "Anchor-3" 735 -1035 basechar 0
AnchorPoint: "Anchor-2" 1230 885 basechar 0
LayerCount: 2
Fore
SplineSet
2269 462 m 1,0,1
 2219 553 2219 553 2076 553 c 0,2,3
 1991 553 1991 553 1833 463 c 0,4,5
 1712 393 1712 393 1597 294 c 2,6,-1
 1494 203 l 1,7,-1
 1663 203 l 1,8,-1
 1795 235 l 2,9,10
 1942 270 1942 270 2030 307 c 0,11,12
 2164 361 2164 361 2269 462 c 1,0,1
556 -372 m 0,13,14
 707 -372 707 -372 900 -308 c 0,15,16
 1145 -225 1145 -225 1145 -106 c 0,17,18
 1145 -67 1145 -67 1093.5 43 c 128,-1,19
 1042 153 1042 153 1042 189 c 0,20,21
 1042 245 1042 245 1064 291 c 2,22,-1
 1092 351 l 1,23,24
 1144 304 1144 304 1196 256 c 0,25,26
 1257 203 1257 203 1323 203 c 0,27,28
 1341 203 1341 203 1518 346 c 0,29,30
 1782 560 1782 560 1855 613 c 0,31,32
 2058 757 2058 757 2150 757 c 0,33,34
 2232 757 2232 757 2321 713 c 0,35,36
 2430 661 2430 661 2430 587 c 0,37,38
 2430 428 2430 428 2282 283 c 0,39,40
 2163 165 2163 165 1991 91 c 0,41,42
 1800 10 1800 10 1627 10 c 2,43,-1
 1246 10 l 1,44,45
 1246 -109 1246 -109 1219 -196 c 0,46,47
 1105 -563 1105 -563 575 -563 c 0,48,49
 510 -563 510 -563 412 -540 c 0,50,51
 272 -510 272 -510 188 -440 c 0,52,53
 74 -344 74 -344 74 -204 c 0,54,55
 74 113 74 113 241 241 c 1,56,-1
 241 178 l 1,57,-1
 199 70 l 1,58,59
 185 4 185 4 185 -50 c 0,60,61
 185 -372 185 -372 556 -372 c 0,13,14
EndSplineSet
Substitution2: "'medi' Medial Forms in Arabic lookup 3 subtable" afii62791
Substitution2: "'fina' Terminal Forms in Arabic lookup 2 subtable" afii62792
Substitution2: "'init' Initial Forms in Arabic lookup 1 subtable" afii62790
EndChar

StartChar: afii62792
Encoding: 65210 65210 207
Width: 2414
GlyphClass: 2
Flags: W
AnchorPoint: "Anchor-3" 645 -1050 basechar 0
AnchorPoint: "Anchor-2" 1305 825 basechar 0
LayerCount: 2
Fore
SplineSet
2241 407 m 1,0,1
 2211 440 2211 440 2135 459 c 2,2,-1
 2092 470 l 1,3,-1
 2045 483 l 1,4,-1
 2005 490 l 1,5,-1
 1973 491 l 2,6,7
 1935 494 1935 494 1814 423 c 0,8,9
 1753 386 1753 386 1716 360 c 2,10,-1
 1575 252 l 1,11,-1
 1527 211 l 1,12,-1
 1483 164 l 1,13,-1
 1621 164 l 1,14,-1
 1756 200 l 2,15,16
 1932 248 1932 248 2010 277 c 0,17,18
 2150 330 2150 330 2241 407 c 1,0,1
2468 186 m 1,19,-1
 2468 0 l 1,20,-1
 1281 0 l 1,21,-1
 1266 -14 l 2,22,23
 1260 -20 1260 -20 1254 -42 c 1,24,25
 1254 -122 1254 -122 1203 -228 c 0,26,27
 1032 -588 1032 -588 577 -588 c 0,28,29
 382 -588 382 -588 235 -480 c 0,30,31
 74 -361 74 -361 74 -172 c 0,32,33
 74 -50 74 -50 109 46 c 0,34,35
 151 165 151 165 251 227 c 1,36,-1
 251 168 l 1,37,-1
 207 53 l 2,38,39
 164 -62 164 -62 164 -83 c 0,40,41
 164 -214 164 -214 309 -309 c 0,42,43
 438 -393 438 -393 577 -393 c 2,44,-1
 589 -393 l 1,45,-1
 630 -392 l 1,46,-1
 645 -392 l 1,47,-1
 671 -388 l 1,48,-1
 704 -385 l 1,49,-1
 790 -367 l 1,50,51
 1133 -291 1133 -291 1133 -102 c 0,52,53
 1133 -50 1133 -50 1105 11 c 0,54,55
 1044 146 1044 146 1044 164 c 0,56,57
 1044 188 1044 188 1050 207 c 2,58,-1
 1057 230 l 1,59,-1
 1068 258 l 2,60,61
 1086 309 1086 309 1112 309 c 1,62,-1
 1228 218 l 2,63,64
 1281 176 1281 176 1334 176 c 0,65,66
 1351 176 1351 176 1498 304 c 2,67,-1
 1581 375 l 1,68,-1
 1656 438 l 1,69,-1
 1728 494 l 1,70,-1
 1793 542 l 2,71,72
 1971 672 1971 672 2108 672 c 0,73,74
 2180 672 2180 672 2275 634 c 0,75,76
 2404 582 2404 582 2404 503 c 0,77,78
 2404 444 2404 444 2372 393 c 0,79,80
 2363 378 2363 378 2292 304 c 2,81,-1
 2229 238 l 1,82,-1
 2185 186 l 1,83,-1
 2468 186 l 1,19,-1
EndSplineSet
EndChar

StartChar: afii62790
Encoding: 65211 65211 208
Width: 1636
GlyphClass: 2
Flags: W
AnchorPoint: "Anchor-3" 570 -645 basechar 0
AnchorPoint: "Anchor-2" 660 885 basechar 0
LayerCount: 2
Fore
SplineSet
1590 416 m 0,0,1
 1590 382 1590 382 1513 293 c 0,2,3
 1406 164 1406 164 1236 83 c 0,4,5
 1004 -28 1004 -28 689 -28 c 0,6,7
 557 -28 557 -28 469 7 c 0,8,9
 414 29 414 29 351 113 c 1,10,11
 307 74 307 74 235 34 c 1,12,-1
 172 8 l 1,13,14
 133 0 133 0 109 0 c 2,15,-1
 -20 0 l 1,16,-1
 -20 186 l 1,17,-1
 69 186 l 1,18,-1
 108 188 l 2,19,20
 125 188 125 188 144 192 c 0,21,22
 259 206 259 206 305 248 c 2,23,-1
 318 259 l 1,24,-1
 333 274 l 1,25,-1
 364 312 l 1,26,-1
 409 312 l 1,27,28
 423 267 423 267 466.5 224 c 128,-1,29
 510 181 510 181 554 181 c 0,30,31
 575 181 575 181 739 302 c 2,32,-1
 931 444 l 1,33,-1
 1050 531 l 2,34,35
 1222 654 1222 654 1308 654 c 0,36,37
 1420 654 1420 654 1501 592 c 0,38,39
 1590 525 1590 525 1590 416 c 0,0,1
1411 371 m 1,40,41
 1394 407 1394 407 1338 435 c 0,42,43
 1264 473 1264 473 1211 473 c 0,44,45
 1197 473 1197 473 1182 468 c 0,46,47
 1144 461 1144 461 1042 403 c 0,48,49
 949 349 949 349 846 276 c 0,50,51
 748 206 748 206 731 181 c 1,52,53
 778 181 778 181 868 190 c 0,54,55
 1039 210 1039 210 1156 244 c 0,56,57
 1334 293 1334 293 1411 371 c 1,40,41
EndSplineSet
EndChar

StartChar: afii62791
Encoding: 65212 65212 209
Width: 1646
GlyphClass: 2
Flags: W
AnchorPoint: "Anchor-3" 510 -570 basechar 0
AnchorPoint: "Anchor-2" 600 975 basechar 0
LayerCount: 2
Fore
SplineSet
101 186 m 1,0,-1
 141 193 l 2,1,2
 155 196 155 196 196 209 c 0,3,4
 227 220 227 220 260 237 c 0,5,6
 325 270 325 270 372 342 c 1,7,-1
 438 266 l 2,8,9
 489 209 489 209 540 209 c 0,10,11
 554 209 554 209 717 335 c 0,12,13
 917 489 917 489 1036 568 c 0,14,15
 1228 696 1228 696 1310 696 c 0,16,17
 1389 696 1389 696 1502 637 c 0,18,19
 1635 568 1635 568 1635 475 c 0,20,21
 1635 412 1635 412 1537 321 c 2,22,-1
 1396 186 l 1,23,-1
 1700 186 l 1,24,-1
 1700 0 l 1,25,-1
 606 0 l 2,26,27
 507 0 507 0 440 50 c 1,28,29
 399 101 399 101 350 150 c 1,30,31
 307 106 307 106 245 55 c 1,32,33
 213 34 213 34 157 14 c 1,34,35
 91 0 91 0 41 0 c 2,36,-1
 -34 0 l 1,37,-1
 -34 186 l 1,38,-1
 101 186 l 1,0,-1
1135 237 m 2,39,-1
 1201 260 l 2,40,41
 1226 270 1226 270 1280 297 c 2,42,-1
 1337 323 l 1,43,-1
 1359 336 l 1,44,-1
 1383 354 l 2,45,46
 1428 386 1428 386 1455 420 c 1,47,48
 1432 466 1432 466 1312 497 c 0,49,50
 1274 503 1274 503 1204 510 c 1,51,52
 1162 510 1162 510 1032 438 c 0,53,54
 945 389 945 389 823 297 c 0,55,56
 718 216 718 216 704 195 c 1,57,-1
 973 196 l 1,58,-1
 1037 209 l 2,59,60
 1053 211 1053 211 1085 220 c 0,61,62
 1095 223 1095 223 1135 237 c 2,39,-1
EndSplineSet
EndChar

StartChar: afii57431
Encoding: 1591 1591 214
Width: 1577
GlyphClass: 2
Flags: W
AnchorPoint: "Anchor-3" 750 -525 basechar 0
AnchorPoint: "Anchor-2" 1140 1395 basechar 0
LayerCount: 2
Fore
SplineSet
1550 475 m 1,0,-1
 1484 349 l 1,1,2
 1240 -11 1240 -11 710 -11 c 2,3,-1
 386 -11 l 2,4,5
 372 -11 372 -11 339 6 c 2,6,-1
 228 62 l 2,7,8
 88 134 88 134 77 165 c 0,9,10
 74 168 74 168 74 172 c 0,11,12
 74 183 74 183 85 199 c 2,13,-1
 101 216 l 2,14,15
 109 221 109 221 119 221 c 2,16,-1
 267 176 l 1,17,18
 480 176 480 176 552 227 c 0,19,20
 641 288 641 288 641 489 c 0,21,22
 641 917 641 917 550 1190 c 0,23,24
 522 1273 522 1273 518 1274 c 1,25,26
 535 1337 535 1337 553 1378 c 0,27,28
 602 1485 602 1485 665 1504 c 1,29,-1
 673 1473 l 1,30,-1
 678 1425 l 2,31,32
 682 1368 682 1368 706 1357 c 0,33,34
 748 1336 748 1336 773 1299 c 0,35,36
 785 1277 785 1277 785 1238 c 2,37,-1
 785 1214 l 2,38,39
 785 1180 785 1180 755 1145 c 0,40,41
 722 1106 722 1106 725 1071 c 2,42,-1
 732 991 l 1,43,-1
 738 829 l 1,44,-1
 741 402 l 1,45,46
 797 402 797 402 890 475 c 2,47,-1
 1065 609 l 1,48,49
 1180 682 1180 682 1257 682 c 0,50,51
 1364 682 1364 682 1452 629 c 0,52,53
 1550 571 1550 571 1550 475 c 1,0,-1
1396 399 m 1,54,55
 1371 437 1371 437 1299 462 c 0,56,57
 1238 484 1238 484 1183 484 c 0,58,59
 1113 484 1113 484 993 431 c 0,60,61
 762 329 762 329 686 209 c 1,62,-1
 874 209 l 1,63,-1
 1028 246 l 2,64,65
 1051 251 1051 251 1096 260 c 2,66,-1
 1162 279 l 2,67,68
 1203 290 1203 290 1257 309 c 0,69,70
 1378 354 1378 354 1396 399 c 1,54,55
EndSplineSet
Substitution2: "'medi' Medial Forms in Arabic lookup 3 subtable" afii62797
Substitution2: "'fina' Terminal Forms in Arabic lookup 2 subtable" afii62798
Substitution2: "'init' Initial Forms in Arabic lookup 1 subtable" afii62796
EndChar

StartChar: afii62798
Encoding: 65218 65218 215
Width: 1565
GlyphClass: 2
Flags: W
AnchorPoint: "Anchor-3" 870 -615 basechar 0
AnchorPoint: "Anchor-2" 1230 1410 basechar 0
LayerCount: 2
Fore
SplineSet
1396 400 m 1,0,1
 1371 438 1371 438 1299 463 c 0,2,3
 1238 486 1238 486 1183 486 c 0,4,5
 1113 486 1113 486 993 433 c 0,6,7
 762 330 762 330 686 210 c 1,8,-1
 874 210 l 1,9,-1
 1028 248 l 2,10,11
 1051 252 1051 252 1096 262 c 2,12,-1
 1162 280 l 2,13,14
 1203 290 1203 290 1257 311 c 0,15,16
 1378 354 1378 354 1396 400 c 1,0,1
1617 0 m 1,17,-1
 370 0 l 2,18,19
 347 0 347 0 228 63 c 0,20,21
 85 140 85 140 77 165 c 0,22,23
 74 169 74 169 74 174 c 0,24,25
 74 185 74 185 85 200 c 2,26,-1
 101 216 l 2,27,28
 109 223 109 223 119 223 c 2,29,-1
 267 178 l 1,30,31
 480 178 480 178 552 227 c 0,32,33
 641 290 641 290 641 490 c 0,34,35
 641 918 641 918 550 1190 c 0,36,37
 522 1273 522 1273 518 1274 c 1,38,39
 535 1338 535 1338 553 1378 c 0,40,41
 602 1487 602 1487 665 1505 c 1,42,-1
 673 1474 l 1,43,-1
 678 1427 l 2,44,45
 682 1369 682 1369 706 1357 c 0,46,47
 748 1337 748 1337 773 1301 c 0,48,49
 785 1277 785 1277 785 1238 c 2,50,-1
 785 1215 l 2,51,52
 785 1182 785 1182 753.5 1144 c 128,-1,53
 722 1106 722 1106 725 1072 c 2,54,-1
 732 993 l 1,55,-1
 738 830 l 1,56,-1
 741 403 l 1,57,58
 797 403 797 403 890 475 c 2,59,-1
 1065 609 l 1,60,61
 1180 682 1180 682 1257 682 c 0,62,63
 1364 682 1364 682 1452 630 c 0,64,65
 1550 571 1550 571 1550 475 c 1,66,-1
 1536 417 l 1,67,68
 1511 346 1511 346 1464 291 c 0,69,70
 1438 259 1438 259 1392 230 c 0,71,72
 1372 218 1372 218 1298 186 c 1,73,-1
 1617 186 l 1,74,-1
 1617 0 l 1,17,-1
EndSplineSet
EndChar

StartChar: afii62796
Encoding: 65219 65219 216
Width: 1118
GlyphClass: 2
Flags: W
AnchorPoint: "Anchor-3" 435 -525 basechar 0
AnchorPoint: "Anchor-2" 750 1320 basechar 0
LayerCount: 2
Fore
SplineSet
1078 465 m 0,0,1
 1078 234 1078 234 766 102 c 0,2,3
 522 0 522 0 258 0 c 2,4,-1
 -32 0 l 1,5,-1
 -32 186 l 1,6,-1
 73 186 l 2,7,8
 153 186 153 186 195 248 c 0,9,10
 249 333 249 333 249 528 c 0,11,12
 249 734 249 734 216 918 c 2,13,-1
 143 1316 l 1,14,-1
 143 1358 l 2,15,16
 144 1372 144 1372 150 1389 c 0,17,18
 160 1425 160 1425 171 1438 c 2,19,-1
 218 1505 l 1,20,-1
 349 1320 l 1,21,22
 305 1285 305 1285 291 1253 c 1,23,-1
 281 1207 l 2,24,25
 279 1191 279 1191 279 1142 c 1,26,-1
 316 872 l 1,27,-1
 329 742 l 1,28,-1
 330 666 l 1,29,-1
 333 613 l 1,30,-1
 333 595 l 2,31,32
 333 518 333 518 326 475 c 1,33,-1
 325 449 l 1,34,-1
 325 434 l 1,35,-1
 321 414 l 1,36,-1
 318 389 l 2,37,38
 318 371 318 371 316 365 c 2,39,-1
 308 330 l 1,40,-1
 349 375 l 2,41,42
 379 412 379 412 409 431 c 1,43,-1
 466 489 l 1,44,-1
 525 538 l 1,45,-1
 588 584 l 1,46,-1
 655 626 l 2,47,48
 699 654 699 654 780 680 c 0,49,50
 839 699 839 699 885 699 c 0,51,52
 974 699 974 699 1029 624 c 0,53,54
 1078 557 1078 557 1078 465 c 0,0,1
949 384 m 1,55,56
 949 412 949 412 893 440 c 128,-1,57
 837 468 837 468 756 468 c 2,58,-1
 714 468 l 1,59,-1
 652 459 l 1,60,-1
 623 451 l 2,61,62
 564 438 564 438 504 399 c 0,63,64
 449 364 449 364 401 317 c 128,-1,65
 353 270 353 270 283 183 c 1,66,-1
 353 183 l 1,67,-1
 392 188 l 1,68,-1
 431 190 l 1,69,-1
 480 200 l 2,70,71
 582 223 582 223 686 253 c 0,72,73
 935 328 935 328 949 384 c 1,55,56
EndSplineSet
EndChar

StartChar: afii62797
Encoding: 65220 65220 217
Width: 1261
GlyphClass: 2
Flags: W
AnchorPoint: "Anchor-3" 420 -555 basechar 0
AnchorPoint: "Anchor-2" 900 1395 basechar 0
LayerCount: 2
Fore
SplineSet
1075 351 m 1,0,1
 1061 402 1061 402 981 433 c 0,2,3
 916 458 916 458 854 458 c 0,4,5
 752 458 752 458 578.5 359 c 128,-1,6
 405 260 405 260 356 172 c 1,7,-1
 498 172 l 1,8,9
 647 197 647 197 875 249 c 1,10,11
 1008 293 1008 293 1075 351 c 1,0,1
267 232 m 0,12,13
 371 307 371 307 371 490 c 0,14,15
 371 687 371 687 343 878 c 0,16,17
 322 1022 322 1022 291 1114 c 1,18,-1
 269 1211 l 1,19,-1
 265 1246 l 1,20,-1
 262 1274 l 2,21,22
 260 1302 260 1302 293 1400 c 0,23,24
 329 1508 329 1508 371 1508 c 0,25,26
 402 1508 402 1508 405 1453 c 2,27,-1
 409 1393 l 1,28,-1
 413 1345 l 1,29,30
 420 1337 420 1337 477 1298 c 1,31,32
 528 1270 528 1270 528 1215 c 0,33,34
 528 1137 528 1137 461 1103 c 0,35,36
 434 1091 434 1091 434 1064 c 2,37,-1
 458 823 l 1,38,-1
 459 777 l 1,39,-1
 459 755 l 1,40,-1
 463 718 l 1,41,-1
 468 606 l 1,42,-1
 468 570 l 2,43,44
 466 553 466 553 463 546 c 2,45,-1
 448 470 l 1,46,-1
 441 417 l 1,47,-1
 483 417 l 1,48,-1
 671 557 l 1,49,50
 806 636 806 636 935 636 c 0,51,52
 1044 636 1044 636 1135 587 c 0,53,54
 1238 531 1238 531 1238 433 c 0,55,56
 1238 371 1238 371 1166 287 c 1,57,-1
 1124 249 l 1,58,-1
 1064 186 l 1,59,-1
 1313 186 l 1,60,-1
 1313 0 l 1,61,-1
 -38 0 l 1,62,-1
 -38 186 l 1,63,64
 92 186 92 186 179 203 c 0,65,66
 241 214 241 214 267 232 c 0,12,13
EndSplineSet
EndChar

StartChar: afii57433
Encoding: 1593 1593 222
Width: 1267
GlyphClass: 2
Flags: W
AnchorPoint: "Anchor-3" 495 -1665 basechar 0
AnchorPoint: "Anchor-2" 405 1230 basechar 0
LayerCount: 2
Fore
SplineSet
1205 -1022 m 2,0,1
 1103 -1056 1103 -1056 993 -1074 c 0,2,3
 960 -1081 960 -1081 893 -1088 c 1,4,-1
 799 -1092 l 2,5,6
 421 -1109 421 -1109 230 -925 c 0,7,8
 67 -770 67 -770 76 -487 c 2,9,-1
 78 -379 l 1,10,11
 78 -379 78 -379 78 -360 c 0,12,13
 78 -349 78 -349 80 -337 c 2,14,-1
 90 -287 l 2,15,16
 123 -105 123 -105 249 18 c 0,17,18
 311 80 311 80 311 118 c 1,19,20
 239 175 239 175 170.5 249 c 128,-1,21
 102 323 102 323 105 413 c 2,22,-1
 108 494 l 2,23,24
 109 512 109 512 120 563 c 0,25,26
 132 620 132 620 167 675 c 0,27,28
 245 802 245 802 423 825 c 1,29,-1
 455 820 l 2,30,31
 469 820 469 820 490 813 c 0,32,33
 634 778 634 778 696 694 c 1,34,-1
 669 686 l 1,35,-1
 647 679 l 1,36,-1
 605 675 l 1,37,-1
 561 676 l 1,38,-1
 529 678 l 2,39,40
 406 686 406 686 306.5 633 c 128,-1,41
 207 580 207 580 207 508 c 0,42,43
 207 435 207 435 332 357 c 0,44,45
 426 300 426 300 563 300 c 0,46,47
 594 300 594 300 637 329 c 2,48,-1
 771 419 l 1,49,-1
 888 491 l 1,50,-1
 1030 573 l 1,51,-1
 1009 417 l 1,52,53
 952 356 952 356 706 216 c 0,54,55
 454 73 454 73 356 -25 c 0,56,57
 175 -206 175 -206 175 -428 c 0,58,59
 175 -599 175 -599 375 -755 c 0,60,61
 552 -890 552 -890 767 -903 c 1,62,-1
 801 -906 l 1,63,-1
 906 -907 l 1,64,-1
 983 -911 l 1,65,-1
 1149 -907 l 1,66,-1
 1212 -904 l 1,67,-1
 1281 -899 l 1,68,-1
 1344 -892 l 2,69,70
 1358 -892 1358 -892 1366 -889 c 0,71,72
 1382 -889 1382 -889 1399 -883 c 1,73,74
 1431 -883 1431 -883 1448 -875 c 1,75,-1
 1498 -864 l 2,76,77
 1512 -861 1512 -861 1534 -876 c 1,78,-1
 1543 -888 l 1,79,80
 1519 -903 1519 -903 1480 -921 c 0,81,82
 1452 -935 1452 -935 1389 -962 c 1,83,-1
 1205 -1022 l 2,0,1
EndSplineSet
Substitution2: "'medi' Medial Forms in Arabic lookup 3 subtable" afii62803
Substitution2: "'fina' Terminal Forms in Arabic lookup 2 subtable" afii62804
Substitution2: "'init' Initial Forms in Arabic lookup 1 subtable" afii62802
EndChar

StartChar: afii62804
Encoding: 65226 65226 223
Width: 1114
GlyphClass: 2
Flags: W
AnchorPoint: "Anchor-3" 585 -1395 basechar 0
AnchorPoint: "Anchor-2" 675 960 basechar 0
LayerCount: 2
Fore
SplineSet
1042 0 m 1,0,-1
 998 4 l 1,1,-1
 959 11 l 2,2,3
 867 28 867 28 833 48 c 0,4,5
 784 76 784 76 724 136 c 0,6,7
 680 179 680 179 643 190 c 1,8,9
 626 190 626 190 528 127 c 0,10,11
 200 -84 200 -84 200 -384 c 0,12,13
 200 -623 200 -623 461 -766 c 0,14,15
 546 -812 546 -812 615 -812 c 2,16,-1
 690 -812 l 2,17,18
 724 -812 724 -812 784 -808 c 0,19,20
 857 -802 857 -802 888 -801 c 2,21,-1
 981 -798 l 1,22,-1
 1152 -790 l 2,23,24
 1191 -790 1191 -790 1191 -812 c 0,25,26
 1190 -819 1190 -819 1182 -829 c 1,27,-1
 1021 -896 l 2,28,29
 976 -916 976 -916 930 -928 c 2,30,-1
 839 -952 l 2,31,32
 756 -973 756 -973 615 -973 c 0,33,34
 375 -973 375 -973 224.5 -826 c 128,-1,35
 74 -679 74 -679 74 -441 c 0,36,37
 74 -227 74 -227 183 -46 c 0,38,39
 272 99 272 99 393 186 c 2,40,-1
 528 281 l 1,41,-1
 528 326 l 1,42,-1
 500 326 l 1,43,-1
 433 329 l 1,44,-1
 319 351 l 1,45,-1
 319 400 l 1,46,47
 396 510 396 510 491 550 c 0,48,49
 543 571 543 571 605.5 581 c 128,-1,50
 668 591 668 591 748 591 c 0,51,52
 840 591 840 591 904 557 c 0,53,54
 984 515 984 515 984 431 c 0,55,56
 984 374 984 374 892 316 c 0,57,58
 833 279 833 279 833 251 c 0,59,60
 833 230 833 230 900 186 c 1,61,-1
 1158 186 l 1,62,-1
 1158 0 l 1,63,-1
 1042 0 l 1,0,-1
EndSplineSet
EndChar

StartChar: afii62802
Encoding: 65227 65227 224
Width: 1190
GlyphClass: 2
Flags: W
AnchorPoint: "Anchor-3" 480 -570 basechar 0
AnchorPoint: "Anchor-2" 600 1110 basechar 0
LayerCount: 2
Fore
SplineSet
-27 0 m 1,0,-1
 -27 186 l 1,1,-1
 192 186 l 2,2,3
 235 186 235 186 244 190 c 2,4,-1
 266 193 l 1,5,-1
 287 199 l 2,6,7
 304 203 304 203 326 214 c 1,8,-1
 298 277 l 2,9,10
 283 311 283 311 283 392 c 0,11,12
 283 543 283 543 410 669 c 0,13,14
 529 790 529 790 665 790 c 0,15,16
 757 790 757 790 844 746 c 0,17,18
 941 699 941 699 979 622 c 1,19,-1
 963 617 l 1,20,21
 952 623 952 623 906 631 c 0,22,23
 869 638 869 638 764 638 c 0,24,25
 633 638 633 638 526.5 602 c 128,-1,26
 420 566 420 566 371 496 c 1,27,-1
 421 435 l 1,28,-1
 461 393 l 2,29,30
 575 269 575 269 738 269 c 0,31,32
 753 269 753 269 903 305 c 2,33,-1
 1002 329 l 1,34,-1
 1061 347 l 1,35,-1
 1154 388 l 1,36,-1
 1154 284 l 1,37,38
 1135 245 1135 245 1082.5 215.5 c 128,-1,39
 1030 186 1030 186 952 162 c 2,40,-1
 787 113 l 2,41,42
 652 74 652 74 508 49 c 2,43,-1
 277 7 l 1,44,-1
 227 1 l 1,45,-1
 204 1 l 1,46,-1
 181 0 l 1,47,-1
 -27 0 l 1,0,-1
EndSplineSet
EndChar

StartChar: afii62803
Encoding: 65228 65228 225
Width: 1127
GlyphClass: 2
Flags: W
AnchorPoint: "Anchor-3" 420 -540 basechar 0
AnchorPoint: "Anchor-2" 630 930 basechar 0
LayerCount: 2
Fore
SplineSet
1179 186 m 1,0,-1
 1179 0 l 1,1,-1
 1021 0 l 2,2,3
 965 0 965 0 921 11 c 0,4,5
 888 18 888 18 816 46 c 1,6,-1
 630 137 l 1,7,8
 613 137 613 137 531 99 c 2,9,-1
 377 28 l 1,10,-1
 339 14 l 1,11,-1
 297 4 l 1,12,-1
 273 0 l 1,13,-1
 245 -1 l 1,14,-1
 -21 0 l 1,15,-1
 -21 186 l 1,16,-1
 213 186 l 2,17,18
 384 186 384 186 463 224 c 0,19,20
 504 242 504 242 525 272 c 1,21,22
 490 321 490 321 421 340 c 0,23,24
 305 377 305 377 305 403 c 0,25,26
 305 468 305 468 420 536 c 0,27,28
 521 595 521 595 675 595 c 0,29,30
 969 595 969 595 969 417 c 0,31,32
 969 389 969 389 897.5 334 c 128,-1,33
 826 279 826 279 826 241 c 1,34,-1
 881 209 l 2,35,36
 917 186 917 186 949 186 c 2,37,-1
 1179 186 l 1,0,-1
EndSplineSet
EndChar

StartChar: afii57443
Encoding: 1603 1603 238
Width: 1396
GlyphClass: 2
Flags: W
AnchorPoint: "Anchor-3" 570 -510 basechar 0
AnchorPoint: "Anchor-2" 585 1080 basechar 0
LayerCount: 2
Fore
SplineSet
168 1 m 1,0,1
 99 15 99 15 74 98 c 1,2,-1
 74 234 l 1,3,4
 133 195 133 195 203.5 185.5 c 128,-1,5
 274 176 274 176 295 176 c 2,6,-1
 837 176 l 2,7,8
 890 178 890 178 973.5 185.5 c 128,-1,9
 1057 193 1057 193 1127 227 c 128,-1,10
 1197 261 1197 261 1201 314 c 1,11,-1
 1198 402 l 1,12,-1
 1118 1209 l 1,13,-1
 1098 1231 l 2,14,15
 1082 1252 1082 1252 1082 1283 c 1,16,-1
 1121 1392 l 2,17,18
 1157 1493 1157 1493 1201 1545 c 1,19,20
 1213 1391 1213 1391 1350 1343 c 1,21,-1
 1350 1256 l 1,22,-1
 1310 1188 l 1,23,-1
 1283 1141 l 2,24,25
 1265 1109 1265 1109 1261 1097 c 1,26,-1
 1330 378 l 1,27,28
 1332 248 1332 248 1294.5 181.5 c 128,-1,29
 1257 115 1257 115 1227 89 c 0,30,31
 1205 69 1205 69 1124.5 35.5 c 128,-1,32
 1044 2 1044 2 913 -1 c 2,33,-1
 168 1 l 1,0,1
713 675 m 0,34,35
 689 672 689 672 661 672 c 0,36,37
 613 672 613 672 598 667 c 0,38,39
 566 657 566 657 534 618 c 1,40,-1
 506 618 l 1,41,-1
 518 654 l 1,42,-1
 534 665 l 1,43,-1
 549 678 l 1,44,-1
 511 702 l 2,45,46
 483 720 483 720 483 732 c 0,47,48
 483 781 483 781 554.5 836 c 128,-1,49
 626 891 626 891 678 891 c 0,50,51
 693 891 693 891 714 876 c 128,-1,52
 735 861 735 861 735 849 c 0,53,54
 735 832 735 832 711.5 815 c 128,-1,55
 688 798 688 798 671 798 c 1,56,-1
 653 805 l 2,57,58
 633 814 633 814 615 814 c 0,59,60
 585 814 585 814 566 791 c 1,61,62
 574 758 574 758 658 746 c 1,63,-1
 742 745 l 2,64,65
 752 745 752 745 762 749 c 2,66,-1
 794 765 l 1,67,-1
 797 745 l 1,68,-1
 797 728 l 2,69,70
 798 710 798 710 788.5 700 c 128,-1,71
 779 690 779 690 713 675 c 0,34,35
EndSplineSet
Substitution2: "'medi' Medial Forms in Arabic lookup 3 subtable" afii52306
Substitution2: "'fina' Terminal Forms in Arabic lookup 2 subtable" afii62816
Substitution2: "'init' Initial Forms in Arabic lookup 1 subtable" afii52305
EndChar

StartChar: afii62816
Encoding: 65242 65242 239
Width: 1700
GlyphClass: 2
Flags: W
AnchorPoint: "Anchor-3" 570 -540 basechar 0
AnchorPoint: "Anchor-2" 705 1110 basechar 0
LayerCount: 2
Fore
SplineSet
1433 346 m 0,0,1
 1440 312 1440 312 1456 280 c 1,2,-1
 1457 279 l 1,3,4
 1469 259 1469 259 1485 241 c 0,5,6
 1550 186 1550 186 1763 186 c 1,7,-1
 1763 0 l 1,8,-1
 1576 0 l 1,9,10
 1453 38 1453 38 1399 115 c 1,11,12
 1358 213 1358 213 1326 265 c 1,13,14
 1270 216 1270 216 1239 193 c 2,15,-1
 1152 130 l 2,16,17
 1079 77 1079 77 959 38 c 0,18,19
 890 17 890 17 841 10 c 2,20,-1
 783 3 l 1,21,-1
 718 0 l 1,22,-1
 518 0 l 2,23,24
 262 0 262 0 162 76 c 0,25,26
 74 141 74 141 74 309 c 0,27,28
 74 483 74 483 183 623 c 1,29,-1
 228 623 l 1,30,-1
 206 566 l 1,31,-1
 188 503 l 2,32,33
 160 410 160 410 160 368 c 0,34,35
 160 249 160 249 284 189 c 0,36,37
 375 146 375 146 559 146 c 1,38,39
 700 141 700 141 821 161 c 128,-1,40
 942 181 942 181 1112 269 c 1,41,42
 1207 305 1207 305 1274 351 c 0,43,44
 1282 356 1282 356 1291 363 c 1,45,-1
 1246 836 l 1,46,-1
 1236 977 l 1,47,-1
 1223 1132 l 1,48,-1
 1219 1212 l 1,49,-1
 1216 1341 l 1,50,51
 1278 1473 1278 1473 1329 1464 c 1,52,-1
 1368 1025 l 1,53,-1
 1385 784 l 1,54,55
 1403 451 1403 451 1433 346 c 0,0,1
797 739 m 0,56,57
 773 736 773 736 745 736 c 0,58,59
 697 736 697 736 682 731 c 0,60,61
 650 721 650 721 618 682 c 1,62,-1
 590 682 l 1,63,-1
 602 718 l 1,64,-1
 618 729 l 1,65,-1
 633 742 l 1,66,-1
 595 766 l 2,67,68
 567 784 567 784 567 796 c 0,69,70
 567 845 567 845 638.5 900 c 128,-1,71
 710 955 710 955 762 955 c 0,72,73
 777 955 777 955 798 940 c 128,-1,74
 819 925 819 925 819 913 c 0,75,76
 819 896 819 896 795.5 879 c 128,-1,77
 772 862 772 862 755 862 c 1,78,-1
 737 869 l 2,79,80
 717 878 717 878 699 878 c 0,81,82
 669 878 669 878 650 855 c 1,83,84
 658 822 658 822 742 810 c 1,85,-1
 826 809 l 2,86,87
 836 809 836 809 846 813 c 2,88,-1
 878 829 l 1,89,-1
 881 809 l 1,90,-1
 881 792 l 2,91,92
 882 774 882 774 872.5 764 c 128,-1,93
 863 754 863 754 797 739 c 0,56,57
EndSplineSet
EndChar

StartChar: afii57444
Encoding: 1604 1604 242
Width: 1087
GlyphClass: 2
Flags: W
AnchorPoint: "Anchor-3" 450 -930 basechar 0
AnchorPoint: "Anchor-2" 600 1530 basechar 0
LayerCount: 2
Fore
SplineSet
1056 1267 m 0,0,1
 1056 1232 1056 1232 1049 1212 c 2,2,-1
 1036 1184 l 2,3,4
 1030 1175 1030 1175 1018 1155 c 0,5,6
 983 1102 983 1102 984 1091 c 2,7,-1
 986 1081 l 1,8,-1
 1043 196 l 2,9,10
 1044 167 1044 167 1039 94 c 0,11,12
 1036 49 1036 49 1026 -4 c 0,13,14
 1002 -139 1002 -139 956 -195 c 0,15,16
 925 -231 925 -231 861 -281 c 1,17,18
 804 -318 804 -318 731 -358 c 1,19,20
 598 -416 598 -416 508 -416 c 0,21,22
 277 -416 277 -416 175.5 -318 c 128,-1,23
 74 -220 74 -220 74 -83 c 2,24,-1
 74 -45 l 2,25,26
 74 -34 74 -34 77 -20 c 0,27,28
 80 8 80 8 92 45 c 2,29,-1
 109 88 l 1,30,-1
 132 136 l 1,31,-1
 158 188 l 1,32,-1
 195 249 l 1,33,-1
 265 252 l 1,34,-1
 266 175 l 1,35,36
 253 155 253 155 225 74 c 0,37,38
 206 17 206 17 203 -4 c 0,39,40
 203 -41 203 -41 231 -76 c 0,41,42
 302 -164 302 -164 430 -193 c 0,43,44
 486 -206 486 -206 525 -206 c 2,45,-1
 568 -206 l 2,46,47
 616 -206 616 -206 727 -154 c 0,48,49
 844 -101 844 -101 921 -15 c 1,50,-1
 846 1022 l 2,51,52
 846 1064 846 1064 816.5 1153.5 c 128,-1,53
 787 1243 787 1243 787 1275 c 0,54,55
 787 1289 787 1289 798 1322 c 2,56,-1
 813 1357 l 1,57,-1
 836 1403 l 2,58,59
 860 1452 860 1452 882 1470 c 1,60,61
 903 1495 903 1495 939 1520 c 1,62,63
 939 1501 939 1501 942 1478 c 2,64,-1
 948 1442 l 2,65,66
 951 1418 951 1418 960 1392 c 0,67,68
 974 1348 974 1348 1015 1333 c 0,69,70
 1051 1319 1051 1319 1056 1267 c 0,0,1
EndSplineSet
Substitution2: "'medi' Medial Forms in Arabic lookup 3 subtable" afii62818
Substitution2: "'fina' Terminal Forms in Arabic lookup 2 subtable" afii62819
Substitution2: "'init' Initial Forms in Arabic lookup 1 subtable" afii62817
EndChar

StartChar: afii62817
Encoding: 65247 65247 243
Width: 419
GlyphClass: 2
Flags: W
AnchorPoint: "Anchor-3" 180 -525 basechar 0
AnchorPoint: "Anchor-2" 120 1650 basechar 0
LayerCount: 2
Fore
SplineSet
379 1222 m 1,0,-1
 339 1154 l 1,1,-1
 312 1107 l 2,2,3
 294 1075 294 1075 290 1063 c 1,4,-1
 364 344 l 2,5,6
 367 300 367 300 354 253 c 2,7,-1
 339 193 l 2,8,9
 336 167 336 167 328 153 c 1,10,11
 325 139 325 139 319 133 c 2,12,-1
 307 113 l 2,13,14
 286 81 286 81 256 55 c 0,15,16
 234 35 234 35 183 20 c 2,17,-1
 139 6 l 1,18,-1
 112 1 l 1,19,-1
 80 -1 l 1,20,-1
 43 -1 l 1,21,-1
 13 0 l 1,22,-1
 -24 0 l 1,23,-1
 -24 186 l 1,24,-1
 105 186 l 1,25,-1
 127 190 l 2,26,27
 137 192 137 192 147 199 c 2,28,-1
 171 214 l 1,29,-1
 207 242 l 2,30,31
 224 259 224 259 230 280 c 1,32,-1
 227 368 l 1,33,-1
 147 1175 l 1,34,-1
 127 1197 l 2,35,36
 111 1218 111 1218 111 1249 c 1,37,-1
 150 1358 l 2,38,39
 186 1459 186 1459 230 1511 c 1,40,-1
 253 1467 l 1,41,-1
 267 1414 l 2,42,43
 290 1333 290 1333 379 1309 c 1,44,-1
 379 1222 l 1,0,-1
EndSplineSet
EndChar

StartChar: afii62818
Encoding: 65248 65248 244
Width: 640
GlyphClass: 2
Flags: W
AnchorPoint: "Anchor-3" 225 -510 basechar 0
AnchorPoint: "Anchor-2" 270 1665 basechar 0
LayerCount: 2
Fore
SplineSet
689 186 m 1,0,-1
 689 0 l 1,1,-1
 616 0 l 1,2,-1
 531 1 l 1,3,-1
 517 3 l 2,4,5
 473 10 473 10 461 18 c 2,6,-1
 447 27 l 1,7,-1
 424 46 l 1,8,-1
 412 64 l 1,9,-1
 395 92 l 1,10,-1
 328 217 l 1,11,12
 223 90 223 90 207 74 c 0,13,14
 129 0 129 0 -21 0 c 1,15,-1
 -21 186 l 1,16,17
 130 186 130 186 148 217 c 1,18,19
 186 249 186 249 206 272 c 0,20,21
 256 332 256 332 253 379 c 2,22,-1
 249 469 l 1,23,-1
 245 606 l 1,24,-1
 234 743 l 1,25,-1
 227 874 l 1,26,-1
 217 1015 l 1,27,-1
 204 1170 l 1,28,-1
 200 1250 l 1,29,-1
 197 1379 l 2,30,31
 196 1407 196 1407 217 1436 c 2,32,-1
 225 1450 l 1,33,-1
 241 1469 l 1,34,-1
 274 1502 l 1,35,-1
 329 1502 l 1,36,-1
 328 1484 l 1,37,-1
 328 1455 l 1,38,-1
 337 1235 l 1,39,40
 337 1235 337 1235 337 1184 c 0,41,42
 337 1161 337 1161 340 1142 c 2,43,-1
 349 1063 l 1,44,-1
 353 1018 l 1,45,-1
 360 960 l 1,46,-1
 374 822 l 1,47,-1
 396 533 l 1,48,-1
 406 451 l 1,49,-1
 420 384 l 2,50,51
 430 335 430 335 461 291 c 0,52,53
 536 186 536 186 689 186 c 1,0,-1
EndSplineSet
EndChar

StartChar: afii57445
Encoding: 1605 1605 245
Width: 818
GlyphClass: 2
Flags: W
AnchorPoint: "Anchor-3" 495 -1095 basechar 0
AnchorPoint: "Anchor-2" 495 675 basechar 0
LayerCount: 2
Fore
SplineSet
753 160 m 2,0,-1
 753 127 l 1,1,-1
 755 98 l 1,2,3
 757 10 757 10 696 7 c 2,4,-1
 602 4 l 1,5,-1
 526 0 l 1,6,-1
 461 -7 l 1,7,-1
 325 -20 l 2,8,9
 181 -32 181 -32 181 -133 c 1,10,-1
 239 -651 l 1,11,12
 239 -855 239 -855 231 -920 c 1,13,-1
 230 -952 l 1,14,-1
 224 -987 l 1,15,-1
 214 -1056 l 1,16,-1
 148 -1056 l 1,17,-1
 74 -255 l 1,18,19
 74 -25 74 -25 154 63 c 0,20,21
 188 101 188 101 269 126 c 0,22,23
 298 136 298 136 449 160 c 1,24,-1
 444 178 l 2,25,26
 441 195 441 195 437 202 c 2,27,-1
 426 217 l 1,28,-1
 406 224 l 1,29,-1
 377 228 l 2,30,31
 357 228 357 228 316 217 c 2,32,-1
 276 207 l 1,33,-1
 242 197 l 1,34,35
 213 197 213 197 213 225 c 0,36,37
 213 293 213 293 298 357 c 0,38,39
 379 417 379 417 449 417 c 0,40,41
 514 417 514 417 636 326 c 0,42,43
 753 239 753 239 753 160 c 2,0,-1
EndSplineSet
Substitution2: "'medi' Medial Forms in Arabic lookup 3 subtable" afii62821
Substitution2: "'fina' Terminal Forms in Arabic lookup 2 subtable" afii62822
Substitution2: "'init' Initial Forms in Arabic lookup 1 subtable" afii62820
EndChar

StartChar: afii62822
Encoding: 65250 65250 246
Width: 1110
GlyphClass: 2
Flags: W
AnchorPoint: "Anchor-3" 615 -1170 basechar 0
AnchorPoint: "Anchor-2" 495 570 basechar 0
LayerCount: 2
Fore
SplineSet
74 -137 m 1,0,-1
 78 -71 l 2,1,2
 78 -50 78 -50 94 -13 c 0,3,4
 171 192 171 192 440 284 c 2,5,-1
 482 298 l 1,6,-1
 529 312 l 1,7,-1
 633 336 l 1,8,-1
 686 293 l 2,9,10
 753 238 753 238 829 211 c 2,11,-1
 872 196 l 2,12,13
 888 190 888 190 923 186 c 1,14,-1
 1155 186 l 1,15,-1
 1155 0 l 1,16,-1
 885 1 l 1,17,-1
 858 6 l 1,18,-1
 829 15 l 1,19,20
 801 15 801 15 795 -34 c 0,21,22
 794 -70 794 -70 791 -105 c 2,23,-1
 785 -151 l 1,24,-1
 778 -181 l 2,25,26
 778 -188 778 -188 777 -189 c 0,27,28
 766 -207 766 -207 735 -213 c 1,29,30
 601 -200 601 -200 539 -116 c 0,31,32
 528 -97 528 -97 507 20 c 0,33,34
 490 108 490 108 454 108 c 0,35,36
 447 108 447 108 427 104 c 2,37,-1
 316 80 l 2,38,39
 253 66 253 66 211 6 c 0,40,41
 174 -46 174 -46 174 -116 c 1,42,-1
 234 -658 l 1,43,44
 234 -862 234 -862 225 -925 c 1,45,-1
 225 -956 l 1,46,-1
 218 -991 l 1,47,-1
 209 -1058 l 1,48,-1
 143 -1058 l 1,49,-1
 74 -137 l 1,0,-1
EndSplineSet
EndChar

StartChar: afii62820
Encoding: 65251 65251 247
Width: 884
GlyphClass: 2
Flags: W
AnchorPoint: "Anchor-3" 405 -525 basechar 0
AnchorPoint: "Anchor-2" 495 870 basechar 0
LayerCount: 2
Fore
SplineSet
830 0 m 1,0,-1
 722 0 l 2,1,2
 655 0 655 0 567 31 c 0,3,4
 470 64 470 64 389 130 c 1,5,6
 330 57 330 57 266 28 c 0,7,8
 209 1 209 1 95 0 c 2,9,-1
 1 -1 l 1,10,-1
 -15 0 l 1,11,-1
 -15 188 l 1,12,-1
 87 188 l 1,13,-1
 139 189 l 1,14,-1
 174 196 l 2,15,16
 232 209 232 209 297 270 c 0,17,18
 330 301 330 301 353 332 c 0,19,20
 421 428 421 428 508 491 c 0,21,22
 532 508 532 508 582 535 c 0,23,24
 616 553 616 553 659 567 c 1,25,-1
 724 463 l 1,26,-1
 774 372 l 2,27,28
 792 337 792 337 815 266 c 0,29,30
 830 217 830 217 830 181 c 2,31,-1
 830 0 l 1,0,-1
711 174 m 1,32,33
 692 281 692 281 608 392 c 1,34,35
 557 379 557 379 524 344 c 0,36,37
 501 323 501 323 469 272 c 1,38,39
 553 181 553 181 703 160 c 1,40,-1
 711 174 l 1,32,33
EndSplineSet
EndChar

StartChar: afii57446
Encoding: 1606 1606 248
Width: 1120
GlyphClass: 2
Flags: W
AnchorPoint: "Anchor-3" 525 -840 basechar 0
AnchorPoint: "Anchor-2" 450 1005 basechar 0
LayerCount: 2
Fore
SplineSet
1064 104 m 0,0,1
 1064 -115 1064 -115 850 -237 c 0,2,3
 672 -339 672 -339 414 -339 c 0,4,5
 228 -339 228 -339 143 -255 c 0,6,7
 74 -189 74 -189 74 -45 c 0,8,9
 74 48 74 48 91 105 c 0,10,11
 109 174 109 174 178 280 c 1,12,-1
 221 280 l 1,13,-1
 221 207 l 1,14,-1
 185 147 l 2,15,16
 147 85 147 85 147 29 c 0,17,18
 147 -29 147 -29 235 -97 c 0,19,20
 340 -176 340 -176 518 -176 c 0,21,22
 554 -176 554 -176 619 -162 c 0,23,24
 623 -162 623 -162 678 -147 c 2,25,-1
 745 -130 l 1,26,-1
 785 -115 l 2,27,28
 988 -42 988 -42 988 29 c 0,29,30
 988 48 988 48 949 115 c 2,31,-1
 869 246 l 2,32,33
 827 316 827 316 827 339 c 0,34,35
 827 356 827 356 833 378 c 2,36,-1
 843 400 l 1,37,-1
 861 430 l 2,38,39
 895 487 895 487 917 487 c 0,40,41
 956 487 956 487 1007 333 c 2,42,-1
 1030 260 l 1,43,-1
 1049 199 l 2,44,45
 1064 150 1064 150 1064 104 c 0,0,1
629 729 m 1,46,-1
 518 588 l 1,47,-1
 371 693 l 1,48,-1
 465 843 l 1,49,-1
 629 729 l 1,46,-1
EndSplineSet
Substitution2: "'medi' Medial Forms in Arabic lookup 3 subtable" afii62824
Substitution2: "'fina' Terminal Forms in Arabic lookup 2 subtable" afii62825
Substitution2: "'init' Initial Forms in Arabic lookup 1 subtable" afii62823
EndChar

StartChar: afii62825
Encoding: 65254 65254 249
Width: 1420
GlyphClass: 2
Flags: W
AnchorPoint: "Anchor-3" 540 -1140 basechar 0
AnchorPoint: "Anchor-2" 645 915 basechar 0
LayerCount: 2
Fore
SplineSet
1469 189 m 1,0,-1
 1469 3 l 1,1,-1
 1326 3 l 2,2,3
 1295 3 1295 3 1278 -10 c 2,4,-1
 1264 -21 l 2,5,6
 1253 -29 1253 -29 1242 -52 c 1,7,-1
 1238 -104 l 1,8,-1
 1239 -167 l 2,9,10
 1245 -302 1245 -302 1127 -405 c 0,11,12
 1028 -489 1028 -489 913 -553 c 0,13,14
 874 -574 874 -574 830 -588 c 2,15,-1
 790 -601 l 1,16,-1
 738 -613 l 1,17,-1
 666 -622 l 1,18,-1
 577 -624 l 1,19,20
 361 -633 361 -633 213 -515 c 0,21,22
 74 -405 74 -405 74 -227 c 0,23,24
 74 -148 74 -148 88 -70 c 0,25,26
 94 -36 94 -36 115 7 c 2,27,-1
 193 143 l 1,28,-1
 253 143 l 1,29,30
 252 139 252 139 193 -17 c 2,31,-1
 171 -78 l 1,32,-1
 167 -108 l 1,33,-1
 164 -137 l 1,34,35
 154 -277 154 -277 305 -350 c 0,36,37
 419 -405 419 -405 608 -405 c 0,38,39
 640 -405 640 -405 752 -385 c 0,40,41
 1166 -318 1166 -318 1166 -167 c 0,42,43
 1166 -81 1166 -81 1114 20 c 2,44,-1
 1050 144 l 1,45,46
 1043 171 1043 171 1074 227 c 0,47,48
 1102 279 1102 279 1127 298 c 1,49,-1
 1155 266 l 1,50,-1
 1200 225 l 2,51,52
 1219 206 1219 206 1257 189 c 1,53,-1
 1469 189 l 1,0,-1
815 546 m 1,54,-1
 708 405 l 1,55,-1
 557 510 l 1,56,-1
 651 659 l 1,57,-1
 815 546 l 1,54,-1
EndSplineSet
EndChar

StartChar: afii62828
Encoding: 65258 65258 253
Width: 895
GlyphClass: 2
Flags: W
AnchorPoint: "Anchor-3" 360 -510 basechar 0
AnchorPoint: "Anchor-2" 300 870 basechar 0
LayerCount: 2
Fore
SplineSet
941 0 m 1,0,-1
 816 0 l 2,1,2
 780 0 780 0 766 3 c 2,3,-1
 729 18 l 2,4,5
 710 27 710 27 690 46 c 0,6,7
 679 57 679 57 655 95 c 1,8,-1
 585 252 l 1,9,-1
 469 171 l 2,10,11
 399 122 399 122 297 122 c 0,12,13
 234 122 234 122 167 137 c 0,14,15
 74 161 74 161 74 195 c 0,16,17
 74 309 74 309 197 410 c 0,18,19
 260 462 260 462 424 546 c 0,20,21
 547 610 547 610 547 638 c 1,22,-1
 532 664 l 2,23,24
 524 679 524 679 510 736 c 0,25,26
 507 760 507 760 529 815 c 2,27,-1
 554 874 l 1,28,-1
 608 874 l 1,29,30
 624 818 624 818 636 745 c 2,31,-1
 668 547 l 2,32,33
 701 347 701 347 725 301 c 2,34,-1
 769 220 l 1,35,36
 795 186 795 186 850 186 c 2,37,-1
 941 186 l 1,38,-1
 941 0 l 1,0,-1
563 358 m 1,39,40
 574 391 574 391 574 409 c 0,41,42
 574 428 574 428 552 442 c 1,43,-1
 503 449 l 1,44,-1
 393 409 l 2,45,46
 384 406 384 406 368 399 c 0,47,48
 283 364 283 364 283 329 c 1,49,-1
 284 321 l 1,50,-1
 308 322 l 2,51,52
 318 323 318 323 335 318 c 2,53,-1
 354 314 l 1,54,55
 511 314 511 314 563 358 c 1,39,40
EndSplineSet
EndChar

StartChar: afii57448
Encoding: 1608 1608 254
Width: 836
GlyphClass: 2
Flags: W
AnchorPoint: "Anchor-3" 405 -975 basechar 0
AnchorPoint: "Anchor-2" 615 660 basechar 0
LayerCount: 2
Fore
SplineSet
690 1 m 1,0,-1
 508 21 l 1,1,2
 372 53 372 53 372 160 c 0,3,4
 372 217 372 217 448 323 c 0,5,6
 534 447 534 447 624 447 c 0,7,8
 683 447 683 447 750 316 c 0,9,10
 800 221 800 221 800 101 c 0,11,12
 800 -20 800 -20 701 -171 c 0,13,14
 617 -298 617 -298 506 -389 c 0,15,16
 369 -501 369 -501 240 -519 c 1,17,18
 123 -503 123 -503 39.5 -455 c 128,-1,19
 -44 -407 -44 -407 -82 -357 c 1,20,-1
 -87 -343 l 2,21,22
 -87 -332 -87 -332 -44 -332 c 2,23,-1
 -12 -332 l 1,24,-1
 88 -350 l 2,25,26
 138 -360 138 -360 170 -360 c 0,27,28
 235 -360 235 -360 309 -333 c 0,29,30
 485 -269 485 -269 690 1 c 1,0,-1
679 164 m 1,31,32
 672 197 672 197 635 241 c 0,33,34
 603 279 603 279 588 279 c 0,35,36
 499 279 499 279 499 200 c 1,37,-1
 502 179 l 1,38,-1
 522 169 l 1,39,-1
 548 157 l 1,40,41
 576 150 576 150 607 151 c 2,42,-1
 642 151 l 1,43,-1
 659 155 l 1,44,-1
 679 164 l 1,31,32
EndSplineSet
Substitution2: "'fina' Terminal Forms in Arabic lookup 2 subtable" afii62829
PairPos2: "'kern' Horizontal Kerning in Arabic lookup 0 subtable" uniFBFE dx=0 dy=0 dh=0 dv=0 dx=0 dy=0 dh=100 dv=0
PairPos2: "'kern' Horizontal Kerning in Arabic lookup 0 subtable" afii62840 dx=0 dy=0 dh=0 dv=0 dx=0 dy=0 dh=-200 dv=0
PairPos2: "'kern' Horizontal Kerning in Arabic lookup 0 subtable" afii62838 dx=0 dy=0 dh=0 dv=0 dx=0 dy=0 dh=-200 dv=0
PairPos2: "'kern' Horizontal Kerning in Arabic lookup 0 subtable" afii62836 dx=0 dy=0 dh=0 dv=0 dx=0 dy=0 dh=-200 dv=0
PairPos2: "'kern' Horizontal Kerning in Arabic lookup 0 subtable" afii62834 dx=0 dy=0 dh=0 dv=0 dx=0 dy=0 dh=-200 dv=0
PairPos2: "'kern' Horizontal Kerning in Arabic lookup 0 subtable" afii62831 dx=0 dy=0 dh=0 dv=0 dx=0 dy=0 dh=100 dv=0
PairPos2: "'kern' Horizontal Kerning in Arabic lookup 0 subtable" afii57410 dx=0 dy=0 dh=0 dv=0 dx=0 dy=0 dh=-200 dv=0
PairPos2: "'kern' Horizontal Kerning in Arabic lookup 0 subtable" afii57434 dx=0 dy=0 dh=0 dv=0 dx=0 dy=0 dh=-100 dv=0
PairPos2: "'kern' Horizontal Kerning in Arabic lookup 0 subtable" afii57433 dx=0 dy=0 dh=0 dv=0 dx=0 dy=0 dh=-100 dv=0
PairPos2: "'kern' Horizontal Kerning in Arabic lookup 0 subtable" afii62761 dx=0 dy=0 dh=0 dv=0 dx=0 dy=0 dh=100 dv=0
PairPos2: "'kern' Horizontal Kerning in Arabic lookup 0 subtable" afii57413 dx=0 dy=0 dh=0 dv=0 dx=0 dy=0 dh=130 dv=0
PairPos2: "'kern' Horizontal Kerning in Arabic lookup 0 subtable" afii62965 dx=0 dy=0 dh=0 dv=0 dx=0 dy=0 dh=-200 dv=0
PairPos2: "'kern' Horizontal Kerning in Arabic lookup 0 subtable" afii57509 dx=0 dy=0 dh=0 dv=0 dx=0 dy=0 dh=-200 dv=0
PairPos2: "'kern' Horizontal Kerning in Arabic lookup 0 subtable" afii52305 dx=0 dy=0 dh=0 dv=0 dx=0 dy=0 dh=-200 dv=0
PairPos2: "'kern' Horizontal Kerning in Arabic lookup 0 subtable" afii57567 dx=0 dy=0 dh=0 dv=0 dx=0 dy=0 dh=-200 dv=0
PairPos2: "'kern' Horizontal Kerning in Arabic lookup 0 subtable" afii62956 dx=0 dy=0 dh=0 dv=0 dx=0 dy=0 dh=100 dv=0
EndChar

StartChar: afii62829
Encoding: 65262 65262 255
Width: 977
GlyphClass: 2
Flags: W
AnchorPoint: "Anchor-3" 375 -1050 basechar 0
AnchorPoint: "Anchor-2" 585 735 basechar 0
LayerCount: 2
Fore
SplineSet
273 -359 m 0,0,1
 323 -350 323 -350 406 -308 c 0,2,3
 557 -231 557 -231 645 -103 c 0,4,5
 671 -67 671 -67 697 -1 c 1,6,-1
 512 -2 l 2,7,8
 449 -4 449 -4 414 41 c 0,9,10
 381 82 381 82 381 157 c 1,11,12
 388 258 388 258 482 362 c 1,13,14
 568 450 568 450 610 450 c 0,15,16
 668 450 668 450 745 360 c 128,-1,17
 822 270 822 270 846 187 c 1,18,-1
 1015 187 l 1,19,-1
 1015 0 l 1,20,-1
 838 0 l 1,21,22
 832 -23 832 -23 763 -145 c 1,23,24
 538 -513 538 -513 256 -513 c 0,25,26
 158 -513 158 -513 45 -457 c 0,27,28
 -77 -399 -77 -399 -77 -326 c 1,29,30
 138 -377 138 -377 273 -359 c 0,0,1
668 187 m 1,31,32
 668 233 668 233 647.5 262.5 c 128,-1,33
 627 292 627 292 589 292 c 1,34,35
 524 270 524 270 508 185 c 1,36,-1
 668 187 l 1,31,32
EndSplineSet
PairPos2: "'kern' Horizontal Kerning in Arabic lookup 0 subtable" uniFBFE dx=0 dy=0 dh=0 dv=0 dx=0 dy=0 dh=100 dv=0
PairPos2: "'kern' Horizontal Kerning in Arabic lookup 0 subtable" afii62840 dx=0 dy=0 dh=0 dv=0 dx=0 dy=0 dh=-200 dv=0
PairPos2: "'kern' Horizontal Kerning in Arabic lookup 0 subtable" afii62838 dx=0 dy=0 dh=0 dv=0 dx=0 dy=0 dh=-200 dv=0
PairPos2: "'kern' Horizontal Kerning in Arabic lookup 0 subtable" afii62836 dx=0 dy=0 dh=0 dv=0 dx=0 dy=0 dh=-200 dv=0
PairPos2: "'kern' Horizontal Kerning in Arabic lookup 0 subtable" afii62834 dx=0 dy=0 dh=0 dv=0 dx=0 dy=0 dh=-200 dv=0
PairPos2: "'kern' Horizontal Kerning in Arabic lookup 0 subtable" afii62831 dx=0 dy=0 dh=0 dv=0 dx=0 dy=0 dh=100 dv=0
PairPos2: "'kern' Horizontal Kerning in Arabic lookup 0 subtable" afii57410 dx=0 dy=0 dh=0 dv=0 dx=0 dy=0 dh=-200 dv=0
PairPos2: "'kern' Horizontal Kerning in Arabic lookup 0 subtable" afii57434 dx=0 dy=0 dh=0 dv=0 dx=0 dy=0 dh=-100 dv=0
PairPos2: "'kern' Horizontal Kerning in Arabic lookup 0 subtable" afii57433 dx=0 dy=0 dh=0 dv=0 dx=0 dy=0 dh=-100 dv=0
PairPos2: "'kern' Horizontal Kerning in Arabic lookup 0 subtable" afii62761 dx=0 dy=0 dh=0 dv=0 dx=0 dy=0 dh=100 dv=0
PairPos2: "'kern' Horizontal Kerning in Arabic lookup 0 subtable" afii57413 dx=0 dy=0 dh=0 dv=0 dx=0 dy=0 dh=120 dv=0
PairPos2: "'kern' Horizontal Kerning in Arabic lookup 0 subtable" afii62965 dx=0 dy=0 dh=0 dv=0 dx=0 dy=0 dh=-200 dv=0
PairPos2: "'kern' Horizontal Kerning in Arabic lookup 0 subtable" afii57509 dx=0 dy=0 dh=0 dv=0 dx=0 dy=0 dh=-200 dv=0
PairPos2: "'kern' Horizontal Kerning in Arabic lookup 0 subtable" afii52305 dx=0 dy=0 dh=0 dv=0 dx=0 dy=0 dh=-200 dv=0
PairPos2: "'kern' Horizontal Kerning in Arabic lookup 0 subtable" afii57567 dx=0 dy=0 dh=0 dv=0 dx=0 dy=0 dh=-200 dv=0
PairPos2: "'kern' Horizontal Kerning in Arabic lookup 0 subtable" afii62956 dx=0 dy=0 dh=0 dv=0 dx=0 dy=0 dh=100 dv=0
EndChar

StartChar: afii62840
Encoding: 65275 65275 268
Width: 1481
GlyphClass: 3
Flags: W
AnchorPoint: "Anchor-1" 1140 -405 baselig 0
AnchorPoint: "Anchor-0" 1185 1635 baselig 0
AnchorPoint: "Anchor-1" 675 -495 baselig 1
AnchorPoint: "Anchor-0" 195 1485 baselig 1
LayerCount: 2
Fore
SplineSet
1008 266 m 1,0,-1
 960 232 l 2,1,2
 955 227 955 227 917 158 c 1,3,-1
 1049 151 l 1,4,5
 1060 167 1060 167 1060 192 c 256,6,7
 1060 217 1060 217 1035 244 c 1,8,-1
 1008 266 l 1,0,-1
683 7 m 2,9,10
 637 6 637 6 618 28 c 128,-1,11
 599 50 599 50 599 88 c 0,12,13
 599 112 599 112 602 120 c 2,14,-1
 612 158 l 1,15,-1
 627 216 l 1,16,17
 638 214 638 214 686 189 c 1,18,-1
 721 179 l 1,19,20
 738 179 738 179 750 183 c 0,21,22
 799 196 799 196 888 279.5 c 128,-1,23
 977 363 977 363 977 406 c 1,24,-1
 981 417 l 1,25,-1
 987 437 l 1,26,-1
 984 449 l 1,27,28
 939 486 939 486 876 545 c 1,29,30
 759 682 759 682 659 778 c 2,31,-1
 599 836 l 1,32,-1
 547 882 l 2,33,34
 459 962 459 962 395 970 c 2,35,-1
 354 974 l 1,36,-1
 312 977 l 2,37,38
 280 979 280 979 221 986 c 1,39,40
 185 995 185 995 153 1014 c 0,41,42
 81 1057 81 1057 78 1176 c 2,43,-1
 77 1252 l 1,44,-1
 74 1264 l 1,45,46
 74 1316 74 1316 141 1316 c 0,47,48
 280 1316 280 1316 494 1128 c 0,49,50
 617 1021 617 1021 840 766 c 0,51,52
 1029 549 1029 549 1063 525 c 1,53,-1
 1112 771 l 1,54,-1
 1126 832 l 1,55,-1
 1135 879 l 2,56,57
 1142 914 1142 914 1141 938 c 2,58,-1
 1137 1065 l 1,59,-1
 1135 1267 l 2,60,61
 1134 1362 1134 1362 1186 1429 c 0,62,63
 1215 1469 1215 1469 1280 1502 c 1,64,-1
 1281 1491 l 1,65,-1
 1281 1481 l 1,66,-1
 1278 1415 l 2,67,68
 1281 1403 1281 1403 1299 1375 c 1,69,-1
 1320 1350 l 2,70,71
 1354 1309 1354 1309 1368 1273 c 2,72,-1
 1382 1238 l 1,73,74
 1382 1176 1382 1176 1347 1135 c 1,75,-1
 1256 1057 l 1,76,-1
 1249 970 l 1,77,-1
 1239 890 l 1,78,-1
 1229 827 l 1,79,-1
 1204 707 l 1,80,-1
 1191 658 l 1,81,-1
 1175 603 l 2,82,83
 1168 580 1168 580 1158 561 c 0,84,85
 1154 547 1154 547 1120 484 c 2,86,-1
 1098 441 l 1,87,-1
 1107 410 l 1,88,-1
 1154 294 l 2,89,90
 1177 235 1177 235 1177 186 c 0,91,92
 1177 6 1177 6 1068 11 c 1,93,-1
 1050 13 l 1,94,-1
 683 7 l 2,9,10
EndSplineSet
Ligature2: "'rlig' Required Ligatures in Arabic lookup 6 subtable" afii62817 afii62760
Substitution2: "'fina' Terminal Forms in Arabic lookup 2 subtable" afii62841
PairPos2: "'kern' Horizontal Kerning in Arabic lookup 0 subtable" uniFBFE dx=0 dy=0 dh=0 dv=0 dx=0 dy=0 dh=-100 dv=0
PairPos2: "'kern' Horizontal Kerning in Arabic lookup 0 subtable" afii62831 dx=0 dy=0 dh=0 dv=0 dx=0 dy=0 dh=-100 dv=0
PairPos2: "'kern' Horizontal Kerning in Arabic lookup 0 subtable" afii57450 dx=0 dy=0 dh=0 dv=0 dx=0 dy=0 dh=-100 dv=0
PairPos2: "'kern' Horizontal Kerning in Arabic lookup 0 subtable" afii57449 dx=0 dy=0 dh=0 dv=0 dx=0 dy=0 dh=-100 dv=0
PairPos2: "'kern' Horizontal Kerning in Arabic lookup 0 subtable" afii57448 dx=0 dy=0 dh=0 dv=0 dx=0 dy=0 dh=-200 dv=0
PairPos2: "'kern' Horizontal Kerning in Arabic lookup 0 subtable" afii62823 dx=0 dy=0 dh=0 dv=0 dx=0 dy=0 dh=-80 dv=0
PairPos2: "'kern' Horizontal Kerning in Arabic lookup 0 subtable" afii57446 dx=0 dy=0 dh=0 dv=0 dx=0 dy=0 dh=-100 dv=0
PairPos2: "'kern' Horizontal Kerning in Arabic lookup 0 subtable" afii57445 dx=0 dy=0 dh=0 dv=0 dx=0 dy=0 dh=-200 dv=0
PairPos2: "'kern' Horizontal Kerning in Arabic lookup 0 subtable" afii62817 dx=0 dy=0 dh=0 dv=0 dx=0 dy=0 dh=80 dv=0
PairPos2: "'kern' Horizontal Kerning in Arabic lookup 0 subtable" afii57444 dx=0 dy=0 dh=0 dv=0 dx=0 dy=0 dh=80 dv=0
PairPos2: "'kern' Horizontal Kerning in Arabic lookup 0 subtable" afii57443 dx=0 dy=0 dh=0 dv=0 dx=0 dy=0 dh=80 dv=0
PairPos2: "'kern' Horizontal Kerning in Arabic lookup 0 subtable" afii62811 dx=0 dy=0 dh=0 dv=0 dx=0 dy=0 dh=-100 dv=0
PairPos2: "'kern' Horizontal Kerning in Arabic lookup 0 subtable" afii57442 dx=0 dy=0 dh=0 dv=0 dx=0 dy=0 dh=-100 dv=0
PairPos2: "'kern' Horizontal Kerning in Arabic lookup 0 subtable" afii62808 dx=0 dy=0 dh=0 dv=0 dx=0 dy=0 dh=-100 dv=0
PairPos2: "'kern' Horizontal Kerning in Arabic lookup 0 subtable" afii57441 dx=0 dy=0 dh=0 dv=0 dx=0 dy=0 dh=-100 dv=0
PairPos2: "'kern' Horizontal Kerning in Arabic lookup 0 subtable" afii62805 dx=0 dy=0 dh=0 dv=0 dx=0 dy=0 dh=-100 dv=0
PairPos2: "'kern' Horizontal Kerning in Arabic lookup 0 subtable" afii57434 dx=0 dy=0 dh=0 dv=0 dx=0 dy=0 dh=-200 dv=0
PairPos2: "'kern' Horizontal Kerning in Arabic lookup 0 subtable" afii62802 dx=0 dy=0 dh=0 dv=0 dx=0 dy=0 dh=-100 dv=0
PairPos2: "'kern' Horizontal Kerning in Arabic lookup 0 subtable" afii57433 dx=0 dy=0 dh=0 dv=0 dx=0 dy=0 dh=-200 dv=0
PairPos2: "'kern' Horizontal Kerning in Arabic lookup 0 subtable" afii62799 dx=0 dy=0 dh=0 dv=0 dx=0 dy=0 dh=-100 dv=0
PairPos2: "'kern' Horizontal Kerning in Arabic lookup 0 subtable" afii57432 dx=0 dy=0 dh=0 dv=0 dx=0 dy=0 dh=-100 dv=0
PairPos2: "'kern' Horizontal Kerning in Arabic lookup 0 subtable" afii62796 dx=0 dy=0 dh=0 dv=0 dx=0 dy=0 dh=-100 dv=0
PairPos2: "'kern' Horizontal Kerning in Arabic lookup 0 subtable" afii57431 dx=0 dy=0 dh=0 dv=0 dx=0 dy=0 dh=-100 dv=0
PairPos2: "'kern' Horizontal Kerning in Arabic lookup 0 subtable" afii62793 dx=0 dy=0 dh=0 dv=0 dx=0 dy=0 dh=-100 dv=0
PairPos2: "'kern' Horizontal Kerning in Arabic lookup 0 subtable" afii57430 dx=0 dy=0 dh=0 dv=0 dx=0 dy=0 dh=-100 dv=0
PairPos2: "'kern' Horizontal Kerning in Arabic lookup 0 subtable" afii62790 dx=0 dy=0 dh=0 dv=0 dx=0 dy=0 dh=-100 dv=0
PairPos2: "'kern' Horizontal Kerning in Arabic lookup 0 subtable" afii57429 dx=0 dy=0 dh=0 dv=0 dx=0 dy=0 dh=-100 dv=0
PairPos2: "'kern' Horizontal Kerning in Arabic lookup 0 subtable" afii62787 dx=0 dy=0 dh=0 dv=0 dx=0 dy=0 dh=-100 dv=0
PairPos2: "'kern' Horizontal Kerning in Arabic lookup 0 subtable" afii57428 dx=0 dy=0 dh=0 dv=0 dx=0 dy=0 dh=-100 dv=0
PairPos2: "'kern' Horizontal Kerning in Arabic lookup 0 subtable" afii62784 dx=0 dy=0 dh=0 dv=0 dx=0 dy=0 dh=-100 dv=0
PairPos2: "'kern' Horizontal Kerning in Arabic lookup 0 subtable" afii57427 dx=0 dy=0 dh=0 dv=0 dx=0 dy=0 dh=-100 dv=0
PairPos2: "'kern' Horizontal Kerning in Arabic lookup 0 subtable" afii57426 dx=0 dy=0 dh=0 dv=0 dx=0 dy=0 dh=-200 dv=0
PairPos2: "'kern' Horizontal Kerning in Arabic lookup 0 subtable" afii57425 dx=0 dy=0 dh=0 dv=0 dx=0 dy=0 dh=-200 dv=0
PairPos2: "'kern' Horizontal Kerning in Arabic lookup 0 subtable" afii57424 dx=0 dy=0 dh=0 dv=0 dx=0 dy=0 dh=-100 dv=0
PairPos2: "'kern' Horizontal Kerning in Arabic lookup 0 subtable" afii57423 dx=0 dy=0 dh=0 dv=0 dx=0 dy=0 dh=-100 dv=0
PairPos2: "'kern' Horizontal Kerning in Arabic lookup 0 subtable" afii62777 dx=0 dy=0 dh=0 dv=0 dx=0 dy=0 dh=-100 dv=0
PairPos2: "'kern' Horizontal Kerning in Arabic lookup 0 subtable" afii57422 dx=0 dy=0 dh=0 dv=0 dx=0 dy=0 dh=-200 dv=0
PairPos2: "'kern' Horizontal Kerning in Arabic lookup 0 subtable" afii62774 dx=0 dy=0 dh=0 dv=0 dx=0 dy=0 dh=-100 dv=0
PairPos2: "'kern' Horizontal Kerning in Arabic lookup 0 subtable" afii57421 dx=0 dy=0 dh=0 dv=0 dx=0 dy=0 dh=-200 dv=0
PairPos2: "'kern' Horizontal Kerning in Arabic lookup 0 subtable" afii62771 dx=0 dy=0 dh=0 dv=0 dx=0 dy=0 dh=-100 dv=0
PairPos2: "'kern' Horizontal Kerning in Arabic lookup 0 subtable" afii57420 dx=0 dy=0 dh=0 dv=0 dx=0 dy=0 dh=-200 dv=0
PairPos2: "'kern' Horizontal Kerning in Arabic lookup 0 subtable" afii62768 dx=0 dy=0 dh=0 dv=0 dx=0 dy=0 dh=-80 dv=0
PairPos2: "'kern' Horizontal Kerning in Arabic lookup 0 subtable" afii57419 dx=0 dy=0 dh=0 dv=0 dx=0 dy=0 dh=-100 dv=0
PairPos2: "'kern' Horizontal Kerning in Arabic lookup 0 subtable" afii62765 dx=0 dy=0 dh=0 dv=0 dx=0 dy=0 dh=-80 dv=0
PairPos2: "'kern' Horizontal Kerning in Arabic lookup 0 subtable" afii57418 dx=0 dy=0 dh=0 dv=0 dx=0 dy=0 dh=-100 dv=0
PairPos2: "'kern' Horizontal Kerning in Arabic lookup 0 subtable" afii62761 dx=0 dy=0 dh=0 dv=0 dx=0 dy=0 dh=-100 dv=0
PairPos2: "'kern' Horizontal Kerning in Arabic lookup 0 subtable" afii57416 dx=0 dy=0 dh=0 dv=0 dx=0 dy=0 dh=-100 dv=0
PairPos2: "'kern' Horizontal Kerning in Arabic lookup 0 subtable" afii62757 dx=0 dy=0 dh=0 dv=0 dx=0 dy=0 dh=-80 dv=0
PairPos2: "'kern' Horizontal Kerning in Arabic lookup 0 subtable" afii57414 dx=0 dy=0 dh=0 dv=0 dx=0 dy=0 dh=-100 dv=0
PairPos2: "'kern' Horizontal Kerning in Arabic lookup 0 subtable" afii52399 dx=0 dy=0 dh=0 dv=0 dx=0 dy=0 dh=-200 dv=0
PairPos2: "'kern' Horizontal Kerning in Arabic lookup 0 subtable" afii57555 dx=0 dy=0 dh=0 dv=0 dx=0 dy=0 dh=-100 dv=0
PairPos2: "'kern' Horizontal Kerning in Arabic lookup 0 subtable" afii62959 dx=0 dy=0 dh=0 dv=0 dx=0 dy=0 dh=-100 dv=0
PairPos2: "'kern' Horizontal Kerning in Arabic lookup 0 subtable" afii57507 dx=0 dy=0 dh=0 dv=0 dx=0 dy=0 dh=-200 dv=0
PairPos2: "'kern' Horizontal Kerning in Arabic lookup 0 subtable" afii57505 dx=0 dy=0 dh=0 dv=0 dx=0 dy=0 dh=-100 dv=0
PairPos2: "'kern' Horizontal Kerning in Arabic lookup 0 subtable" afii62956 dx=0 dy=0 dh=0 dv=0 dx=0 dy=0 dh=-100 dv=0
PairPos2: "'kern' Horizontal Kerning in Arabic lookup 0 subtable" afii57506 dx=0 dy=0 dh=0 dv=0 dx=0 dy=0 dh=-100 dv=0
EndChar

StartChar: afii62841
Encoding: 65276 65276 269
Width: 1498
GlyphClass: 3
Flags: W
AnchorPoint: "Anchor-1" 1095 -420 baselig 0
AnchorPoint: "Anchor-0" 1095 1575 baselig 0
AnchorPoint: "Anchor-1" 375 -540 baselig 1
AnchorPoint: "Anchor-0" 210 1500 baselig 1
LayerCount: 2
Fore
SplineSet
1001 374 m 0,0,1
 904 182 904 182 755 78 c 0,2,3
 620 -14 620 -14 477 -38 c 2,4,-1
 238 -77 l 1,5,-1
 153 -77 l 1,6,-1
 153 -29 l 1,7,8
 193 -29 193 -29 333 21 c 2,9,-1
 472 70 l 2,10,11
 501 81 501 81 519 91 c 0,12,13
 571 116 571 116 668 172 c 1,14,15
 850 290 850 290 850 420 c 0,16,17
 850 491 850 491 735 661 c 0,18,19
 645 794 645 794 566 882 c 0,20,21
 448 1011 448 1011 385 1011 c 2,22,-1
 277 1011 l 1,23,-1
 228 1015 l 2,24,25
 210 1015 210 1015 186 1026 c 0,26,27
 74 1071 74 1071 74 1198 c 0,28,29
 74 1336 74 1336 147 1336 c 0,30,31
 245 1336 245 1336 498 1130 c 0,32,33
 573 1068 573 1068 650 995 c 0,34,35
 756 892 756 892 802 787 c 2,36,-1
 836 708 l 1,37,-1
 872 606 l 2,38,39
 888 557 888 557 911 498 c 1,40,41
 981 613 981 613 1016 829 c 0,42,43
 1040 986 1040 986 1040 1261 c 1,44,45
 1051 1301 1051 1301 1063 1322 c 2,46,-1
 1078 1352 l 1,47,-1
 1099 1385 l 2,48,49
 1141 1449 1141 1449 1183 1480 c 1,50,-1
 1193 1422 l 1,51,-1
 1196 1385 l 1,52,-1
 1194 1291 l 1,53,-1
 1191 1274 l 2,54,55
 1191 1254 1191 1254 1211 1030 c 2,56,-1
 1249 630 l 2,57,58
 1250 616 1250 616 1259 566 c 0,59,60
 1277 421 1277 421 1288 363 c 0,61,62
 1303 283 1303 283 1315 267 c 1,63,64
 1330 234 1330 234 1347 216 c 0,65,66
 1375 186 1375 186 1404 186 c 2,67,-1
 1550 186 l 1,68,-1
 1548 0 l 1,69,-1
 1473 0 l 2,70,71
 1319 0 1319 0 1239 90 c 0,72,73
 1163 175 1163 175 1155 323 c 2,74,-1
 1148 454 l 1,75,-1
 1145 654 l 1,76,-1
 1134 673 l 1,77,-1
 1121 694 l 1,78,-1
 1100 637 l 1,79,-1
 1072 547 l 2,80,81
 1043 459 1043 459 1001 374 c 0,0,1
EndSplineSet
Ligature2: "'rlig' Required Ligatures in Arabic lookup 6 subtable" afii62818 afii62760
PairPos2: "'kern' Horizontal Kerning in Arabic lookup 0 subtable" afii62817 dx=0 dy=0 dh=0 dv=0 dx=0 dy=0 dh=100 dv=0
PairPos2: "'kern' Horizontal Kerning in Arabic lookup 0 subtable" afii57444 dx=0 dy=0 dh=0 dv=0 dx=0 dy=0 dh=100 dv=0
PairPos2: "'kern' Horizontal Kerning in Arabic lookup 0 subtable" afii57443 dx=0 dy=0 dh=0 dv=0 dx=0 dy=0 dh=100 dv=0
PairPos2: "'kern' Horizontal Kerning in Arabic lookup 0 subtable" afii57434 dx=0 dy=0 dh=0 dv=0 dx=0 dy=0 dh=-150 dv=0
PairPos2: "'kern' Horizontal Kerning in Arabic lookup 0 subtable" afii57433 dx=0 dy=0 dh=0 dv=0 dx=0 dy=0 dh=-150 dv=0
PairPos2: "'kern' Horizontal Kerning in Arabic lookup 0 subtable" afii57422 dx=0 dy=0 dh=0 dv=0 dx=0 dy=0 dh=-150 dv=0
PairPos2: "'kern' Horizontal Kerning in Arabic lookup 0 subtable" afii57421 dx=0 dy=0 dh=0 dv=0 dx=0 dy=0 dh=-150 dv=0
PairPos2: "'kern' Horizontal Kerning in Arabic lookup 0 subtable" afii57420 dx=0 dy=0 dh=0 dv=0 dx=0 dy=0 dh=-150 dv=0
PairPos2: "'kern' Horizontal Kerning in Arabic lookup 0 subtable" afii57507 dx=0 dy=0 dh=0 dv=0 dx=0 dy=0 dh=-150 dv=0
EndChar

StartChar: afii59759
Encoding: 3663 3663 276
Width: 1233
GlyphClass: 2
Flags: W
LayerCount: 2
Fore
SplineSet
616 983 m 0,0,1
 823 983 823 983 969.5 836.5 c 128,-1,2
 1116 690 1116 690 1116 483 c 0,3,4
 1116 277 1116 277 969.5 130.5 c 128,-1,5
 823 -16 823 -16 616 -16 c 0,6,7
 410 -16 410 -16 263.5 130.5 c 128,-1,8
 117 277 117 277 117 483 c 0,9,10
 117 690 117 690 263.5 836.5 c 128,-1,11
 410 983 410 983 616 983 c 0,0,1
616 147 m 0,12,13
 758 147 758 147 849 242 c 128,-1,14
 940 337 940 337 940 483 c 256,15,16
 940 629 940 629 849 724 c 128,-1,17
 758 819 758 819 616 819 c 0,18,19
 475 819 475 819 384 724 c 128,-1,20
 293 629 293 629 293 483 c 256,21,22
 293 337 293 337 384 242 c 128,-1,23
 475 147 475 147 616 147 c 0,12,13
616 598 m 0,24,25
 664 598 664 598 697.5 565 c 128,-1,26
 731 532 731 532 731 485 c 256,27,28
 731 438 731 438 697.5 404.5 c 128,-1,29
 664 371 664 371 616 371 c 0,30,31
 569 371 569 371 535.5 404.5 c 128,-1,32
 502 438 502 438 502 485 c 256,33,34
 502 532 502 532 535.5 565 c 128,-1,35
 569 598 569 598 616 598 c 0,24,25
EndSplineSet
EndChar

StartChar: afii59760
Encoding: 3664 3664 277
Width: 1233
GlyphClass: 2
Flags: W
LayerCount: 2
Fore
SplineSet
616 924 m 0,0,1
 834 924 834 924 975 794.5 c 128,-1,2
 1116 665 1116 665 1116 453 c 0,3,4
 1116 242 1116 242 975 113 c 128,-1,5
 834 -16 834 -16 616 -16 c 0,6,7
 399 -16 399 -16 258 113 c 128,-1,8
 117 242 117 242 117 453 c 0,9,10
 117 665 117 665 258 794.5 c 128,-1,11
 399 924 399 924 616 924 c 0,0,1
616 150 m 0,12,13
 765 150 765 150 852.5 231 c 128,-1,14
 940 312 940 312 940 453 c 256,15,16
 940 594 940 594 852 677 c 128,-1,17
 764 760 764 760 616 760 c 0,18,19
 469 760 469 760 381 677 c 128,-1,20
 293 594 293 594 293 453 c 0,21,22
 293 310 293 310 381.5 230 c 128,-1,23
 470 150 470 150 616 150 c 0,12,13
EndSplineSet
EndChar

StartChar: glyph279
Encoding: 65559 -1 279
Width: 0
GlyphClass: 2
Flags: W
LayerCount: 2
Fore
SplineSet
36 1831 m 1,0,-1
 36 863 l 1,1,-1
 -36 863 l 1,2,-1
 -36 1831 l 1,3,-1
 36 1831 l 1,0,-1
36 543 m 1,4,-1
 36 -423 l 1,5,-1
 -36 -423 l 1,6,-1
 -36 543 l 1,7,-1
 36 543 l 1,4,-1
EndSplineSet
EndChar

StartChar: glyph280
Encoding: 65560 -1 280
Width: 0
GlyphClass: 2
Flags: W
LayerCount: 2
Fore
SplineSet
-234 -423 m 1,0,-1
 -234 -352 l 1,1,-1
 -36 -352 l 1,2,-1
 -36 1760 l 1,3,-1
 -234 1760 l 1,4,-1
 -234 1831 l 1,5,-1
 234 1831 l 1,6,-1
 234 1760 l 1,7,-1
 36 1760 l 1,8,-1
 36 -352 l 1,9,-1
 234 -352 l 1,10,-1
 234 -423 l 1,11,-1
 -234 -423 l 1,0,-1
EndSplineSet
EndChar

StartChar: glyph281
Encoding: 65561 -1 281
Width: 0
GlyphClass: 2
Flags: W
LayerCount: 2
Fore
SplineSet
224 1646 m 1,0,-1
 36 1504 l 1,1,-1
 36 -423 l 1,2,-1
 -36 -423 l 1,3,-1
 -36 1831 l 1,4,-1
 224 1646 l 1,0,-1
EndSplineSet
EndChar

StartChar: glyph282
Encoding: 65562 -1 282
Width: 0
GlyphClass: 2
Flags: W
LayerCount: 2
Fore
SplineSet
36 1831 m 1,0,-1
 36 -423 l 1,1,-1
 -36 -423 l 1,2,-1
 -36 1504 l 1,3,-1
 -224 1646 l 1,4,-1
 36 1831 l 1,0,-1
EndSplineSet
EndChar

StartChar: glyph283
Encoding: 65563 -1 283
Width: 0
GlyphClass: 2
Flags: W
LayerCount: 2
Fore
SplineSet
36 1831 m 1,0,-1
 36 -352 l 1,1,-1
 234 -352 l 1,2,-1
 234 -423 l 1,3,-1
 -36 -423 l 1,4,-1
 -36 1831 l 1,5,-1
 36 1831 l 1,0,-1
EndSplineSet
EndChar

StartChar: glyph284
Encoding: 65564 -1 284
Width: 0
GlyphClass: 2
Flags: W
LayerCount: 2
Fore
SplineSet
224 1646 m 1,0,-1
 36 1504 l 1,1,-1
 36 -423 l 1,2,-1
 -36 -423 l 1,3,-1
 -36 1504 l 1,4,-1
 -224 1641 l 1,5,-1
 0 1831 l 1,6,-1
 224 1646 l 1,0,-1
EndSplineSet
EndChar

StartChar: uni0670
Encoding: 1648 1648 297
Width: 0
GlyphClass: 4
Flags: W
AnchorPoint: "Anchor-2" 0 0 mark 0
AnchorPoint: "Anchor-0" 0 0 mark 0
LayerCount: 2
Fore
SplineSet
28 81 m 1,0,1
 -18 -7 -18 -7 -46 4 c 1,2,3
 -44 22 -44 22 -42 51 c 128,-1,4
 -40 80 -40 80 -38.5 113.5 c 128,-1,5
 -37 147 -37 147 -36.5 181.5 c 128,-1,6
 -36 216 -36 216 -36.5 246.5 c 128,-1,7
 -37 277 -37 277 -39 299.5 c 128,-1,8
 -41 322 -41 322 -45 332 c 1,9,10
 32 493 32 493 50 458 c 1,11,12
 50 416 50 416 49.5 368.5 c 128,-1,13
 49 321 49 321 47 271.5 c 128,-1,14
 45 222 45 222 40.5 174 c 128,-1,15
 36 126 36 126 29 84 c 1,16,-1
 28 81 l 1,0,1
EndSplineSet
EndChar

StartChar: glyph298
Encoding: 65565 -1 298
Width: 586
GlyphClass: 2
Flags: W
LayerCount: 2
Fore
SplineSet
289 1412 m 2,0,1
 330 1443 330 1443 367 1450 c 128,-1,2
 404 1457 404 1457 432.5 1442.5 c 128,-1,3
 461 1428 461 1428 478 1394.5 c 128,-1,4
 495 1361 495 1361 495 1312 c 2,5,-1
 494 1205 l 1,6,-1
 69 1205 l 1,7,-1
 69 1282 l 1,8,-1
 141 1282 l 1,9,-1
 289 1412 l 2,0,1
247 1282 m 1,10,-1
 417 1282 l 1,11,-1
 417 1322 l 2,12,13
 415 1360 415 1360 391 1371 c 128,-1,14
 367 1382 367 1382 326 1353 c 1,15,-1
 247 1282 l 1,10,-1
EndSplineSet
EndChar

StartChar: glyph299
Encoding: 65566 -1 299
Width: 1377
GlyphClass: 2
Flags: W
LayerCount: 2
Fore
SplineSet
1338 24 m 2,0,1
 1340 -77 1340 -77 1285 -155 c 0,2,3
 1245 -213 1245 -213 1144 -294 c 0,4,5
 1011 -399 1011 -399 794 -456 c 0,6,7
 633 -498 633 -498 518 -498 c 0,8,9
 328 -498 328 -498 206 -396 c 0,10,11
 74 -286 74 -286 74 -99 c 0,12,13
 74 -15 74 -15 136 112 c 0,14,15
 204 253 204 253 283 314 c 1,16,-1
 283 224 l 1,17,-1
 258 183 l 1,18,-1
 227 122 l 2,19,20
 178 27 178 27 178 -27 c 0,21,22
 178 -157 178 -157 337 -225 c 0,23,24
 458 -279 458 -279 608 -279 c 0,25,26
 690 -279 690 -279 837 -238 c 0,27,28
 906 -218 906 -218 976 -200 c 1,29,30
 1047 -176 1047 -176 1107 -136 c 0,31,32
 1147 -112 1147 -112 1185.5 -86 c 128,-1,33
 1224 -60 1224 -60 1235 -18 c 128,-1,34
 1246 24 1246 24 1242 35 c 0,35,36
 1231 63 1231 63 1198 69 c 1,37,-1
 1036 27 l 1,38,39
 1019 27 1019 27 1015 24 c 2,40,-1
 997 24 l 2,41,42
 881 24 881 24 843 120 c 1,43,44
 836 150 836 150 836 174 c 0,45,46
 836 230 836 230 860 319 c 0,47,48
 902 476 902 476 997 511 c 1,49,-1
 1021 515 l 1,50,51
 1078 515 1078 515 1174.5 426 c 128,-1,52
 1271 337 1271 337 1310 220 c 2,53,-1
 1324 174 l 1,54,-1
 1333 140 l 1,55,-1
 1337 95 l 1,56,-1
 1338 24 l 2,0,1
1161 239 m 1,57,58
 1148 260 1148 260 1131 272 c 2,59,-1
 1085 302 l 2,60,61
 1043 332 1043 332 1021 323 c 0,62,63
 955 300 955 300 955 239 c 2,64,-1
 955 221 l 1,65,-1
 959 209 l 1,66,-1
 972 190 l 1,67,-1
 994 185 l 1,68,-1
 1026 183 l 1,69,-1
 1058 189 l 1,70,-1
 1089 199 l 1,71,-1
 1128 216 l 2,72,73
 1141 221 1141 221 1161 239 c 1,57,58
EndSplineSet
EndChar

StartChar: uni06DD
Encoding: 1757 1757 388
Width: 2300
GlyphClass: 2
Flags: W
LayerCount: 2
Fore
SplineSet
2250 715 m 256,0,1
 2250 469 2250 469 2146 249 c 0,2,3
 2046 35 2046 35 1867 -119 c 1,4,5
 1870 -133 1870 -133 1870 -148 c 0,6,7
 1870 -203 1870 -203 1831 -241.5 c 128,-1,8
 1792 -280 1792 -280 1737 -280 c 0,9,10
 1697 -280 1697 -280 1664 -258 c 1,11,12
 1424 -385 1424 -385 1149 -385 c 0,13,14
 876 -385 876 -385 636 -258 c 1,15,16
 603 -280 603 -280 563 -280 c 0,17,18
 508 -280 508 -280 469 -241.5 c 128,-1,19
 430 -203 430 -203 430 -148 c 0,20,21
 430 -133 430 -133 433 -119 c 1,22,23
 254 35 254 35 154 249 c 0,24,25
 50 469 50 469 50 715 c 256,26,27
 50 961 50 961 154 1181 c 0,28,29
 254 1394 254 1394 433 1548 c 1,30,31
 430 1562 430 1562 430 1577 c 0,32,33
 430 1632 430 1632 469 1670.5 c 128,-1,34
 508 1709 508 1709 563 1709 c 0,35,36
 603 1709 603 1709 636 1687 c 1,37,38
 876 1814 876 1814 1151 1814 c 0,39,40
 1424 1814 1424 1814 1664 1687 c 1,41,42
 1697 1709 1697 1709 1737 1709 c 0,43,44
 1792 1709 1792 1709 1831 1670.5 c 128,-1,45
 1870 1632 1870 1632 1870 1577 c 0,46,47
 1870 1562 1870 1562 1867 1548 c 1,48,49
 2046 1394 2046 1394 2146 1181 c 0,50,51
 2250 961 2250 961 2250 715 c 256,0,1
1816 1576 m 0,52,53
 1816 1609 1816 1609 1793 1632 c 128,-1,54
 1770 1655 1770 1655 1738 1655 c 256,55,56
 1706 1655 1706 1655 1682.5 1631.5 c 128,-1,57
 1659 1608 1659 1608 1659 1576 c 256,58,59
 1659 1544 1659 1544 1682 1521 c 128,-1,60
 1705 1498 1705 1498 1738 1498 c 0,61,62
 1770 1498 1770 1498 1793 1521 c 128,-1,63
 1816 1544 1816 1544 1816 1576 c 0,52,53
1602 1595 m 1,64,65
 1390 1704 1390 1704 1151 1704 c 0,66,67
 910 1704 910 1704 698 1595 c 1,68,-1
 1602 1595 l 1,64,65
641 1576 m 256,69,70
 641 1608 641 1608 617.5 1631.5 c 128,-1,71
 594 1655 594 1655 562 1655 c 256,72,73
 530 1655 530 1655 507 1632 c 128,-1,74
 484 1609 484 1609 484 1576 c 0,75,76
 484 1544 484 1544 507 1521 c 128,-1,77
 530 1498 530 1498 562 1498 c 0,78,79
 595 1498 595 1498 618 1521 c 128,-1,80
 641 1544 641 1544 641 1576 c 256,69,70
2140 714 m 0,81,82
 2140 933 2140 933 2048 1131 c 0,83,84
 1960 1321 1960 1321 1801 1460 c 1,85,86
 1772 1444 1772 1444 1737 1444 c 0,87,88
 1681 1444 1681 1444 1642 1485 c 1,89,-1
 658 1485 l 1,90,91
 619 1444 619 1444 563 1444 c 0,92,93
 528 1444 528 1444 499 1460 c 1,94,95
 340 1321 340 1321 252 1131 c 0,96,97
 160 933 160 933 160 714 c 0,98,99
 160 265 160 265 499 -31 c 1,100,101
 528 -15 528 -15 563 -15 c 0,102,103
 619 -15 619 -15 658 -56 c 1,104,-1
 1642 -56 l 1,105,106
 1681 -15 1681 -15 1737 -15 c 0,107,108
 1772 -15 1772 -15 1801 -31 c 1,109,110
 2140 265 2140 265 2140 714 c 0,81,82
1816 -147 m 0,111,112
 1816 -115 1816 -115 1793 -92 c 128,-1,113
 1770 -69 1770 -69 1738 -69 c 0,114,115
 1705 -69 1705 -69 1682 -92 c 128,-1,116
 1659 -115 1659 -115 1659 -147 c 256,117,118
 1659 -179 1659 -179 1682.5 -202.5 c 128,-1,119
 1706 -226 1706 -226 1738 -226 c 256,120,121
 1770 -226 1770 -226 1793 -203 c 128,-1,122
 1816 -180 1816 -180 1816 -147 c 0,111,112
1602 -166 m 1,123,-1
 698 -166 l 1,124,125
 910 -275 910 -275 1151 -275 c 0,126,127
 1390 -275 1390 -275 1602 -166 c 1,123,-1
641 -147 m 256,128,129
 641 -115 641 -115 618 -92 c 128,-1,130
 595 -69 595 -69 562 -69 c 0,131,132
 530 -69 530 -69 507 -92 c 128,-1,133
 484 -115 484 -115 484 -147 c 0,134,135
 484 -180 484 -180 507 -203 c 128,-1,136
 530 -226 530 -226 562 -226 c 256,137,138
 594 -226 594 -226 617.5 -202.5 c 128,-1,139
 641 -179 641 -179 641 -147 c 256,128,129
EndSplineSet
EndChar

StartChar: uni06DE
Encoding: 1758 1758 389
Width: 2221
GlyphClass: 2
Flags: W
LayerCount: 2
Fore
SplineSet
2171 750 m 1,0,-1
 1861 439 l 1,1,-1
 1861 0 l 1,2,-1
 1421 0 l 1,3,-1
 1111 -311 l 1,4,-1
 800 0 l 1,5,-1
 361 0 l 1,6,-1
 361 439 l 1,7,-1
 50 750 l 1,8,-1
 361 1061 l 1,9,-1
 361 1500 l 1,10,-1
 800 1500 l 1,11,-1
 1111 1811 l 1,12,-1
 1421 1500 l 1,13,-1
 1861 1500 l 1,14,-1
 1861 1061 l 1,15,-1
 2171 750 l 1,0,-1
436 364 m 1,16,-1
 436 75 l 1,17,-1
 725 75 l 1,18,-1
 436 364 l 1,16,-1
725 1425 m 1,19,-1
 436 1425 l 1,20,-1
 436 1136 l 1,21,-1
 725 1425 l 1,19,-1
1786 1136 m 1,22,-1
 1786 1425 l 1,23,-1
 1496 1425 l 1,24,-1
 1786 1136 l 1,22,-1
1786 75 m 1,25,-1
 1786 364 l 1,26,-1
 1496 75 l 1,27,-1
 1786 75 l 1,25,-1
906 0 m 1,28,-1
 1111 -205 l 1,29,-1
 1315 0 l 1,30,-1
 906 0 l 1,28,-1
361 955 m 1,31,-1
 156 750 l 1,32,-1
 361 545 l 1,33,-1
 361 955 l 1,31,-1
1315 1500 m 1,34,-1
 1111 1705 l 1,35,-1
 906 1500 l 1,36,-1
 1315 1500 l 1,34,-1
1786 1030 m 1,37,-1
 1390 1425 l 1,38,-1
 831 1425 l 1,39,-1
 436 1030 l 1,40,-1
 436 470 l 1,41,-1
 831 75 l 1,42,-1
 1390 75 l 1,43,-1
 1786 470 l 1,44,-1
 1786 1030 l 1,37,-1
2065 750 m 1,45,-1
 1861 955 l 1,46,-1
 1861 545 l 1,47,-1
 2065 750 l 1,45,-1
1328 750 m 256,48,49
 1328 660 1328 660 1264.5 596 c 128,-1,50
 1201 532 1201 532 1111 532 c 256,51,52
 1021 532 1021 532 957 596 c 128,-1,53
 893 660 893 660 893 750 c 256,54,55
 893 840 893 840 957 903.5 c 128,-1,56
 1021 967 1021 967 1111 967 c 256,57,58
 1201 967 1201 967 1264.5 903.5 c 128,-1,59
 1328 840 1328 840 1328 750 c 256,48,49
1253 750 m 256,60,61
 1253 809 1253 809 1211 850.5 c 128,-1,62
 1169 892 1169 892 1110 892 c 256,63,64
 1051 892 1051 892 1009 850.5 c 128,-1,65
 967 809 967 809 967 750 c 256,66,67
 967 691 967 691 1009 649 c 128,-1,68
 1051 607 1051 607 1110 607 c 256,69,70
 1169 607 1169 607 1211 649 c 128,-1,71
 1253 691 1253 691 1253 750 c 256,60,61
EndSplineSet
EndChar

StartChar: uni06DF
Encoding: 1759 1759 390
Width: 0
GlyphClass: 2
Flags: W
LayerCount: 2
Fore
SplineSet
75 1429 m 256,0,1
 75 1398 75 1398 53 1376 c 128,-1,2
 31 1354 31 1354 0 1354 c 256,3,4
 -31 1354 -31 1354 -53 1376 c 128,-1,5
 -75 1398 -75 1398 -75 1429 c 256,6,7
 -75 1460 -75 1460 -53 1482 c 128,-1,8
 -31 1504 -31 1504 0 1504 c 256,9,10
 31 1504 31 1504 53 1482 c 128,-1,11
 75 1460 75 1460 75 1429 c 256,0,1
EndSplineSet
EndChar

StartChar: uni06E9
Encoding: 1769 1769 391
Width: 1229
GlyphClass: 2
Flags: W
LayerCount: 2
Fore
SplineSet
1179 0 m 1,0,-1
 50 0 l 1,1,-1
 278 261 l 1,2,-1
 278 849 l 1,3,-1
 50 1108 l 1,4,-1
 614 1676 l 1,5,-1
 1179 1108 l 1,6,-1
 951 849 l 1,7,-1
 951 261 l 1,8,-1
 1179 0 l 1,0,-1
1101 1108 m 1,9,-1
 614 1598 l 1,10,-1
 128 1108 l 1,11,-1
 338 871 l 1,12,-1
 338 239 l 1,13,-1
 178 56 l 1,14,-1
 1051 56 l 1,15,-1
 891 239 l 1,16,-1
 891 871 l 1,17,-1
 1101 1108 l 1,9,-1
995 1108 m 1,18,-1
 845 937 l 1,19,-1
 845 131 l 1,20,-1
 384 131 l 1,21,-1
 384 937 l 1,22,-1
 234 1108 l 1,23,-1
 614 1489 l 1,24,-1
 995 1108 l 1,18,-1
922 1108 m 1,25,-1
 614 1416 l 1,26,-1
 307 1108 l 1,27,-1
 433 968 l 1,28,-1
 433 186 l 1,29,-1
 796 186 l 1,30,-1
 796 968 l 1,31,-1
 922 1108 l 1,25,-1
833 1108 m 1,32,-1
 745 1011 l 1,33,-1
 745 267 l 1,34,-1
 484 267 l 1,35,-1
 484 1011 l 1,36,-1
 396 1108 l 1,37,-1
 614 1331 l 1,38,-1
 833 1108 l 1,32,-1
780 1108 m 1,39,-1
 614 1278 l 1,40,-1
 449 1108 l 1,41,-1
 523 1027 l 1,42,-1
 523 309 l 1,43,-1
 705 309 l 1,44,-1
 705 1027 l 1,45,-1
 780 1108 l 1,39,-1
EndSplineSet
EndChar

StartChar: uni06EB
Encoding: 1771 1771 393
Width: 0
GlyphClass: 2
Flags: W
LayerCount: 2
Fore
SplineSet
168 1522 m 1,0,-1
 -1 1354 l 1,1,-1
 -168 1521 l 1,2,-1
 1 1689 l 1,3,-1
 168 1522 l 1,0,-1
104 1522 m 1,4,-1
 0 1626 l 1,5,-1
 -104 1521 l 1,6,-1
 0 1417 l 1,7,-1
 104 1522 l 1,4,-1
EndSplineSet
EndChar

StartChar: comma
Encoding: 44 44 402
Width: 361
Flags: W
LayerCount: 2
Fore
SplineSet
77 -240 m 1,0,-1
 77 -209 l 1,1,2
 150 -185 150 -185 190 -134.5 c 128,-1,3
 230 -84 230 -84 230 -28 c 0,4,5
 230 -15 230 -15 224 -5 c 0,6,7
 218 1 218 1 213 1 c 0,8,9
 206 1 206 1 180 -13 c 0,10,11
 167 -19 167 -19 153 -19 c 0,12,13
 118 -19 118 -19 97.5 1 c 128,-1,14
 77 21 77 21 77 57 c 0,15,16
 77 92 77 92 103.5 116.5 c 128,-1,17
 130 141 130 141 168 141 c 0,18,19
 215 141 215 141 251 100.5 c 128,-1,20
 287 60 287 60 287 -7 c 0,21,22
 287 -79 287 -79 237 -141.5 c 128,-1,23
 187 -204 187 -204 77 -240 c 1,0,-1
EndSplineSet
EndChar

StartChar: afii57407
Encoding: 1567 1567 403
Width: 1098
GlyphClass: 2
Flags: W
LayerCount: 2
Fore
SplineSet
765 413 m 0,0,1
 750 399 750 399 740.5 367.5 c 128,-1,2
 731 336 731 336 715 320 c 0,3,4
 708 314 708 314 696 314 c 0,5,6
 675 312 675 312 659 338 c 0,7,8
 643 360 643 360 643 382 c 0,9,10
 643 401 643 401 659 414 c 128,-1,11
 675 427 675 427 677.5 455 c 128,-1,12
 680 483 680 483 698 502 c 0,13,14
 712 512 712 512 717 523 c 2,15,-1
 723 547 l 1,16,17
 723 590 723 590 646 632 c 2,18,-1
 529 693 l 1,19,20
 356 808 356 808 324 962 c 1,21,-1
 313 1023 l 1,22,-1
 307 1064 l 1,23,-1
 305 1097 l 2,24,25
 303 1125 303 1125 307 1145 c 2,26,-1
 315 1173 l 2,27,28
 317 1187 317 1187 324 1199 c 0,29,30
 354 1272 354 1272 459 1342 c 0,31,32
 548 1401 548 1401 663 1410 c 1,33,-1
 676 1410 l 2,34,35
 715 1413 715 1413 775 1401 c 0,36,37
 831 1390 831 1390 860 1371 c 2,38,-1
 893 1352 l 1,39,-1
 937 1321 l 2,40,41
 972 1294 972 1294 987.5 1287 c 128,-1,42
 1003 1280 1003 1280 1008 1264 c 1,43,44
 1008 1230 1008 1230 957 1175.5 c 128,-1,45
 906 1121 906 1121 873 1121 c 2,46,-1
 866 1121 l 1,47,-1
 860 1122 l 1,48,49
 847 1135 847 1135 813 1161 c 0,50,51
 797 1172 797 1172 737 1191 c 1,52,-1
 698 1199 l 1,53,-1
 671 1206 l 1,54,-1
 647 1207 l 2,55,56
 610 1212 610 1212 577 1189 c 128,-1,57
 544 1166 544 1166 529 1122 c 2,58,-1
 520 1099 l 1,59,-1
 513 1073 l 1,60,-1
 508 1038 l 2,61,62
 508 1019 508 1019 511 1009 c 2,63,-1
 529 962 l 2,64,65
 572 844 572 844 656 793 c 0,66,67
 759 731 759 731 814 628 c 0,68,69
 830 590 830 590 830 551 c 0,70,71
 830 468 830 468 765 413 c 0,0,1
680 239 m 0,72,73
 731 239 731 239 766 203.5 c 128,-1,74
 801 168 801 168 801 118 c 256,75,76
 801 68 801 68 765.5 32 c 128,-1,77
 730 -4 730 -4 680 -4 c 256,78,79
 630 -4 630 -4 594 32 c 128,-1,80
 558 68 558 68 558 118 c 256,81,82
 558 168 558 168 594 203.5 c 128,-1,83
 630 239 630 239 680 239 c 0,72,73
EndSplineSet
EndChar

StartChar: afii57392
Encoding: 1776 1776 404
Width: 938
Flags: W
LayerCount: 2
Fore
SplineSet
494 722 m 1,0,-1
 748 528 l 1,1,-1
 692 475 l 1,2,-1
 633 417 l 1,3,-1
 549 330 l 1,4,-1
 515 293 l 1,5,-1
 389 392 l 1,6,-1
 267 491 l 1,7,-1
 494 722 l 1,0,-1
EndSplineSet
EndChar

StartChar: afii57393
Encoding: 1777 1777 405
Width: 938
Flags: W
LayerCount: 2
Fore
SplineSet
759 220 m 2,0,-1
 759 158 l 1,1,-1
 757 125 l 2,2,3
 757 112 757 112 753 105 c 0,4,5
 741 39 741 39 669 -15 c 1,6,7
 669 256 669 256 563 483 c 0,8,9
 500 617 500 617 363 785 c 0,10,11
 255 918 255 918 255 958 c 0,12,13
 255 984 255 984 292.5 1064.5 c 128,-1,14
 330 1145 330 1145 350 1166 c 1,15,16
 545 1008 545 1008 693 556 c 0,17,18
 759 358 759 358 759 220 c 2,0,-1
EndSplineSet
EndChar

StartChar: afii57394
Encoding: 1778 1778 406
Width: 938
Flags: W
LayerCount: 2
Fore
SplineSet
581 -38 m 1,0,-1
 536 -38 l 1,1,2
 514 161 514 161 465 322 c 0,3,4
 452 360 452 360 423 442 c 0,5,6
 384 552 384 552 351 624 c 2,7,-1
 315 707 l 2,8,9
 307 725 307 725 272 790 c 0,10,11
 202 917 202 917 195 923 c 1,12,-1
 270 1127 l 1,13,-1
 314 1127 l 1,14,15
 375 1023 375 1023 434 988 c 0,16,17
 470 967 470 967 552 967 c 0,18,19
 630 967 630 967 679 1023 c 2,20,-1
 795 1162 l 1,21,-1
 815 1127 l 1,22,-1
 819 1103 l 1,23,-1
 818 1084 l 1,24,-1
 816 1056 l 1,25,26
 809 872 809 872 738.5 801.5 c 128,-1,27
 668 731 668 731 539 731 c 1,28,-1
 539 672 l 1,29,30
 630 452 630 452 630 328 c 0,31,32
 630 150 630 150 581 -38 c 1,0,-1
EndSplineSet
EndChar

StartChar: afii57395
Encoding: 1779 1779 407
Width: 1168
Flags: W
LayerCount: 2
Fore
SplineSet
1067 1057 m 1,0,1
 1018 913 1018 913 991 878 c 0,2,3
 944 813 944 813 874 809 c 2,4,-1
 857 808 l 1,5,-1
 846 808 l 2,6,7
 802 808 802 808 762 829 c 2,8,-1
 718 850 l 2,9,10
 710 850 710 850 704 841 c 0,11,12
 693 823 693 823 640 796.5 c 128,-1,13
 587 770 587 770 552 773 c 2,14,-1
 539 774 l 1,15,-1
 528 777 l 1,16,-1
 512 739 l 1,17,18
 545 652 545 652 592 483 c 0,19,20
 638 322 638 322 638 214 c 0,21,22
 638 167 638 167 616 97 c 2,23,-1
 603 62 l 1,24,-1
 592 36 l 1,25,-1
 564 -8 l 1,26,-1
 519 -8 l 1,27,28
 519 203 519 203 435 441 c 0,29,30
 385 584 385 584 279 767 c 0,31,32
 195 911 195 911 195 938 c 0,33,34
 195 967 195 967 220 1046 c 0,35,36
 249 1140 249 1140 290 1177 c 1,37,-1
 372 1057 l 2,38,39
 416 993 416 993 504 993 c 0,40,41
 623 993 623 993 671 1057 c 1,42,-1
 689 1110 l 1,43,-1
 711 1172 l 1,44,-1
 774 1159 l 1,45,-1
 773 1144 l 1,46,-1
 776 1106 l 1,47,-1
 780 1081 l 2,48,49
 780 1056 780 1056 794 1044 c 1,50,51
 818 1033 818 1033 839 1033 c 2,52,-1
 850 1033 l 1,53,-1
 893 1040 l 2,54,55
 965 1050 965 1050 1000 1100 c 1,56,-1
 1016 1135 l 2,57,58
 1022 1154 1022 1154 1022 1173 c 1,59,-1
 1067 1173 l 1,60,-1
 1067 1057 l 1,0,1
EndSplineSet
EndChar

StartChar: afii62843
Encoding: 1780 1780 408
Width: 937
Flags: W
LayerCount: 2
Fore
SplineSet
832 223 m 1,0,1
 781 111 781 111 654 43 c 0,2,3
 543 -14 543 -14 409 -14 c 0,4,5
 293 -14 293 -14 237 21.5 c 128,-1,6
 181 57 181 57 181 122 c 0,7,8
 181 217 181 217 255 308 c 2,9,-1
 419 505 l 1,10,11
 419 535 419 535 307 598.5 c 128,-1,12
 195 662 195 662 195 727 c 1,13,-1
 214 790 l 2,14,15
 228 839 228 839 276 907 c 0,16,17
 371 1043 371 1043 536 1155 c 1,18,-1
 580 1155 l 1,19,-1
 580 1032 l 1,20,-1
 458 965 l 2,21,22
 385 925 385 925 358 860 c 1,23,24
 426 806 426 806 491 753 c 0,25,26
 595 669 595 669 595 645 c 2,27,-1
 595 623 l 2,28,29
 595 605 595 605 592 598 c 2,30,-1
 587 575 l 1,31,-1
 580 561 l 1,32,-1
 451 402 l 2,33,34
 358 287 358 287 358 238 c 0,35,36
 358 207 358 207 433 182 c 1,37,-1
 508 167 l 1,38,-1
 773 223 l 1,39,-1
 832 223 l 1,0,1
EndSplineSet
EndChar

StartChar: afii62844
Encoding: 1781 1781 409
Width: 938
Flags: W
LayerCount: 2
Fore
SplineSet
813 466 m 0,0,1
 813 45 813 45 476 45 c 0,2,3
 305 45 305 45 241 148 c 0,4,5
 200 213 200 213 200 333 c 0,6,7
 200 423 200 423 248 594 c 0,8,9
 294 760 294 760 371 886 c 0,10,11
 459 1029 459 1029 547 1029 c 0,12,13
 679 1029 679 1029 755 801 c 0,14,15
 813 629 813 629 813 466 c 0,0,1
715 437 m 0,16,17
 715 496 715 496 658 615 c 0,18,19
 596 743 596 743 547 743 c 0,20,21
 493 743 493 743 431 669 c 0,22,23
 403 636 403 636 389 608 c 2,24,-1
 350 526 l 2,25,26
 319 466 319 466 319 428 c 0,27,28
 319 368 319 368 384 333 c 0,29,30
 438 304 438 304 504 304 c 0,31,32
 567 304 567 304 636 339 c 0,33,34
 715 379 715 379 715 437 c 0,16,17
EndSplineSet
EndChar

StartChar: afii62845
Encoding: 1782 1782 410
Width: 938
Flags: W
LayerCount: 2
Fore
SplineSet
883 182 m 1,0,1
 883 63 883 63 809 -27 c 1,2,3
 706 46 706 46 655 183 c 0,4,5
 622 280 622 280 602 458 c 1,6,-1
 601 538 l 1,7,-1
 596 741 l 2,8,9
 592 867 592 867 445 860 c 2,10,-1
 298 854 l 2,11,12
 225 851 225 851 181 879 c 0,13,14
 129 910 129 910 132 994 c 2,15,-1
 132 1050 l 1,16,-1
 136 1089 l 1,17,-1
 147 1145 l 1,18,-1
 179 1145 l 1,19,20
 214 1109 214 1109 274 1088 c 0,21,22
 298 1079 298 1079 396 1067 c 0,23,24
 413 1064 413 1064 535 1086 c 2,25,-1
 661 1109 l 1,26,27
 692 1109 692 1109 713 1056 c 1,28,-1
 727 993 l 2,29,30
 732 965 732 965 732 921 c 2,31,-1
 735 640 l 2,32,33
 738 449 738 449 783 346 c 1,34,-1
 883 182 l 1,0,1
EndSplineSet
EndChar

StartChar: afii57399
Encoding: 1783 1783 411
Width: 1169
Flags: W
LayerCount: 2
Fore
SplineSet
1065 893 m 2,0,1
 1068 876 1068 876 1033 812 c 0,2,3
 893 553 893 553 868 486 c 2,4,-1
 833 395 l 1,5,-1
 794 281 l 1,6,-1
 762 161 l 1,7,-1
 742 104 l 2,8,9
 727 56 727 56 690 -31 c 1,10,11
 661 21 661 21 640 83 c 2,12,-1
 595 217 l 2,13,14
 566 302 566 302 505 426 c 0,15,16
 363 721 363 721 241 839 c 0,17,18
 210 868 210 868 209 883 c 1,19,-1
 238 994 l 2,20,21
 272 1128 272 1128 283 1145 c 1,22,23
 364 1086 364 1086 456 928 c 0,24,25
 501 850 501 850 589 645 c 0,26,27
 662 476 662 476 690 441 c 1,28,29
 731 519 731 519 776 682 c 0,30,31
 825 860 825 860 855 930 c 0,32,33
 923 1082 923 1082 1005 1165 c 1,34,-1
 1042 1032 l 1,35,-1
 1057 952 l 1,36,-1
 1065 893 l 2,0,1
EndSplineSet
EndChar

StartChar: afii57400
Encoding: 1784 1784 412
Width: 1168
Flags: W
LayerCount: 2
Fore
SplineSet
1067 164 m 0,0,1
 1067 97 1067 97 1054 52 c 0,2,3
 1047 27 1047 27 1022 -14 c 1,4,5
 976 -1 976 -1 930 43 c 0,6,7
 854 116 854 116 798 227 c 0,8,9
 736 350 736 350 654 608 c 1,10,-1
 609 608 l 1,11,-1
 596 563 l 1,12,-1
 556 456 l 1,13,-1
 532 405 l 1,14,-1
 490 305 l 1,15,-1
 465 253 l 2,16,17
 438 195 438 195 399 127 c 0,18,19
 316 -14 316 -14 267 -14 c 0,20,21
 246 -14 246 -14 224 34 c 0,22,23
 206 73 206 73 203 104 c 2,24,-1
 197 146 l 1,25,-1
 195 195 l 2,26,27
 193 225 193 225 237 284 c 2,28,-1
 333 416 l 2,29,30
 392 497 392 497 437 641 c 2,31,-1
 587 1119 l 2,32,33
 595 1142 595 1142 598 1145 c 2,34,-1
 631 1156 l 1,35,36
 675 1116 675 1116 700 1018 c 0,37,38
 781 704 781 704 815 637 c 0,39,40
 858 545 858 545 966 375 c 1,41,-1
 1044 279 l 1,42,43
 1067 238 1067 238 1067 164 c 0,0,1
EndSplineSet
EndChar

StartChar: afii57401
Encoding: 1785 1785 413
Width: 937
Flags: W
LayerCount: 2
Fore
SplineSet
825 132 m 256,0,1
 825 85 825 85 808 41 c 0,2,3
 787 -17 787 -17 750 -17 c 0,4,5
 725 -17 725 -17 682 56 c 0,6,7
 651 105 651 105 638 141 c 2,8,-1
 599 248 l 2,9,10
 585 295 585 295 567 388 c 1,11,-1
 560 456 l 1,12,-1
 557 528 l 1,13,-1
 504 525 l 1,14,-1
 456 525 l 1,15,16
 314 521 314 521 244 573 c 0,17,18
 188 613 188 613 188 692 c 0,19,20
 188 745 188 745 234 844 c 0,21,22
 281 951 281 951 343 1028 c 0,23,24
 416 1120 416 1120 484 1120 c 0,25,26
 556 1120 556 1120 617 1014 c 0,27,28
 690 886 690 886 690 648 c 0,29,30
 690 522 690 522 725 430 c 2,31,-1
 753 354 l 1,32,-1
 790 262 l 2,33,34
 825 179 825 179 825 132 c 256,0,1
542 750 m 1,35,-1
 504 841 l 1,36,37
 479 889 479 889 441 889 c 0,38,39
 381 889 381 889 357 858 c 1,40,-1
 319 788 l 1,41,42
 332 759 332 759 365 739 c 1,43,44
 400 725 400 725 459 725 c 1,45,-1
 470 724 l 1,46,-1
 487 724 l 1,47,-1
 498 728 l 2,48,49
 518 735 518 735 542 750 c 1,35,-1
EndSplineSet
EndChar

StartChar: afii57392.001
Encoding: 1632 1632 414
Width: 938
Flags: W
LayerCount: 2
Fore
SplineSet
494 722 m 1,0,-1
 748 528 l 1,1,-1
 692 475 l 1,2,-1
 633 417 l 1,3,-1
 549 330 l 1,4,-1
 515 293 l 1,5,-1
 389 392 l 1,6,-1
 267 491 l 1,7,-1
 494 722 l 1,0,-1
EndSplineSet
EndChar

StartChar: afii57393.001
Encoding: 1633 1633 415
Width: 938
Flags: W
LayerCount: 2
Fore
SplineSet
759 220 m 2,0,-1
 759 158 l 1,1,-1
 757 125 l 2,2,3
 757 112 757 112 753 105 c 0,4,5
 741 39 741 39 669 -15 c 1,6,7
 669 256 669 256 563 483 c 0,8,9
 500 617 500 617 363 785 c 0,10,11
 255 918 255 918 255 958 c 0,12,13
 255 984 255 984 292.5 1064.5 c 128,-1,14
 330 1145 330 1145 350 1166 c 1,15,16
 545 1008 545 1008 693 556 c 0,17,18
 759 358 759 358 759 220 c 2,0,-1
EndSplineSet
EndChar

StartChar: afii57394.001
Encoding: 1634 1634 416
Width: 938
Flags: W
LayerCount: 2
Fore
SplineSet
581 -38 m 1,0,-1
 536 -38 l 1,1,2
 514 161 514 161 465 322 c 0,3,4
 452 360 452 360 423 442 c 0,5,6
 384 552 384 552 351 624 c 2,7,-1
 315 707 l 2,8,9
 307 725 307 725 272 790 c 0,10,11
 202 917 202 917 195 923 c 1,12,-1
 270 1127 l 1,13,-1
 314 1127 l 1,14,15
 375 1023 375 1023 434 988 c 0,16,17
 470 967 470 967 552 967 c 0,18,19
 630 967 630 967 679 1023 c 2,20,-1
 795 1162 l 1,21,-1
 815 1127 l 1,22,-1
 819 1103 l 1,23,-1
 818 1084 l 1,24,-1
 816 1056 l 1,25,26
 809 872 809 872 738.5 801.5 c 128,-1,27
 668 731 668 731 539 731 c 1,28,-1
 539 672 l 1,29,30
 630 452 630 452 630 328 c 0,31,32
 630 150 630 150 581 -38 c 1,0,-1
EndSplineSet
EndChar

StartChar: afii57395.001
Encoding: 1635 1635 417
Width: 1168
Flags: W
LayerCount: 2
Fore
SplineSet
1067 1057 m 1,0,1
 1018 913 1018 913 991 878 c 0,2,3
 944 813 944 813 874 809 c 2,4,-1
 857 808 l 1,5,-1
 846 808 l 2,6,7
 802 808 802 808 762 829 c 2,8,-1
 718 850 l 2,9,10
 710 850 710 850 704 841 c 0,11,12
 693 823 693 823 640 796.5 c 128,-1,13
 587 770 587 770 552 773 c 2,14,-1
 539 774 l 1,15,-1
 528 777 l 1,16,-1
 512 739 l 1,17,18
 545 652 545 652 592 483 c 0,19,20
 638 322 638 322 638 214 c 0,21,22
 638 167 638 167 616 97 c 2,23,-1
 603 62 l 1,24,-1
 592 36 l 1,25,-1
 564 -8 l 1,26,-1
 519 -8 l 1,27,28
 519 203 519 203 435 441 c 0,29,30
 385 584 385 584 279 767 c 0,31,32
 195 911 195 911 195 938 c 0,33,34
 195 967 195 967 220 1046 c 0,35,36
 249 1140 249 1140 290 1177 c 1,37,-1
 372 1057 l 2,38,39
 416 993 416 993 504 993 c 0,40,41
 623 993 623 993 671 1057 c 1,42,-1
 689 1110 l 1,43,-1
 711 1172 l 1,44,-1
 774 1159 l 1,45,-1
 773 1144 l 1,46,-1
 776 1106 l 1,47,-1
 780 1081 l 2,48,49
 780 1056 780 1056 794 1044 c 1,50,51
 818 1033 818 1033 839 1033 c 2,52,-1
 850 1033 l 1,53,-1
 893 1040 l 2,54,55
 965 1050 965 1050 1000 1100 c 1,56,-1
 1016 1135 l 2,57,58
 1022 1154 1022 1154 1022 1173 c 1,59,-1
 1067 1173 l 1,60,-1
 1067 1057 l 1,0,1
EndSplineSet
EndChar

StartChar: afii57396
Encoding: 1636 1636 418
Width: 937
Flags: W
LayerCount: 2
Fore
SplineSet
832 223 m 1,0,1
 781 111 781 111 654 43 c 0,2,3
 543 -14 543 -14 409 -14 c 0,4,5
 293 -14 293 -14 237 21.5 c 128,-1,6
 181 57 181 57 181 122 c 0,7,8
 181 217 181 217 255 308 c 2,9,-1
 419 505 l 1,10,11
 419 535 419 535 307 598.5 c 128,-1,12
 195 662 195 662 195 727 c 1,13,-1
 214 790 l 2,14,15
 228 839 228 839 276 907 c 0,16,17
 371 1043 371 1043 536 1155 c 1,18,-1
 580 1155 l 1,19,-1
 580 1032 l 1,20,-1
 458 965 l 2,21,22
 385 925 385 925 358 860 c 1,23,24
 426 806 426 806 491 753 c 0,25,26
 595 669 595 669 595 645 c 2,27,-1
 595 623 l 2,28,29
 595 605 595 605 592 598 c 2,30,-1
 587 575 l 1,31,-1
 580 561 l 1,32,-1
 451 402 l 2,33,34
 358 287 358 287 358 238 c 0,35,36
 358 207 358 207 433 182 c 1,37,-1
 508 167 l 1,38,-1
 773 223 l 1,39,-1
 832 223 l 1,0,1
EndSplineSet
EndChar

StartChar: afii57397
Encoding: 1637 1637 419
Width: 938
Flags: W
LayerCount: 2
Fore
SplineSet
813 466 m 0,0,1
 813 45 813 45 476 45 c 0,2,3
 305 45 305 45 241 148 c 0,4,5
 200 213 200 213 200 333 c 0,6,7
 200 423 200 423 248 594 c 0,8,9
 294 760 294 760 371 886 c 0,10,11
 459 1029 459 1029 547 1029 c 0,12,13
 679 1029 679 1029 755 801 c 0,14,15
 813 629 813 629 813 466 c 0,0,1
715 437 m 0,16,17
 715 496 715 496 658 615 c 0,18,19
 596 743 596 743 547 743 c 0,20,21
 493 743 493 743 431 669 c 0,22,23
 403 636 403 636 389 608 c 2,24,-1
 350 526 l 2,25,26
 319 466 319 466 319 428 c 0,27,28
 319 368 319 368 384 333 c 0,29,30
 438 304 438 304 504 304 c 0,31,32
 567 304 567 304 636 339 c 0,33,34
 715 379 715 379 715 437 c 0,16,17
EndSplineSet
EndChar

StartChar: afii57398
Encoding: 1638 1638 420
Width: 938
Flags: W
LayerCount: 2
Fore
SplineSet
883 182 m 1,0,1
 883 63 883 63 809 -27 c 1,2,3
 706 46 706 46 655 183 c 0,4,5
 622 280 622 280 602 458 c 1,6,-1
 601 538 l 1,7,-1
 596 741 l 2,8,9
 592 867 592 867 445 860 c 2,10,-1
 298 854 l 2,11,12
 225 851 225 851 181 879 c 0,13,14
 129 910 129 910 132 994 c 2,15,-1
 132 1050 l 1,16,-1
 136 1089 l 1,17,-1
 147 1145 l 1,18,-1
 179 1145 l 1,19,20
 214 1109 214 1109 274 1088 c 0,21,22
 298 1079 298 1079 396 1067 c 0,23,24
 413 1064 413 1064 535 1086 c 2,25,-1
 661 1109 l 1,26,27
 692 1109 692 1109 713 1056 c 1,28,-1
 727 993 l 2,29,30
 732 965 732 965 732 921 c 2,31,-1
 735 640 l 2,32,33
 738 449 738 449 783 346 c 1,34,-1
 883 182 l 1,0,1
EndSplineSet
EndChar

StartChar: afii57399.001
Encoding: 1639 1639 421
Width: 1169
Flags: W
LayerCount: 2
Fore
SplineSet
1065 893 m 2,0,1
 1068 876 1068 876 1033 812 c 0,2,3
 893 553 893 553 868 486 c 2,4,-1
 833 395 l 1,5,-1
 794 281 l 1,6,-1
 762 161 l 1,7,-1
 742 104 l 2,8,9
 727 56 727 56 690 -31 c 1,10,11
 661 21 661 21 640 83 c 2,12,-1
 595 217 l 2,13,14
 566 302 566 302 505 426 c 0,15,16
 363 721 363 721 241 839 c 0,17,18
 210 868 210 868 209 883 c 1,19,-1
 238 994 l 2,20,21
 272 1128 272 1128 283 1145 c 1,22,23
 364 1086 364 1086 456 928 c 0,24,25
 501 850 501 850 589 645 c 0,26,27
 662 476 662 476 690 441 c 1,28,29
 731 519 731 519 776 682 c 0,30,31
 825 860 825 860 855 930 c 0,32,33
 923 1082 923 1082 1005 1165 c 1,34,-1
 1042 1032 l 1,35,-1
 1057 952 l 1,36,-1
 1065 893 l 2,0,1
EndSplineSet
EndChar

StartChar: afii57400.001
Encoding: 1640 1640 422
Width: 1168
Flags: W
LayerCount: 2
Fore
SplineSet
1067 164 m 0,0,1
 1067 97 1067 97 1054 52 c 0,2,3
 1047 27 1047 27 1022 -14 c 1,4,5
 976 -1 976 -1 930 43 c 0,6,7
 854 116 854 116 798 227 c 0,8,9
 736 350 736 350 654 608 c 1,10,-1
 609 608 l 1,11,-1
 596 563 l 1,12,-1
 556 456 l 1,13,-1
 532 405 l 1,14,-1
 490 305 l 1,15,-1
 465 253 l 2,16,17
 438 195 438 195 399 127 c 0,18,19
 316 -14 316 -14 267 -14 c 0,20,21
 246 -14 246 -14 224 34 c 0,22,23
 206 73 206 73 203 104 c 2,24,-1
 197 146 l 1,25,-1
 195 195 l 2,26,27
 193 225 193 225 237 284 c 2,28,-1
 333 416 l 2,29,30
 392 497 392 497 437 641 c 2,31,-1
 587 1119 l 2,32,33
 595 1142 595 1142 598 1145 c 2,34,-1
 631 1156 l 1,35,36
 675 1116 675 1116 700 1018 c 0,37,38
 781 704 781 704 815 637 c 0,39,40
 858 545 858 545 966 375 c 1,41,-1
 1044 279 l 1,42,43
 1067 238 1067 238 1067 164 c 0,0,1
EndSplineSet
EndChar

StartChar: afii57401.001
Encoding: 1641 1641 423
Width: 937
Flags: W
LayerCount: 2
Fore
SplineSet
825 132 m 256,0,1
 825 85 825 85 808 41 c 0,2,3
 787 -17 787 -17 750 -17 c 0,4,5
 725 -17 725 -17 682 56 c 0,6,7
 651 105 651 105 638 141 c 2,8,-1
 599 248 l 2,9,10
 585 295 585 295 567 388 c 1,11,-1
 560 456 l 1,12,-1
 557 528 l 1,13,-1
 504 525 l 1,14,-1
 456 525 l 1,15,16
 314 521 314 521 244 573 c 0,17,18
 188 613 188 613 188 692 c 0,19,20
 188 745 188 745 234 844 c 0,21,22
 281 951 281 951 343 1028 c 0,23,24
 416 1120 416 1120 484 1120 c 0,25,26
 556 1120 556 1120 617 1014 c 0,27,28
 690 886 690 886 690 648 c 0,29,30
 690 522 690 522 725 430 c 2,31,-1
 753 354 l 1,32,-1
 790 262 l 2,33,34
 825 179 825 179 825 132 c 256,0,1
542 750 m 1,35,-1
 504 841 l 1,36,37
 479 889 479 889 441 889 c 0,38,39
 381 889 381 889 357 858 c 1,40,-1
 319 788 l 1,41,42
 332 759 332 759 365 739 c 1,43,44
 400 725 400 725 459 725 c 1,45,-1
 470 724 l 1,46,-1
 487 724 l 1,47,-1
 498 728 l 2,48,49
 518 735 518 735 542 750 c 1,35,-1
EndSplineSet
EndChar

StartChar: guillemotleft
Encoding: 171 171 424
Width: 836
Flags: W
LayerCount: 2
Fore
SplineSet
442 616 m 1,0,1
 387 507 387 507 387 393 c 0,2,3
 387 255 387 255 518 82 c 1,4,-1
 518 83 l 1,5,6
 538 60 538 60 547.5 44 c 128,-1,7
 557 28 557 28 560 20 c 0,8,9
 560 -5 560 -5 534 -5 c 0,10,11
 528 -5 528 -5 513 1 c 0,12,13
 377 71 377 71 294 168 c 1,14,-1
 294 167 l 1,15,16
 202 276 202 276 202 396 c 0,17,18
 203 448 203 448 222.5 500 c 128,-1,19
 242 552 242 552 280 603 c 0,20,21
 307 640 307 640 344.5 676.5 c 128,-1,22
 382 713 382 713 426 745 c 0,23,24
 499 799 499 799 528 799 c 0,25,26
 563 799 563 799 563 775 c 0,27,28
 563 765 563 765 555 757 c 0,29,30
 528 730 528 730 509 708 c 128,-1,31
 490 686 490 686 477 668.5 c 128,-1,32
 464 651 464 651 455.5 638 c 128,-1,33
 447 625 447 625 441 615 c 2,34,-1
 442 616 l 1,0,1
721 616 m 1,35,36
 666 507 666 507 666 393 c 0,37,38
 666 255 666 255 797 82 c 1,39,-1
 797 83 l 1,40,41
 817 60 817 60 826.5 44 c 128,-1,42
 836 28 836 28 839 20 c 0,43,44
 839 -5 839 -5 813 -5 c 0,45,46
 806 -5 806 -5 793 1 c 0,47,48
 725 36 725 36 670 77 c 128,-1,49
 615 118 615 118 573 168 c 1,50,-1
 573 167 l 1,51,52
 481 276 481 276 481 396 c 0,53,54
 482 448 482 448 501.5 500 c 128,-1,55
 521 552 521 552 559 603 c 0,56,57
 586 640 586 640 623.5 676.5 c 128,-1,58
 661 713 661 713 705 745 c 0,59,60
 778 799 778 799 807 799 c 0,61,62
 842 799 842 799 842 775 c 0,63,64
 842 765 842 765 834 757 c 0,65,66
 807 730 807 730 788 708 c 128,-1,67
 769 686 769 686 756 668.5 c 128,-1,68
 743 651 743 651 734.5 638 c 128,-1,69
 726 625 726 625 720 615 c 2,70,-1
 721 616 l 1,35,36
EndSplineSet
EndChar

StartChar: guillemotright
Encoding: 187 187 425
Width: 836
Flags: W
LayerCount: 2
Fore
SplineSet
573 622 m 1,0,1
 561 641 561 641 537.5 674.5 c 128,-1,2
 514 708 514 708 460 762 c 0,3,4
 452 770 452 770 452 780 c 0,5,6
 452 804 452 804 487 804 c 0,7,8
 514 804 514 804 588 751 c 0,9,10
 631 719 631 719 668 683 c 128,-1,11
 705 647 705 647 732 610 c 0,12,13
 769 559 769 559 788.5 508 c 128,-1,14
 808 457 808 457 809 406 c 0,15,16
 809 287 809 287 718 179 c 1,17,-1
 718 180 l 1,18,19
 636 83 636 83 501 15 c 0,20,21
 487 9 487 9 481 9 c 0,22,23
 455 9 455 9 455 34 c 0,24,25
 458 42 458 42 467.5 57.5 c 128,-1,26
 477 73 477 73 497 96 c 1,27,-1
 497 95 l 1,28,29
 626 266 626 266 626 403 c 0,30,31
 626 515 626 515 572 623 c 1,32,-1
 573 622 l 1,0,1
297 622 m 1,33,34
 285 641 285 641 261.5 674.5 c 128,-1,35
 238 708 238 708 184 762 c 0,36,37
 176 770 176 770 176 780 c 0,38,39
 176 804 176 804 211 804 c 0,40,41
 238 804 238 804 312 751 c 0,42,43
 355 719 355 719 392 683 c 128,-1,44
 429 647 429 647 456 610 c 0,45,46
 493 559 493 559 512.5 508 c 128,-1,47
 532 457 532 457 533 406 c 0,48,49
 533 287 533 287 442 179 c 1,50,-1
 442 180 l 1,51,52
 360 83 360 83 225 15 c 0,53,54
 211 9 211 9 205 9 c 0,55,56
 179 9 179 9 179 34 c 0,57,58
 182 42 182 42 191.5 57.5 c 128,-1,59
 201 73 201 73 221 96 c 1,60,-1
 221 95 l 1,61,62
 350 266 350 266 350 403 c 0,63,64
 350 515 350 515 296 623 c 1,65,-1
 297 622 l 1,33,34
EndSplineSet
EndChar

StartChar: quoteleft
Encoding: 8216 8216 426
Width: 425
Flags: W
LayerCount: 2
Fore
SplineSet
93 1318 m 0,0,1
 94 1392 94 1392 144.5 1465 c 128,-1,2
 195 1538 195 1538 258 1568 c 1,3,-1
 294 1501 l 1,4,5
 275 1491 275 1491 250 1463.5 c 128,-1,6
 225 1436 225 1436 213 1392 c 1,7,8
 289 1360 289 1360 286 1297 c 0,9,10
 286 1278 286 1278 278.5 1261.5 c 128,-1,11
 271 1245 271 1245 258 1232.5 c 128,-1,12
 245 1220 245 1220 228.5 1212.5 c 128,-1,13
 212 1205 212 1205 193 1205 c 0,14,15
 170 1205 170 1205 151.5 1214.5 c 128,-1,16
 133 1224 133 1224 120 1240 c 128,-1,17
 107 1256 107 1256 100 1276.5 c 128,-1,18
 93 1297 93 1297 93 1318 c 0,0,1
EndSplineSet
EndChar

StartChar: quoteright
Encoding: 8217 8217 427
Width: 361
Flags: W
LayerCount: 2
Fore
SplineSet
275 1455 m 0,0,1
 274 1381 274 1381 223.5 1308 c 128,-1,2
 173 1235 173 1235 110 1205 c 1,3,-1
 74 1272 l 1,4,5
 93 1282 93 1282 118 1309.5 c 128,-1,6
 143 1337 143 1337 155 1381 c 1,7,8
 79 1413 79 1413 82 1476 c 0,9,10
 82 1495 82 1495 89.5 1511.5 c 128,-1,11
 97 1528 97 1528 109.5 1540.5 c 128,-1,12
 122 1553 122 1553 139 1560.5 c 128,-1,13
 156 1568 156 1568 175 1568 c 0,14,15
 198 1568 198 1568 216.5 1558.5 c 128,-1,16
 235 1549 235 1549 248 1533 c 128,-1,17
 261 1517 261 1517 268 1496.5 c 128,-1,18
 275 1476 275 1476 275 1455 c 0,0,1
EndSplineSet
EndChar

StartChar: afii57451
Encoding: 1611 1611 428
Width: 0
GlyphClass: 4
Flags: W
AnchorPoint: "Anchor-2" 0 0 mark 0
AnchorPoint: "Anchor-0" 0 0 mark 0
LayerCount: 2
Fore
SplineSet
196 464 m 1,0,1
 196 389 196 389 153 362 c 1,2,-1
 -223 186 l 1,3,4
 -223 253 -223 253 -203 275 c 2,5,-1
 -179 296 l 1,6,-1
 -137 320 l 1,7,-1
 196 464 l 1,0,1
196 277 m 1,8,9
 196 202 196 202 153 175 c 1,10,-1
 -223 -1 l 1,11,12
 -223 67 -223 67 -203 90 c 1,13,-1
 -179 109 l 1,14,-1
 -137 133 l 1,15,-1
 196 277 l 1,8,9
EndSplineSet
EndChar

StartChar: afii57454
Encoding: 1614 1614 429
Width: 0
GlyphClass: 4
Flags: W
AnchorPoint: "Anchor-2" 0 0 mark 0
AnchorPoint: "Anchor-0" 0 0 mark 0
LayerCount: 2
Fore
SplineSet
200 283 m 1,0,1
 200 207 200 207 155 181 c 1,2,-1
 -218 4 l 1,3,4
 -218 66 -218 66 -199 97 c 0,5,6
 -190 106 -190 106 -175 116 c 2,7,-1
 -133 140 l 1,8,-1
 200 283 l 1,0,1
EndSplineSet
EndChar

StartChar: afii57455
Encoding: 1615 1615 430
Width: 0
GlyphClass: 4
Flags: W
AnchorPoint: "Anchor-2" 0 0 mark 0
AnchorPoint: "Anchor-0" 0 0 mark 0
LayerCount: 2
Fore
SplineSet
125 189 m 1,0,-1
 115 98 l 1,1,-1
 69 120 l 1,2,-1
 18 150 l 1,3,4
 -32 102 -32 102 -99 50 c 1,5,6
 -172 6 -172 6 -221 8 c 2,7,-1
 -241 10 l 2,8,9
 -256 10 -256 10 -263 14 c 2,10,-1
 -290 20 l 1,11,-1
 -251 36 l 1,12,-1
 -225 49 l 1,13,-1
 -167 78 l 1,14,-1
 -119 109 l 1,15,-1
 -34 169 l 1,16,-1
 -71 196 l 1,17,-1
 -94 216 l 1,18,-1
 -104 234 l 1,19,-1
 -109 258 l 1,20,21
 -109 302 -109 302 -66 364 c 1,22,23
 -29 410 -29 410 32 419 c 1,24,25
 115 419 115 419 115 335 c 1,26,27
 111 280 111 280 80 218 c 1,28,-1
 102 206 l 1,29,-1
 125 189 l 1,0,-1
-46 326 m 2,30,31
 -52 321 -52 321 -52 307 c 256,32,33
 -52 293 -52 293 -42 283 c 2,34,-1
 38 232 l 1,35,-1
 46 245 l 1,36,-1
 50 253 l 1,37,-1
 53 267 l 1,38,39
 53 305 53 305 29.5 327 c 128,-1,40
 6 349 6 349 -31 349 c 1,41,-1
 -46 326 l 2,30,31
EndSplineSet
EndChar

StartChar: afii57452
Encoding: 1612 1612 431
Width: 0
GlyphClass: 4
Flags: W
AnchorPoint: "Anchor-2" 0 0 mark 0
AnchorPoint: "Anchor-0" 0 0 mark 0
LayerCount: 2
Fore
SplineSet
167 146 m 2,0,-1
 167 91 l 1,1,-1
 115 116 l 1,2,-1
 63 147 l 1,3,-1
 -11 87 l 1,4,-1
 -71 48 l 1,5,6
 -105 31 -105 31 -127 27 c 2,7,-1
 -204 10 l 1,8,-1
 -182 52 l 1,9,-1
 -165 87 l 1,10,-1
 -160 109 l 1,11,-1
 -157 130 l 2,12,13
 -157 141 -157 141 -162 150 c 0,14,15
 -172 185 -172 185 -211 185 c 0,16,17
 -227 185 -227 185 -246 162 c 2,18,-1
 -258 144 l 1,19,-1
 -263 125 l 1,20,-1
 -270 123 l 1,21,-1
 -276 141 l 1,22,-1
 -277 162 l 2,23,24
 -279 200 -279 200 -250 232.5 c 128,-1,25
 -221 265 -221 265 -183 265 c 0,26,27
 -106 265 -106 265 -109 171 c 2,28,-1
 -111 143 l 1,29,-1
 -115 78 l 1,30,-1
 -80 95 l 2,31,32
 -69 99 -69 99 -50 111 c 2,33,-1
 -24 129 l 1,34,-1
 24 168 l 1,35,-1
 -15 193 l 1,36,-1
 -38 214 l 1,37,-1
 -45 232 l 2,38,39
 -52 248 -52 248 -52 259 c 0,40,41
 -52 305 -52 305 -6.5 351.5 c 128,-1,42
 39 398 39 398 84 398 c 0,43,44
 97 398 97 398 109 391 c 0,45,46
 154 374 154 374 161 322 c 0,47,48
 161 293 161 293 148 266 c 2,49,-1
 123 214 l 1,50,-1
 143 199 l 2,51,52
 153 189 153 189 158 182 c 0,53,54
 168 167 168 167 167 146 c 2,0,-1
34 337 m 1,55,-1
 21 323 l 1,56,-1
 10 314 l 1,57,-1
 10 294 l 1,58,-1
 22 273 l 1,59,-1
 95 223 l 1,60,-1
 104 238 l 1,61,-1
 108 244 l 1,62,-1
 109 258 l 2,63,64
 109 274 109 274 104 283 c 2,65,-1
 94 300 l 1,66,-1
 83 314 l 2,67,68
 63 337 63 337 34 337 c 1,55,-1
EndSplineSet
EndChar

StartChar: afii57456
Encoding: 1616 1616 432
Width: 0
GlyphClass: 4
Flags: W
AnchorPoint: "Anchor-3" 0 0 mark 0
AnchorPoint: "Anchor-1" 0 0 mark 0
LayerCount: 2
Fore
SplineSet
200 283 m 1,0,1
 200 207 200 207 155 181 c 1,2,-1
 -218 4 l 1,3,4
 -218 66 -218 66 -199 97 c 0,5,6
 -190 106 -190 106 -175 116 c 2,7,-1
 -133 140 l 1,8,-1
 200 283 l 1,0,1
EndSplineSet
EndChar

StartChar: afii57457
Encoding: 1617 1617 433
Width: 0
GlyphClass: 4
Flags: W
AnchorPoint: "Anchor-2" 0 0 mark 0
AnchorPoint: "Anchor-0" 0 0 mark 0
LayerCount: 2
Fore
SplineSet
183 237 m 2,0,1
 188 168 188 168 155 118 c 0,2,3
 118 59 118 59 50 62 c 2,4,-1
 25 63 l 1,5,-1
 8 66 l 1,6,-1
 -14 66 l 1,7,-1
 -32 46 l 1,8,-1
 -55 28 l 2,9,10
 -88 0 -88 0 -139 0 c 0,11,12
 -245 0 -245 0 -245 118 c 0,13,14
 -242 161 -242 161 -214 227 c 1,15,-1
 -162 234 l 1,16,-1
 -162 202 l 2,17,18
 -161 157 -161 157 -153 137 c 0,19,20
 -150 126 -150 126 -134 125 c 0,21,22
 -84 123 -84 123 -49 279 c 1,23,-1
 -1 291 l 1,24,25
 3 272 3 272 14 237 c 2,26,-1
 20 221 l 2,27,28
 27 199 27 199 50 192 c 1,29,30
 77 192 77 192 97 224 c 1,31,32
 111 259 111 259 111 329 c 1,33,-1
 165 344 l 1,34,-1
 179 280 l 1,35,-1
 183 237 l 2,0,1
EndSplineSet
EndChar

StartChar: afii57458
Encoding: 1618 1618 434
Width: 0
GlyphClass: 4
Flags: W
AnchorPoint: "Anchor-2" 0 0 mark 0
AnchorPoint: "Anchor-0" 0 0 mark 0
LayerCount: 2
Fore
SplineSet
153 160 m 0,0,1
 153 97 153 97 97.5 52 c 128,-1,2
 42 7 42 7 -22 7 c 0,3,4
 -146 7 -146 7 -146 119 c 0,5,6
 -146 298 -146 298 13 298 c 0,7,8
 63 298 63 298 108 254 c 128,-1,9
 153 210 153 210 153 160 c 0,0,1
90 137 m 1,10,11
 85 167 85 167 36 190 c 2,12,-1
 3 207 l 2,13,14
 -21 220 -21 220 -41 220 c 0,15,16
 -69 220 -69 220 -88 200 c 0,17,18
 -94 197 -94 197 -104 181 c 1,19,-1
 -108 154 l 1,20,21
 -108 98 -108 98 -1 98 c 0,22,23
 48 98 48 98 64 108 c 2,24,-1
 78 118 l 2,25,26
 85 123 85 123 90 137 c 1,10,11
EndSplineSet
EndChar

StartChar: exclam
Encoding: 33 33 437
Width: 626
GlyphClass: 2
Flags: W
LayerCount: 2
Fore
SplineSet
489 1324 m 1,0,-1
 489 588 l 1,1,-1
 439 315 l 1,2,-1
 387 315 l 1,3,-1
 321 703 l 1,4,-1
 271 1121 l 1,5,-1
 489 1324 l 1,0,-1
418 239 m 0,6,7
 469 239 469 239 504 203.5 c 128,-1,8
 539 168 539 168 539 118 c 256,9,10
 539 68 539 68 503.5 32 c 128,-1,11
 468 -4 468 -4 418 -4 c 256,12,13
 368 -4 368 -4 332 32 c 128,-1,14
 296 68 296 68 296 118 c 256,15,16
 296 168 296 168 332 203.5 c 128,-1,17
 368 239 368 239 418 239 c 0,6,7
EndSplineSet
EndChar

StartChar: afii64060
Encoding: 64830 64830 438
Width: 877
GlyphClass: 2
Flags: W
LayerCount: 2
Fore
SplineSet
757 1365 m 1,0,1
 324 962 324 962 324 545 c 0,2,3
 324 352 324 352 427 142 c 0,4,5
 523 -54 523 -54 751 -292 c 1,6,-1
 741 -307 l 1,7,-1
 676 -268 l 1,8,-1
 622 -235 l 1,9,-1
 538 -176 l 2,10,11
 484 -138 484 -138 397 -50 c 0,12,13
 273 77 273 77 205 233 c 0,14,15
 141 382 141 382 141 549 c 0,16,17
 141 679 141 679 198 843 c 2,18,-1
 231 942 l 2,19,20
 257 1023 257 1023 327 1097 c 0,21,22
 353 1127 353 1127 448 1204 c 1,23,-1
 698 1373 l 1,24,-1
 691 1362 l 1,25,-1
 699 1362 l 1,26,-1
 709 1366 l 1,27,-1
 734 1380 l 1,28,-1
 757 1365 l 1,0,1
EndSplineSet
EndChar

StartChar: afii64061
Encoding: 64831 64831 439
Width: 930
GlyphClass: 2
Flags: W
LayerCount: 2
Fore
SplineSet
201 1380 m 1,0,-1
 226 1366 l 1,1,-1
 236 1362 l 1,2,-1
 244 1362 l 1,3,-1
 237 1373 l 1,4,-1
 487 1204 l 1,5,6
 582 1127 582 1127 608 1097 c 0,7,8
 678 1023 678 1023 704 942 c 2,9,-1
 737 843 l 2,10,11
 794 679 794 679 794 549 c 0,12,13
 794 382 794 382 730 233 c 0,14,15
 662 77 662 77 538 -50 c 0,16,17
 451 -138 451 -138 397 -176 c 2,18,-1
 313 -235 l 1,19,-1
 259 -268 l 1,20,-1
 194 -307 l 1,21,-1
 184 -292 l 1,22,23
 412 -54 412 -54 508 142 c 0,24,25
 611 352 611 352 611 545 c 0,26,27
 611 962 611 962 178 1365 c 1,28,-1
 201 1380 l 1,0,-1
EndSplineSet
EndChar

StartChar: afii62821
Encoding: 65252 65252 440
Width: 1043
GlyphClass: 2
Flags: W
AnchorPoint: "Anchor-3" 495 -570 basechar 0
AnchorPoint: "Anchor-2" 450 720 basechar 0
LayerCount: 2
Fore
SplineSet
801 46 m 1,0,-1
 734 8 l 2,1,2
 720 0 720 0 680 -11 c 1,3,-1
 633 -14 l 1,4,-1
 589 -14 l 2,5,6
 574 -13 574 -13 570 -11 c 2,7,-1
 542 -6 l 2,8,9
 507 3 507 3 458 22 c 0,10,11
 417 39 417 39 328 90 c 1,12,-1
 276 127 l 1,13,14
 238 95 238 95 195 71 c 0,15,16
 130 36 130 36 34 1 c 1,17,-1
 -22 0 l 1,18,-1
 -22 186 l 1,19,20
 111 186 111 186 244 283 c 0,21,22
 255 288 255 288 381 410 c 0,23,24
 448 475 448 475 526 475 c 0,25,26
 568 475 568 475 637 406 c 2,27,-1
 728 312 l 2,28,29
 766 273 766 273 801 248 c 2,30,-1
 855 210 l 2,31,32
 889 186 889 186 934 186 c 2,33,-1
 1088 186 l 1,34,-1
 1088 0 l 1,35,-1
 1011 0 l 1,36,-1
 972 4 l 1,37,-1
 920 10 l 1,38,-1
 885 18 l 2,39,40
 843 29 843 29 801 46 c 1,0,-1
645 148 m 1,41,-1
 643 169 l 2,42,43
 637 223 637 223 575 283 c 0,44,45
 560 301 560 301 515 328 c 1,46,-1
 494 329 l 2,47,48
 455 329 455 329 427 308 c 1,49,-1
 396 256 l 1,50,51
 399 239 399 239 421 216 c 0,52,53
 437 203 437 203 493 176 c 1,54,55
 543 161 543 161 574.5 154.5 c 128,-1,56
 606 148 606 148 645 148 c 1,41,-1
EndSplineSet
EndChar

StartChar: uni25CC
Encoding: 9676 9676 441
Width: 911
Flags: W
AnchorPoint: "Anchor-3" 450 -450 basechar 0
AnchorPoint: "Anchor-2" 480 990 basechar 0
LayerCount: 2
Fore
SplineSet
771 629 m 256,0,1
 771 592 771 592 734 592 c 0,2,3
 695 592 695 592 695 629 c 256,4,5
 695 666 695 666 734 666 c 0,6,7
 771 666 771 666 771 629 c 256,0,1
658 703 m 0,8,9
 658 666 658 666 621 666 c 0,10,11
 582 666 582 666 582 703 c 0,12,13
 582 742 582 742 621 742 c 0,14,15
 658 742 658 742 658 703 c 0,8,9
847 516 m 0,16,17
 847 477 847 477 808 477 c 0,18,19
 771 477 771 477 771 516 c 0,20,21
 771 553 771 553 810 553 c 0,22,23
 847 553 847 553 847 516 c 0,16,17
873 384 m 256,24,25
 873 347 873 347 836 347 c 0,26,27
 797 347 797 347 797 384 c 256,28,29
 797 421 797 421 836 421 c 0,30,31
 873 421 873 421 873 384 c 256,24,25
525 731 m 0,32,33
 525 692 525 692 488 692 c 256,34,35
 451 692 451 692 451 731 c 0,36,37
 451 768 451 768 488 768 c 256,38,39
 525 768 525 768 525 731 c 0,32,33
847 251 m 0,40,41
 847 214 847 214 808 214 c 0,42,43
 771 214 771 214 771 251 c 0,44,45
 771 290 771 290 808 290 c 0,46,47
 847 290 847 290 847 251 c 0,40,41
394 703 m 0,48,49
 394 666 394 666 356 666 c 0,50,51
 319 666 319 666 319 703 c 0,52,53
 319 742 319 742 356 742 c 0,54,55
 394 742 394 742 394 703 c 0,48,49
282 629 m 256,56,57
 282 592 282 592 243 592 c 0,58,59
 206 592 206 592 206 627 c 0,60,61
 206 666 206 666 243 666 c 0,62,63
 282 666 282 666 282 629 c 256,56,57
771 138 m 0,64,65
 771 101 771 101 734 101 c 256,66,67
 697 101 697 101 697 138 c 0,68,69
 697 177 697 177 734 177 c 256,70,71
 771 177 771 177 771 138 c 0,64,65
658 64 m 0,72,73
 658 27 658 27 621 27 c 256,74,75
 584 27 584 27 584 64 c 0,76,77
 584 103 584 103 621 103 c 256,78,79
 658 103 658 103 658 64 c 0,72,73
206 516 m 0,80,81
 206 477 206 477 171 477 c 0,82,83
 132 477 132 477 132 516 c 0,84,85
 132 553 132 553 169 553 c 256,86,87
 206 553 206 553 206 516 c 0,80,81
180 384 m 256,88,89
 180 347 180 347 143 347 c 0,90,91
 104 347 104 347 104 384 c 256,92,93
 104 421 104 421 143 421 c 0,94,95
 180 421 180 421 180 384 c 256,88,89
525 38 m 0,96,97
 525 -1 525 -1 488 -1 c 256,98,99
 451 -1 451 -1 451 38 c 0,100,101
 451 75 451 75 488 75 c 256,102,103
 525 75 525 75 525 38 c 0,96,97
394 66 m 0,104,105
 394 27 394 27 356 27 c 0,106,107
 319 27 319 27 319 64 c 0,108,109
 319 103 319 103 356 103 c 0,110,111
 394 103 394 103 394 66 c 0,104,105
206 251 m 0,112,113
 206 214 206 214 169 214 c 256,114,115
 132 214 132 214 132 251 c 0,116,117
 132 290 132 290 169 290 c 256,118,119
 206 290 206 290 206 251 c 0,112,113
282 138 m 0,120,121
 282 101 282 101 245 101 c 0,122,123
 206 101 206 101 206 138 c 0,124,125
 206 177 206 177 243 177 c 0,126,127
 282 177 282 177 282 138 c 0,120,121
EndSplineSet
EndChar

StartChar: afii62819
Encoding: 65246 65246 442
Width: 1481
GlyphClass: 2
Flags: W
AnchorPoint: "Anchor-3" 465 -1095 basechar 0
AnchorPoint: "Anchor-2" 720 1425 basechar 0
LayerCount: 2
Fore
SplineSet
1369 0 m 2,0,1
 1316 0 1316 0 1264 35 c 2,2,-1
 1184 90 l 1,3,4
 1184 -587 1184 -587 542 -587 c 0,5,6
 349 -587 349 -587 221 -501 c 0,7,8
 74 -403 74 -403 74 -218 c 0,9,10
 74 -52 74 -52 150 42 c 0,11,12
 174 70 174 70 230 132 c 1,13,-1
 270 136 l 1,14,-1
 270 77 l 1,15,-1
 242 34 l 2,16,17
 182 -57 182 -57 182 -115 c 0,18,19
 182 -266 182 -266 330 -339 c 0,20,21
 449 -396 449 -396 624 -396 c 0,22,23
 998 -396 998 -396 1068 -115 c 1,24,-1
 1002 1394 l 1,25,26
 1030 1470 1030 1470 1084 1516 c 1,27,28
 1119 1392 1119 1392 1130 1170 c 2,29,-1
 1155 654 l 1,30,-1
 1189 332 l 2,31,32
 1189 308 1189 308 1191 300 c 2,33,-1
 1198 284 l 2,34,35
 1210 259 1210 259 1254 231 c 1,36,-1
 1327 196 l 1,37,-1
 1348 190 l 1,38,-1
 1386 189 l 1,39,-1
 1477 186 l 1,40,-1
 1525 186 l 1,41,-1
 1525 0 l 1,42,-1
 1369 0 l 2,0,1
EndSplineSet
EndChar

StartChar: braceright
Encoding: 125 125 445
Width: 838
GlyphClass: 2
Flags: W
LayerCount: 2
Fore
SplineSet
151 1182 m 1,0,-1
 151 1212 l 1,1,2
 292 1192 292 1192 381.5 1096.5 c 128,-1,3
 471 1001 471 1001 471 884 c 0,4,5
 471 822 471 822 452 741 c 128,-1,6
 433 660 433 660 433 616 c 0,7,8
 433 554 433 554 483.5 500.5 c 128,-1,9
 534 447 534 447 627 436 c 1,10,-1
 627 400 l 1,11,12
 534 389 534 389 483.5 335.5 c 128,-1,13
 433 282 433 282 433 221 c 0,14,15
 433 176 433 176 452 94 c 128,-1,16
 471 12 471 12 471 -49 c 0,17,18
 471 -164 471 -164 381.5 -260.5 c 128,-1,19
 292 -357 292 -357 151 -377 c 1,20,-1
 151 -348 l 1,21,22
 250 -321 250 -321 296 -268 c 128,-1,23
 342 -215 342 -215 342 -149 c 0,24,25
 342 -99 342 -99 323 -16.5 c 128,-1,26
 304 66 304 66 304 123 c 0,27,28
 304 210 304 210 368 290.5 c 128,-1,29
 432 371 432 371 555 415 c 1,30,31
 434 461 434 461 369 544 c 128,-1,32
 304 627 304 627 304 713 c 0,33,34
 304 770 304 770 323 852.5 c 128,-1,35
 342 935 342 935 342 986 c 0,36,37
 342 1050 342 1050 296 1104 c 128,-1,38
 250 1158 250 1158 151 1182 c 1,0,-1
EndSplineSet
EndChar

